<svg width="46" height="46" viewBox="0 0 46 46" fill="none" xmlns="http://www.w3.org/2000/svg"><path d="M22.795 1C10.7774 1 1 10.7774 1 22.795C1 34.8126 10.7774 44.59 22.795 44.59C34.8126 44.59 44.59 34.8126 44.59 22.795C44.59 10.7774 34.8126 1 22.795 1ZM22.795 16.1617C26.4528 16.1617 29.4283 19.1372 29.4283 22.795C29.4283 26.4528 26.4528 29.4283 22.795 29.4283C19.1372 29.4283 16.1617 26.4528 16.1617 22.795C16.1617 19.1372 19.1372 16.1617 22.795 16.1617ZM22.795 42.6948C12.142 42.6948 3.44294 34.2743 2.9426 23.7426H14.3613C14.8389 27.9955 18.4152 31.3235 22.7931 31.3235C27.1711 31.3235 30.7473 27.9955 31.2249 23.7426H42.6436C42.1471 34.2743 33.448 42.6948 22.795 42.6948Z" fill="#3664AE" stroke="#3664AE"/><path d="M22.7947 18.0569C20.1831 18.0569 18.0566 20.1834 18.0566 22.795C18.0566 25.4066 20.1831 27.533 22.7947 27.533C25.4063 27.533 27.5327 25.4066 27.5327 22.795C27.5327 20.1834 25.4063 18.0569 22.7947 18.0569ZM22.7947 25.6378C21.2273 25.6378 19.9519 24.3623 19.9519 22.795C19.9519 21.2276 21.2273 19.9522 22.7947 19.9522C24.362 19.9522 25.6375 21.2276 25.6375 22.795C25.6375 24.3623 24.362 25.6378 22.7947 25.6378Z" fill="#3664AE" stroke="#3664AE"/></svg>