<svg width="44" height="44" viewBox="0 0 44 44" fill="none" xmlns="http://www.w3.org/2000/svg"><path d="M21.7969 0C9.75586 0 0 9.75586 0 21.7969C0 33.8379 9.75586 43.5938 21.7969 43.5938C33.8379 43.5938 43.5938 33.8379 43.5938 21.7969C43.5938 9.75586 33.8379 0 21.7969 0ZM21.7969 39.375C12.085 39.375 4.21875 31.5088 4.21875 21.7969C4.21875 12.085 12.085 4.21875 21.7969 4.21875C31.5088 4.21875 39.375 12.085 39.375 21.7969C39.375 31.5088 31.5088 39.375 21.7969 39.375ZM27.2285 30.1992L19.7666 24.7764C19.4941 24.5742 19.3359 24.2578 19.3359 23.9238V9.49219C19.3359 8.91211 19.8105 8.4375 20.3906 8.4375H23.2031C23.7832 8.4375 24.2578 8.91211 24.2578 9.49219V21.9463L30.1289 26.2178C30.6035 26.5605 30.7002 27.2197 30.3574 27.6943L28.7051 29.9707C28.3623 30.4365 27.7031 30.542 27.2285 30.1992Z" fill="#3664AE"/></svg>