<svg width="26" height="26" viewBox="0 0 26 26" fill="none" xmlns="http://www.w3.org/2000/svg"><path fill-rule="evenodd" clip-rule="evenodd" d="M12.9606 15.7891L3.41999 25.3297C2.63714 26.1126 1.36736 26.1161 0.586307 25.335C-0.200187 24.5485 -0.192407 23.2853 0.591556 22.5013L10.1322 12.9607L0.591556 3.41999C-0.191293 2.63714 -0.194742 1.36734 0.586307 0.586292C1.3728 -0.200202 2.63602 -0.192392 3.41999 0.591571L12.9606 10.1322L22.5013 0.591571C23.2842 -0.191278 24.554 -0.194757 25.335 0.586292C26.1215 1.37279 26.1137 2.63602 25.3298 3.41999L15.7891 12.9607L25.3298 22.5013C26.1126 23.2842 26.1161 24.554 25.335 25.335C24.5485 26.1215 23.2853 26.1137 22.5013 25.3297L12.9606 15.7891Z" fill="white"/></svg>