<svg width="573" height="96" viewBox="0 0 573 96" fill="none" xmlns="http://www.w3.org/2000/svg">
<g filter="url(#filter0_d_1131_2)">
<mask id="path-1-outside-1_1131_2" maskUnits="userSpaceOnUse" x="0.212891" y="0.1875" width="568" height="92" fill="black">
<rect fill="white" x="0.212891" y="0.1875" width="568" height="92"/>
<path d="M26.1816 70.9062L58.9629 72.4375L58.7129 86L13.1191 83.7188L10.5879 36.5938L6.21289 37.375L6.99414 22.5312L44.8691 16.875L45.6504 30.4688L24.1504 34.0312L24.6504 43.7812L45.9004 40.1875L46.6816 51.4375L25.1816 55.5312L26.1816 70.9062Z"/>
<path d="M88.2691 44.5312L77.2379 51.7188C76.6962 50.3229 75.9671 49.1354 75.0504 48.1562C74.1546 47.1562 73.2275 46.6562 72.2691 46.6562C70.8941 46.6562 69.7379 47.7396 68.8004 49.9062C67.9046 51.9896 67.4566 55.6354 67.4566 60.8438C67.4566 64.4896 67.6441 68.7812 68.0191 73.7188L52.6754 75.5C51.7796 69.0625 51.3316 63.3229 51.3316 58.2812C51.3316 57.4479 51.3733 56.3021 51.4566 54.8438L50.8941 36.5938L63.1754 35.0625L64.9566 37.125C66.415 36.625 67.7587 36.1979 68.9879 35.8438C70.2379 35.4896 71.4046 35.2083 72.4879 35C73.5712 34.7917 74.6233 34.6875 75.6441 34.6875C77.7066 34.6875 79.5191 35.1562 81.0816 36.0938C83.0608 37.1979 84.6233 38.3438 85.7691 39.5312C86.9358 40.7188 87.7691 42.3854 88.2691 44.5312Z"/>
<path d="M129.857 44.5312L118.825 51.7188C118.284 50.3229 117.555 49.1354 116.638 48.1562C115.742 47.1562 114.815 46.6562 113.857 46.6562C112.482 46.6562 111.325 47.7396 110.388 49.9062C109.492 51.9896 109.044 55.6354 109.044 60.8438C109.044 64.4896 109.232 68.7812 109.607 73.7188L94.2629 75.5C93.3671 69.0625 92.9191 63.3229 92.9191 58.2812C92.9191 57.4479 92.9608 56.3021 93.0441 54.8438L92.4816 36.5938L104.763 35.0625L106.544 37.125C108.002 36.625 109.346 36.1979 110.575 35.8438C111.825 35.4896 112.992 35.2083 114.075 35C115.159 34.7917 116.211 34.6875 117.232 34.6875C119.294 34.6875 121.107 35.1562 122.669 36.0938C124.648 37.1979 126.211 38.3438 127.357 39.5312C128.523 40.7188 129.357 42.3854 129.857 44.5312Z"/>
<path d="M162.913 41.1562C164.392 41.9479 165.59 43.0208 166.507 44.375C167.444 45.7083 168.121 47.2188 168.538 48.9062C168.975 50.5729 169.194 52.3125 169.194 54.125C169.194 55.625 169.069 57.0729 168.819 58.4688C168.59 59.8646 168.267 61.1458 167.85 62.3125C167.434 63.4792 166.944 64.4688 166.382 65.2812C165.069 67.2396 163.663 68.9271 162.163 70.3438C160.663 71.7604 159.132 72.9062 157.569 73.7812C156.007 74.6354 154.455 75.2604 152.913 75.6562C151.392 76.0729 149.882 76.2812 148.382 76.2812C146.611 76.2812 144.923 76 143.319 75.4375C141.736 74.8958 140.382 74.1771 139.257 73.2812C137.402 71.7396 135.955 69.6667 134.913 67.0625C133.871 64.4375 133.35 61.6667 133.35 58.75C133.35 53.7292 134.798 49.6771 137.694 46.5938C140.173 43.9479 142.736 41.9583 145.382 40.625C148.027 39.2708 150.736 38.5938 153.507 38.5938C155.132 38.5938 156.694 38.8021 158.194 39.2188C159.694 39.6146 161.267 40.2604 162.913 41.1562ZM161.069 46.4062C160.715 47.9896 159.944 49.3854 158.757 50.5938C157.59 51.8021 156.444 52.4062 155.319 52.4062C154.757 52.4062 154.257 52.2604 153.819 51.9688C153.194 51.4688 152.882 50.5938 152.882 49.3438C152.882 48.3854 153.194 47.4375 153.819 46.5C154.465 45.5625 155.475 44.8229 156.85 44.2812C155.475 44.2812 154.142 44.5417 152.85 45.0625C151.58 45.5833 150.486 46.2604 149.569 47.0938C148.652 47.9062 147.913 48.8333 147.35 49.875C146.809 50.8958 146.538 51.9271 146.538 52.9688C146.538 54.9062 147.434 56.4479 149.225 57.5938C150.892 58.6562 152.475 59.1875 153.975 59.1875C155.455 59.1875 156.767 58.6979 157.913 57.7188C159.059 56.7188 159.934 55.4479 160.538 53.9062C161.142 52.3438 161.444 50.8021 161.444 49.2812C161.444 48.2396 161.319 47.2812 161.069 46.4062Z"/>
<path d="M209.844 44.5312L198.813 51.7188C198.271 50.3229 197.542 49.1354 196.625 48.1562C195.73 47.1562 194.802 46.6562 193.844 46.6562C192.469 46.6562 191.313 47.7396 190.375 49.9062C189.48 51.9896 189.032 55.6354 189.032 60.8438C189.032 64.4896 189.219 68.7812 189.594 73.7188L174.25 75.5C173.355 69.0625 172.907 63.3229 172.907 58.2812C172.907 57.4479 172.948 56.3021 173.032 54.8438L172.469 36.5938L184.75 35.0625L186.532 37.125C187.99 36.625 189.334 36.1979 190.563 35.8438C191.813 35.4896 192.98 35.2083 194.063 35C195.146 34.7917 196.198 34.6875 197.219 34.6875C199.282 34.6875 201.094 35.1562 202.657 36.0938C204.636 37.1979 206.198 38.3438 207.344 39.5312C208.511 40.7188 209.344 42.3854 209.844 44.5312Z"/>
<path d="M296.488 28.1562C301.425 31.9271 303.894 36.9583 303.894 43.25C303.894 45.4167 303.582 47.6562 302.957 49.9688C302.352 52.2604 301.498 54.4583 300.394 56.5625C299.29 58.6667 298.071 60.5417 296.738 62.1875C294.55 64.8958 292.384 67.1771 290.238 69.0312C288.113 70.8854 285.967 72.3958 283.8 73.5625C281.634 74.7083 279.54 75.5417 277.519 76.0625C275.498 76.5833 273.519 76.8438 271.582 76.8438C267.082 76.8438 263.009 75.6354 259.363 73.2188C256.905 71.5521 254.863 68.9479 253.238 65.4062C251.634 61.8646 250.832 58.0625 250.832 54C250.832 47.4792 252.905 41.8542 257.05 37.125C259.488 34.3333 262.05 31.8542 264.738 29.6875C267.425 27.5208 270.207 25.8229 273.082 24.5938C275.957 23.3438 278.894 22.7188 281.894 22.7188C286.832 22.7188 291.696 24.5312 296.488 28.1562ZM290.332 36.2188C289.915 38.5521 289.071 40.4792 287.8 42C286.53 43.5208 285.217 44.2812 283.863 44.2812C283.009 44.2812 282.269 43.9583 281.644 43.3125C281.311 42.9792 281.03 42.4792 280.8 41.8125C280.592 41.1458 280.488 40.5 280.488 39.875C280.488 38.6042 280.863 37.3542 281.613 36.125C282.384 34.875 283.602 33.7917 285.269 32.875C283.269 32.875 281.561 33.3438 280.144 34.2812C278.748 35.1979 277.717 36.375 277.05 37.8125C276.384 39.25 276.05 40.7396 276.05 42.2812C276.05 44.6979 276.759 46.4688 278.175 47.5938C279.884 48.9688 281.592 49.6562 283.3 49.6562C285.405 49.6562 287.175 48.7188 288.613 46.8438C290.05 44.9688 290.769 42.6458 290.769 39.875C290.769 38.5833 290.623 37.3646 290.332 36.2188Z"/>
<path d="M334.419 37.875C335.752 38.7292 336.95 39.9167 338.013 41.4375C339.096 42.9375 339.93 44.3333 340.513 45.625C341.096 46.8958 341.482 47.8125 341.669 48.375L330.075 50.9375C329.888 49.8958 329.336 49.2083 328.419 48.875C327.502 48.5417 326.544 48.375 325.544 48.375C320.252 48.875 317.607 52.0312 317.607 57.8438C317.752 62.4479 319.2 65.0104 321.95 65.5312C323.263 65.5312 324.45 65.2083 325.513 64.5625C326.575 63.9167 327.482 63.0625 328.232 62C329.002 60.9167 329.638 59.7083 330.138 58.375L341.732 60.7188C341.607 61.1354 341.305 61.9688 340.825 63.2188C340.284 64.6146 339.013 66.4792 337.013 68.8125C335.034 71.1458 332.825 72.7812 330.388 73.7188C327.45 74.8646 324.534 75.4375 321.638 75.4375C317.013 75.4375 312.909 73.9271 309.325 70.9062C307.7 69.4896 306.523 67.8438 305.794 65.9688C305.044 64.0938 304.669 62.1146 304.669 60.0312C304.669 57.8646 304.971 55.7292 305.575 53.625C306.18 51.5208 306.919 49.6042 307.794 47.875C308.94 45.625 310.2 43.7083 311.575 42.125C312.95 40.5208 314.388 39.2188 315.888 38.2188C317.409 37.1979 318.961 36.4479 320.544 35.9688C322.127 35.4896 323.721 35.25 325.325 35.25C328.617 35.25 331.648 36.125 334.419 37.875Z"/>
<path d="M372.819 37.875C374.152 38.7292 375.35 39.9167 376.413 41.4375C377.496 42.9375 378.33 44.3333 378.913 45.625C379.496 46.8958 379.882 47.8125 380.069 48.375L368.475 50.9375C368.288 49.8958 367.736 49.2083 366.819 48.875C365.902 48.5417 364.944 48.375 363.944 48.375C358.652 48.875 356.007 52.0312 356.007 57.8438C356.152 62.4479 357.6 65.0104 360.35 65.5312C361.663 65.5312 362.85 65.2083 363.913 64.5625C364.975 63.9167 365.882 63.0625 366.632 62C367.402 60.9167 368.038 59.7083 368.538 58.375L380.132 60.7188C380.007 61.1354 379.705 61.9688 379.225 63.2188C378.684 64.6146 377.413 66.4792 375.413 68.8125C373.434 71.1458 371.225 72.7812 368.788 73.7188C365.85 74.8646 362.934 75.4375 360.038 75.4375C355.413 75.4375 351.309 73.9271 347.725 70.9062C346.1 69.4896 344.923 67.8438 344.194 65.9688C343.444 64.0938 343.069 62.1146 343.069 60.0312C343.069 57.8646 343.371 55.7292 343.975 53.625C344.58 51.5208 345.319 49.6042 346.194 47.875C347.34 45.625 348.6 43.7083 349.975 42.125C351.35 40.5208 352.788 39.2188 354.288 38.2188C355.809 37.1979 357.361 36.4479 358.944 35.9688C360.527 35.4896 362.121 35.25 363.725 35.25C367.017 35.25 370.048 36.125 372.819 37.875Z"/>
<path d="M385.438 36.0938L400.782 37.875C400.407 42.8125 400.219 46.8854 400.219 50.0938C400.219 51.6979 400.261 53.0833 400.344 54.25C400.448 55.4167 400.605 56.4792 400.813 57.4375C401.021 58.3958 401.271 59.2188 401.563 59.9062C402.875 62.8854 404.073 64.375 405.157 64.375C405.99 64.375 406.844 63.3125 407.719 61.1875C408.302 59.7083 408.823 58.2604 409.282 56.8438C409.74 55.4062 410.094 54.0417 410.344 52.75C410.594 51.4583 410.782 50.0417 410.907 48.5C411.032 46.9583 411.094 45.2708 411.094 43.4375C411.094 41.6042 411.073 40.1771 411.032 39.1562L424.094 39.9375C424.782 44.25 425.188 46.8542 425.313 47.75C425.438 48.625 425.5 49.7292 425.5 51.0625C425.5 53.3333 424.948 56.7083 423.844 61.1875C423.302 63.4583 422.105 65.8438 420.25 68.3438C418.396 70.8438 416.605 72.5938 414.875 73.5938C412.167 75.1354 409.011 75.9062 405.407 75.9062C402.907 75.9062 400.469 75.5521 398.094 74.8438C395.74 74.1354 393.573 73.0833 391.594 71.6875C389.74 70.3958 388.25 68.7083 387.125 66.625C386.021 64.5417 385.25 62.2708 384.813 59.8125C384.375 57.3542 384.157 54.625 384.157 51.625C384.157 49.8333 384.209 48.1042 384.313 46.4375C384.438 44.7708 384.594 43.0729 384.782 41.3438C384.969 39.5938 385.188 37.8438 385.438 36.0938Z"/>
<path d="M465.869 44.5312L454.838 51.7188C454.296 50.3229 453.567 49.1354 452.65 48.1562C451.755 47.1562 450.827 46.6562 449.869 46.6562C448.494 46.6562 447.338 47.7396 446.4 49.9062C445.505 51.9896 445.057 55.6354 445.057 60.8438C445.057 64.4896 445.244 68.7812 445.619 73.7188L430.275 75.5C429.38 69.0625 428.932 63.3229 428.932 58.2812C428.932 57.4479 428.973 56.3021 429.057 54.8438L428.494 36.5938L440.775 35.0625L442.557 37.125C444.015 36.625 445.359 36.1979 446.588 35.8438C447.838 35.4896 449.005 35.2083 450.088 35C451.171 34.7917 452.223 34.6875 453.244 34.6875C455.307 34.6875 457.119 35.1562 458.682 36.0938C460.661 37.1979 462.223 38.3438 463.369 39.5312C464.536 40.7188 465.369 42.3854 465.869 44.5312Z"/>
<path d="M499.394 57.7188L506.925 66.8125C506.321 68.5625 504.884 70.1667 502.613 71.625C500.363 73.0833 497.675 74.2292 494.55 75.0625C491.446 75.9167 488.342 76.3438 485.238 76.3438C482.488 76.3438 480.03 75.9792 477.863 75.25C475.717 74.5208 474.061 73.4167 472.894 71.9375C470.873 69.3958 469.863 66.1458 469.863 62.1875C469.863 59.0625 470.425 55.9896 471.55 52.9688C472.696 49.9271 473.905 47.8021 475.175 46.5938C476.696 45.1562 478.342 43.9583 480.113 43C481.905 42.0417 483.759 41.3229 485.675 40.8438C487.592 40.3646 489.561 40.125 491.582 40.125C494.227 40.125 496.738 40.5521 499.113 41.4062C501.509 42.2396 503.602 43.4583 505.394 45.0625L488.238 65.5312C489.759 65.5312 491.196 65.2188 492.55 64.5938C493.925 63.9479 495.186 63.0417 496.332 61.875C497.477 60.6875 498.498 59.3021 499.394 57.7188ZM490.738 50.4375C489.717 49.9167 488.675 49.6562 487.613 49.6562C486.488 49.6562 485.394 49.8854 484.332 50.3438C483.29 50.8021 482.55 51.3438 482.113 51.9688C480.821 53.6354 480.175 55.4688 480.175 57.4688C480.175 58.1979 480.248 58.8958 480.394 59.5625C480.54 60.2292 480.79 61.1458 481.144 62.3125L490.738 50.4375Z"/>
<path d="M529.732 44.4062C528.586 44.5521 527.45 44.9167 526.325 45.5C525.221 46.0833 524.273 46.7708 523.482 47.5625C522.69 48.3542 522.065 49.2292 521.607 50.1875C521.169 51.125 520.95 52.0521 520.95 52.9688C520.95 54.8646 521.846 56.4062 523.638 57.5938C525.221 58.6562 526.825 59.1875 528.45 59.1875C528.763 59.1875 529.19 59.1458 529.732 59.0625V52.4062C529.169 52.4062 528.669 52.2604 528.232 51.9688C527.607 51.4688 527.294 50.5104 527.294 49.0938C527.294 47.0521 528.107 45.4896 529.732 44.4062ZM529.45 14.0625L542.513 8.1875L543.294 50.5C543.461 51.5833 543.544 52.8125 543.544 54.1875C543.544 55.3958 543.502 56.2917 543.419 56.875L543.794 76.0312L529.732 76.7812V74.875C527.44 75.8125 525.127 76.2812 522.794 76.2812C521.002 76.2812 519.315 76.0104 517.732 75.4688C516.169 74.9271 514.815 74.1979 513.669 73.2812C511.815 71.7396 510.367 69.6667 509.325 67.0625C508.284 64.4375 507.763 61.6667 507.763 58.75C507.763 53.7292 509.211 49.6771 512.107 46.5938C514.607 43.9688 517.179 41.9792 519.825 40.625C522.492 39.2708 525.211 38.5938 527.982 38.5938C528.752 38.5938 529.336 38.6146 529.732 38.6562L529.45 14.0625Z"/>
<path d="M552.507 61.9375C553.986 61.9375 555.257 62.1875 556.319 62.6875C557.402 63.1667 558.288 63.7604 558.975 64.4688C559.663 65.1562 560.132 65.7604 560.382 66.2812C560.632 66.8646 560.757 67.4896 560.757 68.1562C560.757 69.1771 560.538 70.2083 560.1 71.25C559.663 72.2708 559.121 73.1771 558.475 73.9688C557.85 74.7396 557.267 75.1667 556.725 75.25C555.6 75.4167 554.788 75.5 554.288 75.5C552.225 75.5 550.569 74.9688 549.319 73.9062C548.09 72.8229 547.361 71.3542 547.132 69.5C547.132 67.7083 547.559 66.0417 548.413 64.5C549.288 62.9583 550.652 62.1042 552.507 61.9375ZM547.882 53.25L543.788 18.6875L562.475 13.0625L558.632 52.2188L547.882 53.25Z"/>
</mask>
<path d="M26.1816 70.9062L58.9629 72.4375L58.7129 86L13.1191 83.7188L10.5879 36.5938L6.21289 37.375L6.99414 22.5312L44.8691 16.875L45.6504 30.4688L24.1504 34.0312L24.6504 43.7812L45.9004 40.1875L46.6816 51.4375L25.1816 55.5312L26.1816 70.9062Z" fill="#FFCB08"/>
<path d="M88.2691 44.5312L77.2379 51.7188C76.6962 50.3229 75.9671 49.1354 75.0504 48.1562C74.1546 47.1562 73.2275 46.6562 72.2691 46.6562C70.8941 46.6562 69.7379 47.7396 68.8004 49.9062C67.9046 51.9896 67.4566 55.6354 67.4566 60.8438C67.4566 64.4896 67.6441 68.7812 68.0191 73.7188L52.6754 75.5C51.7796 69.0625 51.3316 63.3229 51.3316 58.2812C51.3316 57.4479 51.3733 56.3021 51.4566 54.8438L50.8941 36.5938L63.1754 35.0625L64.9566 37.125C66.415 36.625 67.7587 36.1979 68.9879 35.8438C70.2379 35.4896 71.4046 35.2083 72.4879 35C73.5712 34.7917 74.6233 34.6875 75.6441 34.6875C77.7066 34.6875 79.5191 35.1562 81.0816 36.0938C83.0608 37.1979 84.6233 38.3438 85.7691 39.5312C86.9358 40.7188 87.7691 42.3854 88.2691 44.5312Z" fill="#FFCB08"/>
<path d="M129.857 44.5312L118.825 51.7188C118.284 50.3229 117.555 49.1354 116.638 48.1562C115.742 47.1562 114.815 46.6562 113.857 46.6562C112.482 46.6562 111.325 47.7396 110.388 49.9062C109.492 51.9896 109.044 55.6354 109.044 60.8438C109.044 64.4896 109.232 68.7812 109.607 73.7188L94.2629 75.5C93.3671 69.0625 92.9191 63.3229 92.9191 58.2812C92.9191 57.4479 92.9608 56.3021 93.0441 54.8438L92.4816 36.5938L104.763 35.0625L106.544 37.125C108.002 36.625 109.346 36.1979 110.575 35.8438C111.825 35.4896 112.992 35.2083 114.075 35C115.159 34.7917 116.211 34.6875 117.232 34.6875C119.294 34.6875 121.107 35.1562 122.669 36.0938C124.648 37.1979 126.211 38.3438 127.357 39.5312C128.523 40.7188 129.357 42.3854 129.857 44.5312Z" fill="#FFCB08"/>
<path d="M162.913 41.1562C164.392 41.9479 165.59 43.0208 166.507 44.375C167.444 45.7083 168.121 47.2188 168.538 48.9062C168.975 50.5729 169.194 52.3125 169.194 54.125C169.194 55.625 169.069 57.0729 168.819 58.4688C168.59 59.8646 168.267 61.1458 167.85 62.3125C167.434 63.4792 166.944 64.4688 166.382 65.2812C165.069 67.2396 163.663 68.9271 162.163 70.3438C160.663 71.7604 159.132 72.9062 157.569 73.7812C156.007 74.6354 154.455 75.2604 152.913 75.6562C151.392 76.0729 149.882 76.2812 148.382 76.2812C146.611 76.2812 144.923 76 143.319 75.4375C141.736 74.8958 140.382 74.1771 139.257 73.2812C137.402 71.7396 135.955 69.6667 134.913 67.0625C133.871 64.4375 133.35 61.6667 133.35 58.75C133.35 53.7292 134.798 49.6771 137.694 46.5938C140.173 43.9479 142.736 41.9583 145.382 40.625C148.027 39.2708 150.736 38.5938 153.507 38.5938C155.132 38.5938 156.694 38.8021 158.194 39.2188C159.694 39.6146 161.267 40.2604 162.913 41.1562ZM161.069 46.4062C160.715 47.9896 159.944 49.3854 158.757 50.5938C157.59 51.8021 156.444 52.4062 155.319 52.4062C154.757 52.4062 154.257 52.2604 153.819 51.9688C153.194 51.4688 152.882 50.5938 152.882 49.3438C152.882 48.3854 153.194 47.4375 153.819 46.5C154.465 45.5625 155.475 44.8229 156.85 44.2812C155.475 44.2812 154.142 44.5417 152.85 45.0625C151.58 45.5833 150.486 46.2604 149.569 47.0938C148.652 47.9062 147.913 48.8333 147.35 49.875C146.809 50.8958 146.538 51.9271 146.538 52.9688C146.538 54.9062 147.434 56.4479 149.225 57.5938C150.892 58.6562 152.475 59.1875 153.975 59.1875C155.455 59.1875 156.767 58.6979 157.913 57.7188C159.059 56.7188 159.934 55.4479 160.538 53.9062C161.142 52.3438 161.444 50.8021 161.444 49.2812C161.444 48.2396 161.319 47.2812 161.069 46.4062Z" fill="#FFCB08"/>
<path d="M209.844 44.5312L198.813 51.7188C198.271 50.3229 197.542 49.1354 196.625 48.1562C195.73 47.1562 194.802 46.6562 193.844 46.6562C192.469 46.6562 191.313 47.7396 190.375 49.9062C189.48 51.9896 189.032 55.6354 189.032 60.8438C189.032 64.4896 189.219 68.7812 189.594 73.7188L174.25 75.5C173.355 69.0625 172.907 63.3229 172.907 58.2812C172.907 57.4479 172.948 56.3021 173.032 54.8438L172.469 36.5938L184.75 35.0625L186.532 37.125C187.99 36.625 189.334 36.1979 190.563 35.8438C191.813 35.4896 192.98 35.2083 194.063 35C195.146 34.7917 196.198 34.6875 197.219 34.6875C199.282 34.6875 201.094 35.1562 202.657 36.0938C204.636 37.1979 206.198 38.3438 207.344 39.5312C208.511 40.7188 209.344 42.3854 209.844 44.5312Z" fill="#FFCB08"/>
<path d="M296.488 28.1562C301.425 31.9271 303.894 36.9583 303.894 43.25C303.894 45.4167 303.582 47.6562 302.957 49.9688C302.352 52.2604 301.498 54.4583 300.394 56.5625C299.29 58.6667 298.071 60.5417 296.738 62.1875C294.55 64.8958 292.384 67.1771 290.238 69.0312C288.113 70.8854 285.967 72.3958 283.8 73.5625C281.634 74.7083 279.54 75.5417 277.519 76.0625C275.498 76.5833 273.519 76.8438 271.582 76.8438C267.082 76.8438 263.009 75.6354 259.363 73.2188C256.905 71.5521 254.863 68.9479 253.238 65.4062C251.634 61.8646 250.832 58.0625 250.832 54C250.832 47.4792 252.905 41.8542 257.05 37.125C259.488 34.3333 262.05 31.8542 264.738 29.6875C267.425 27.5208 270.207 25.8229 273.082 24.5938C275.957 23.3438 278.894 22.7188 281.894 22.7188C286.832 22.7188 291.696 24.5312 296.488 28.1562ZM290.332 36.2188C289.915 38.5521 289.071 40.4792 287.8 42C286.53 43.5208 285.217 44.2812 283.863 44.2812C283.009 44.2812 282.269 43.9583 281.644 43.3125C281.311 42.9792 281.03 42.4792 280.8 41.8125C280.592 41.1458 280.488 40.5 280.488 39.875C280.488 38.6042 280.863 37.3542 281.613 36.125C282.384 34.875 283.602 33.7917 285.269 32.875C283.269 32.875 281.561 33.3438 280.144 34.2812C278.748 35.1979 277.717 36.375 277.05 37.8125C276.384 39.25 276.05 40.7396 276.05 42.2812C276.05 44.6979 276.759 46.4688 278.175 47.5938C279.884 48.9688 281.592 49.6562 283.3 49.6562C285.405 49.6562 287.175 48.7188 288.613 46.8438C290.05 44.9688 290.769 42.6458 290.769 39.875C290.769 38.5833 290.623 37.3646 290.332 36.2188Z" fill="#FFCB08"/>
<path d="M334.419 37.875C335.752 38.7292 336.95 39.9167 338.013 41.4375C339.096 42.9375 339.93 44.3333 340.513 45.625C341.096 46.8958 341.482 47.8125 341.669 48.375L330.075 50.9375C329.888 49.8958 329.336 49.2083 328.419 48.875C327.502 48.5417 326.544 48.375 325.544 48.375C320.252 48.875 317.607 52.0312 317.607 57.8438C317.752 62.4479 319.2 65.0104 321.95 65.5312C323.263 65.5312 324.45 65.2083 325.513 64.5625C326.575 63.9167 327.482 63.0625 328.232 62C329.002 60.9167 329.638 59.7083 330.138 58.375L341.732 60.7188C341.607 61.1354 341.305 61.9688 340.825 63.2188C340.284 64.6146 339.013 66.4792 337.013 68.8125C335.034 71.1458 332.825 72.7812 330.388 73.7188C327.45 74.8646 324.534 75.4375 321.638 75.4375C317.013 75.4375 312.909 73.9271 309.325 70.9062C307.7 69.4896 306.523 67.8438 305.794 65.9688C305.044 64.0938 304.669 62.1146 304.669 60.0312C304.669 57.8646 304.971 55.7292 305.575 53.625C306.18 51.5208 306.919 49.6042 307.794 47.875C308.94 45.625 310.2 43.7083 311.575 42.125C312.95 40.5208 314.388 39.2188 315.888 38.2188C317.409 37.1979 318.961 36.4479 320.544 35.9688C322.127 35.4896 323.721 35.25 325.325 35.25C328.617 35.25 331.648 36.125 334.419 37.875Z" fill="#FFCB08"/>
<path d="M372.819 37.875C374.152 38.7292 375.35 39.9167 376.413 41.4375C377.496 42.9375 378.33 44.3333 378.913 45.625C379.496 46.8958 379.882 47.8125 380.069 48.375L368.475 50.9375C368.288 49.8958 367.736 49.2083 366.819 48.875C365.902 48.5417 364.944 48.375 363.944 48.375C358.652 48.875 356.007 52.0312 356.007 57.8438C356.152 62.4479 357.6 65.0104 360.35 65.5312C361.663 65.5312 362.85 65.2083 363.913 64.5625C364.975 63.9167 365.882 63.0625 366.632 62C367.402 60.9167 368.038 59.7083 368.538 58.375L380.132 60.7188C380.007 61.1354 379.705 61.9688 379.225 63.2188C378.684 64.6146 377.413 66.4792 375.413 68.8125C373.434 71.1458 371.225 72.7812 368.788 73.7188C365.85 74.8646 362.934 75.4375 360.038 75.4375C355.413 75.4375 351.309 73.9271 347.725 70.9062C346.1 69.4896 344.923 67.8438 344.194 65.9688C343.444 64.0938 343.069 62.1146 343.069 60.0312C343.069 57.8646 343.371 55.7292 343.975 53.625C344.58 51.5208 345.319 49.6042 346.194 47.875C347.34 45.625 348.6 43.7083 349.975 42.125C351.35 40.5208 352.788 39.2188 354.288 38.2188C355.809 37.1979 357.361 36.4479 358.944 35.9688C360.527 35.4896 362.121 35.25 363.725 35.25C367.017 35.25 370.048 36.125 372.819 37.875Z" fill="#FFCB08"/>
<path d="M385.438 36.0938L400.782 37.875C400.407 42.8125 400.219 46.8854 400.219 50.0938C400.219 51.6979 400.261 53.0833 400.344 54.25C400.448 55.4167 400.605 56.4792 400.813 57.4375C401.021 58.3958 401.271 59.2188 401.563 59.9062C402.875 62.8854 404.073 64.375 405.157 64.375C405.99 64.375 406.844 63.3125 407.719 61.1875C408.302 59.7083 408.823 58.2604 409.282 56.8438C409.74 55.4062 410.094 54.0417 410.344 52.75C410.594 51.4583 410.782 50.0417 410.907 48.5C411.032 46.9583 411.094 45.2708 411.094 43.4375C411.094 41.6042 411.073 40.1771 411.032 39.1562L424.094 39.9375C424.782 44.25 425.188 46.8542 425.313 47.75C425.438 48.625 425.5 49.7292 425.5 51.0625C425.5 53.3333 424.948 56.7083 423.844 61.1875C423.302 63.4583 422.105 65.8438 420.25 68.3438C418.396 70.8438 416.605 72.5938 414.875 73.5938C412.167 75.1354 409.011 75.9062 405.407 75.9062C402.907 75.9062 400.469 75.5521 398.094 74.8438C395.74 74.1354 393.573 73.0833 391.594 71.6875C389.74 70.3958 388.25 68.7083 387.125 66.625C386.021 64.5417 385.25 62.2708 384.813 59.8125C384.375 57.3542 384.157 54.625 384.157 51.625C384.157 49.8333 384.209 48.1042 384.313 46.4375C384.438 44.7708 384.594 43.0729 384.782 41.3438C384.969 39.5938 385.188 37.8438 385.438 36.0938Z" fill="#FFCB08"/>
<path d="M465.869 44.5312L454.838 51.7188C454.296 50.3229 453.567 49.1354 452.65 48.1562C451.755 47.1562 450.827 46.6562 449.869 46.6562C448.494 46.6562 447.338 47.7396 446.4 49.9062C445.505 51.9896 445.057 55.6354 445.057 60.8438C445.057 64.4896 445.244 68.7812 445.619 73.7188L430.275 75.5C429.38 69.0625 428.932 63.3229 428.932 58.2812C428.932 57.4479 428.973 56.3021 429.057 54.8438L428.494 36.5938L440.775 35.0625L442.557 37.125C444.015 36.625 445.359 36.1979 446.588 35.8438C447.838 35.4896 449.005 35.2083 450.088 35C451.171 34.7917 452.223 34.6875 453.244 34.6875C455.307 34.6875 457.119 35.1562 458.682 36.0938C460.661 37.1979 462.223 38.3438 463.369 39.5312C464.536 40.7188 465.369 42.3854 465.869 44.5312Z" fill="#FFCB08"/>
<path d="M499.394 57.7188L506.925 66.8125C506.321 68.5625 504.884 70.1667 502.613 71.625C500.363 73.0833 497.675 74.2292 494.55 75.0625C491.446 75.9167 488.342 76.3438 485.238 76.3438C482.488 76.3438 480.03 75.9792 477.863 75.25C475.717 74.5208 474.061 73.4167 472.894 71.9375C470.873 69.3958 469.863 66.1458 469.863 62.1875C469.863 59.0625 470.425 55.9896 471.55 52.9688C472.696 49.9271 473.905 47.8021 475.175 46.5938C476.696 45.1562 478.342 43.9583 480.113 43C481.905 42.0417 483.759 41.3229 485.675 40.8438C487.592 40.3646 489.561 40.125 491.582 40.125C494.227 40.125 496.738 40.5521 499.113 41.4062C501.509 42.2396 503.602 43.4583 505.394 45.0625L488.238 65.5312C489.759 65.5312 491.196 65.2188 492.55 64.5938C493.925 63.9479 495.186 63.0417 496.332 61.875C497.477 60.6875 498.498 59.3021 499.394 57.7188ZM490.738 50.4375C489.717 49.9167 488.675 49.6562 487.613 49.6562C486.488 49.6562 485.394 49.8854 484.332 50.3438C483.29 50.8021 482.55 51.3438 482.113 51.9688C480.821 53.6354 480.175 55.4688 480.175 57.4688C480.175 58.1979 480.248 58.8958 480.394 59.5625C480.54 60.2292 480.79 61.1458 481.144 62.3125L490.738 50.4375Z" fill="#FFCB08"/>
<path d="M529.732 44.4062C528.586 44.5521 527.45 44.9167 526.325 45.5C525.221 46.0833 524.273 46.7708 523.482 47.5625C522.69 48.3542 522.065 49.2292 521.607 50.1875C521.169 51.125 520.95 52.0521 520.95 52.9688C520.95 54.8646 521.846 56.4062 523.638 57.5938C525.221 58.6562 526.825 59.1875 528.45 59.1875C528.763 59.1875 529.19 59.1458 529.732 59.0625V52.4062C529.169 52.4062 528.669 52.2604 528.232 51.9688C527.607 51.4688 527.294 50.5104 527.294 49.0938C527.294 47.0521 528.107 45.4896 529.732 44.4062ZM529.45 14.0625L542.513 8.1875L543.294 50.5C543.461 51.5833 543.544 52.8125 543.544 54.1875C543.544 55.3958 543.502 56.2917 543.419 56.875L543.794 76.0312L529.732 76.7812V74.875C527.44 75.8125 525.127 76.2812 522.794 76.2812C521.002 76.2812 519.315 76.0104 517.732 75.4688C516.169 74.9271 514.815 74.1979 513.669 73.2812C511.815 71.7396 510.367 69.6667 509.325 67.0625C508.284 64.4375 507.763 61.6667 507.763 58.75C507.763 53.7292 509.211 49.6771 512.107 46.5938C514.607 43.9688 517.179 41.9792 519.825 40.625C522.492 39.2708 525.211 38.5938 527.982 38.5938C528.752 38.5938 529.336 38.6146 529.732 38.6562L529.45 14.0625Z" fill="#FFCB08"/>
<path d="M552.507 61.9375C553.986 61.9375 555.257 62.1875 556.319 62.6875C557.402 63.1667 558.288 63.7604 558.975 64.4688C559.663 65.1562 560.132 65.7604 560.382 66.2812C560.632 66.8646 560.757 67.4896 560.757 68.1562C560.757 69.1771 560.538 70.2083 560.1 71.25C559.663 72.2708 559.121 73.1771 558.475 73.9688C557.85 74.7396 557.267 75.1667 556.725 75.25C555.6 75.4167 554.788 75.5 554.288 75.5C552.225 75.5 550.569 74.9688 549.319 73.9062C548.09 72.8229 547.361 71.3542 547.132 69.5C547.132 67.7083 547.559 66.0417 548.413 64.5C549.288 62.9583 550.652 62.1042 552.507 61.9375ZM547.882 53.25L543.788 18.6875L562.475 13.0625L558.632 52.2188L547.882 53.25Z" fill="#FFCB08"/>
<path d="M26.1816 70.9062L58.9629 72.4375L58.7129 86L13.1191 83.7188L10.5879 36.5938L6.21289 37.375L6.99414 22.5312L44.8691 16.875L45.6504 30.4688L24.1504 34.0312L24.6504 43.7812L45.9004 40.1875L46.6816 51.4375L25.1816 55.5312L26.1816 70.9062Z" stroke="#3664AE" stroke-width="10" mask="url(#path-1-outside-1_1131_2)"/>
<path d="M88.2691 44.5312L77.2379 51.7188C76.6962 50.3229 75.9671 49.1354 75.0504 48.1562C74.1546 47.1562 73.2275 46.6562 72.2691 46.6562C70.8941 46.6562 69.7379 47.7396 68.8004 49.9062C67.9046 51.9896 67.4566 55.6354 67.4566 60.8438C67.4566 64.4896 67.6441 68.7812 68.0191 73.7188L52.6754 75.5C51.7796 69.0625 51.3316 63.3229 51.3316 58.2812C51.3316 57.4479 51.3733 56.3021 51.4566 54.8438L50.8941 36.5938L63.1754 35.0625L64.9566 37.125C66.415 36.625 67.7587 36.1979 68.9879 35.8438C70.2379 35.4896 71.4046 35.2083 72.4879 35C73.5712 34.7917 74.6233 34.6875 75.6441 34.6875C77.7066 34.6875 79.5191 35.1562 81.0816 36.0938C83.0608 37.1979 84.6233 38.3438 85.7691 39.5312C86.9358 40.7188 87.7691 42.3854 88.2691 44.5312Z" stroke="#3664AE" stroke-width="10" mask="url(#path-1-outside-1_1131_2)"/>
<path d="M129.857 44.5312L118.825 51.7188C118.284 50.3229 117.555 49.1354 116.638 48.1562C115.742 47.1562 114.815 46.6562 113.857 46.6562C112.482 46.6562 111.325 47.7396 110.388 49.9062C109.492 51.9896 109.044 55.6354 109.044 60.8438C109.044 64.4896 109.232 68.7812 109.607 73.7188L94.2629 75.5C93.3671 69.0625 92.9191 63.3229 92.9191 58.2812C92.9191 57.4479 92.9608 56.3021 93.0441 54.8438L92.4816 36.5938L104.763 35.0625L106.544 37.125C108.002 36.625 109.346 36.1979 110.575 35.8438C111.825 35.4896 112.992 35.2083 114.075 35C115.159 34.7917 116.211 34.6875 117.232 34.6875C119.294 34.6875 121.107 35.1562 122.669 36.0938C124.648 37.1979 126.211 38.3438 127.357 39.5312C128.523 40.7188 129.357 42.3854 129.857 44.5312Z" stroke="#3664AE" stroke-width="10" mask="url(#path-1-outside-1_1131_2)"/>
<path d="M162.913 41.1562C164.392 41.9479 165.59 43.0208 166.507 44.375C167.444 45.7083 168.121 47.2188 168.538 48.9062C168.975 50.5729 169.194 52.3125 169.194 54.125C169.194 55.625 169.069 57.0729 168.819 58.4688C168.59 59.8646 168.267 61.1458 167.85 62.3125C167.434 63.4792 166.944 64.4688 166.382 65.2812C165.069 67.2396 163.663 68.9271 162.163 70.3438C160.663 71.7604 159.132 72.9062 157.569 73.7812C156.007 74.6354 154.455 75.2604 152.913 75.6562C151.392 76.0729 149.882 76.2812 148.382 76.2812C146.611 76.2812 144.923 76 143.319 75.4375C141.736 74.8958 140.382 74.1771 139.257 73.2812C137.402 71.7396 135.955 69.6667 134.913 67.0625C133.871 64.4375 133.35 61.6667 133.35 58.75C133.35 53.7292 134.798 49.6771 137.694 46.5938C140.173 43.9479 142.736 41.9583 145.382 40.625C148.027 39.2708 150.736 38.5938 153.507 38.5938C155.132 38.5938 156.694 38.8021 158.194 39.2188C159.694 39.6146 161.267 40.2604 162.913 41.1562ZM161.069 46.4062C160.715 47.9896 159.944 49.3854 158.757 50.5938C157.59 51.8021 156.444 52.4062 155.319 52.4062C154.757 52.4062 154.257 52.2604 153.819 51.9688C153.194 51.4688 152.882 50.5938 152.882 49.3438C152.882 48.3854 153.194 47.4375 153.819 46.5C154.465 45.5625 155.475 44.8229 156.85 44.2812C155.475 44.2812 154.142 44.5417 152.85 45.0625C151.58 45.5833 150.486 46.2604 149.569 47.0938C148.652 47.9062 147.913 48.8333 147.35 49.875C146.809 50.8958 146.538 51.9271 146.538 52.9688C146.538 54.9062 147.434 56.4479 149.225 57.5938C150.892 58.6562 152.475 59.1875 153.975 59.1875C155.455 59.1875 156.767 58.6979 157.913 57.7188C159.059 56.7188 159.934 55.4479 160.538 53.9062C161.142 52.3438 161.444 50.8021 161.444 49.2812C161.444 48.2396 161.319 47.2812 161.069 46.4062Z" stroke="#3664AE" stroke-width="10" mask="url(#path-1-outside-1_1131_2)"/>
<path d="M209.844 44.5312L198.813 51.7188C198.271 50.3229 197.542 49.1354 196.625 48.1562C195.73 47.1562 194.802 46.6562 193.844 46.6562C192.469 46.6562 191.313 47.7396 190.375 49.9062C189.48 51.9896 189.032 55.6354 189.032 60.8438C189.032 64.4896 189.219 68.7812 189.594 73.7188L174.25 75.5C173.355 69.0625 172.907 63.3229 172.907 58.2812C172.907 57.4479 172.948 56.3021 173.032 54.8438L172.469 36.5938L184.75 35.0625L186.532 37.125C187.99 36.625 189.334 36.1979 190.563 35.8438C191.813 35.4896 192.98 35.2083 194.063 35C195.146 34.7917 196.198 34.6875 197.219 34.6875C199.282 34.6875 201.094 35.1562 202.657 36.0938C204.636 37.1979 206.198 38.3438 207.344 39.5312C208.511 40.7188 209.344 42.3854 209.844 44.5312Z" stroke="#3664AE" stroke-width="10" mask="url(#path-1-outside-1_1131_2)"/>
<path d="M296.488 28.1562C301.425 31.9271 303.894 36.9583 303.894 43.25C303.894 45.4167 303.582 47.6562 302.957 49.9688C302.352 52.2604 301.498 54.4583 300.394 56.5625C299.29 58.6667 298.071 60.5417 296.738 62.1875C294.55 64.8958 292.384 67.1771 290.238 69.0312C288.113 70.8854 285.967 72.3958 283.8 73.5625C281.634 74.7083 279.54 75.5417 277.519 76.0625C275.498 76.5833 273.519 76.8438 271.582 76.8438C267.082 76.8438 263.009 75.6354 259.363 73.2188C256.905 71.5521 254.863 68.9479 253.238 65.4062C251.634 61.8646 250.832 58.0625 250.832 54C250.832 47.4792 252.905 41.8542 257.05 37.125C259.488 34.3333 262.05 31.8542 264.738 29.6875C267.425 27.5208 270.207 25.8229 273.082 24.5938C275.957 23.3438 278.894 22.7188 281.894 22.7188C286.832 22.7188 291.696 24.5312 296.488 28.1562ZM290.332 36.2188C289.915 38.5521 289.071 40.4792 287.8 42C286.53 43.5208 285.217 44.2812 283.863 44.2812C283.009 44.2812 282.269 43.9583 281.644 43.3125C281.311 42.9792 281.03 42.4792 280.8 41.8125C280.592 41.1458 280.488 40.5 280.488 39.875C280.488 38.6042 280.863 37.3542 281.613 36.125C282.384 34.875 283.602 33.7917 285.269 32.875C283.269 32.875 281.561 33.3438 280.144 34.2812C278.748 35.1979 277.717 36.375 277.05 37.8125C276.384 39.25 276.05 40.7396 276.05 42.2812C276.05 44.6979 276.759 46.4688 278.175 47.5938C279.884 48.9688 281.592 49.6562 283.3 49.6562C285.405 49.6562 287.175 48.7188 288.613 46.8438C290.05 44.9688 290.769 42.6458 290.769 39.875C290.769 38.5833 290.623 37.3646 290.332 36.2188Z" stroke="#3664AE" stroke-width="10" mask="url(#path-1-outside-1_1131_2)"/>
<path d="M334.419 37.875C335.752 38.7292 336.95 39.9167 338.013 41.4375C339.096 42.9375 339.93 44.3333 340.513 45.625C341.096 46.8958 341.482 47.8125 341.669 48.375L330.075 50.9375C329.888 49.8958 329.336 49.2083 328.419 48.875C327.502 48.5417 326.544 48.375 325.544 48.375C320.252 48.875 317.607 52.0312 317.607 57.8438C317.752 62.4479 319.2 65.0104 321.95 65.5312C323.263 65.5312 324.45 65.2083 325.513 64.5625C326.575 63.9167 327.482 63.0625 328.232 62C329.002 60.9167 329.638 59.7083 330.138 58.375L341.732 60.7188C341.607 61.1354 341.305 61.9688 340.825 63.2188C340.284 64.6146 339.013 66.4792 337.013 68.8125C335.034 71.1458 332.825 72.7812 330.388 73.7188C327.45 74.8646 324.534 75.4375 321.638 75.4375C317.013 75.4375 312.909 73.9271 309.325 70.9062C307.7 69.4896 306.523 67.8438 305.794 65.9688C305.044 64.0938 304.669 62.1146 304.669 60.0312C304.669 57.8646 304.971 55.7292 305.575 53.625C306.18 51.5208 306.919 49.6042 307.794 47.875C308.94 45.625 310.2 43.7083 311.575 42.125C312.95 40.5208 314.388 39.2188 315.888 38.2188C317.409 37.1979 318.961 36.4479 320.544 35.9688C322.127 35.4896 323.721 35.25 325.325 35.25C328.617 35.25 331.648 36.125 334.419 37.875Z" stroke="#3664AE" stroke-width="10" mask="url(#path-1-outside-1_1131_2)"/>
<path d="M372.819 37.875C374.152 38.7292 375.35 39.9167 376.413 41.4375C377.496 42.9375 378.33 44.3333 378.913 45.625C379.496 46.8958 379.882 47.8125 380.069 48.375L368.475 50.9375C368.288 49.8958 367.736 49.2083 366.819 48.875C365.902 48.5417 364.944 48.375 363.944 48.375C358.652 48.875 356.007 52.0312 356.007 57.8438C356.152 62.4479 357.6 65.0104 360.35 65.5312C361.663 65.5312 362.85 65.2083 363.913 64.5625C364.975 63.9167 365.882 63.0625 366.632 62C367.402 60.9167 368.038 59.7083 368.538 58.375L380.132 60.7188C380.007 61.1354 379.705 61.9688 379.225 63.2188C378.684 64.6146 377.413 66.4792 375.413 68.8125C373.434 71.1458 371.225 72.7812 368.788 73.7188C365.85 74.8646 362.934 75.4375 360.038 75.4375C355.413 75.4375 351.309 73.9271 347.725 70.9062C346.1 69.4896 344.923 67.8438 344.194 65.9688C343.444 64.0938 343.069 62.1146 343.069 60.0312C343.069 57.8646 343.371 55.7292 343.975 53.625C344.58 51.5208 345.319 49.6042 346.194 47.875C347.34 45.625 348.6 43.7083 349.975 42.125C351.35 40.5208 352.788 39.2188 354.288 38.2188C355.809 37.1979 357.361 36.4479 358.944 35.9688C360.527 35.4896 362.121 35.25 363.725 35.25C367.017 35.25 370.048 36.125 372.819 37.875Z" stroke="#3664AE" stroke-width="10" mask="url(#path-1-outside-1_1131_2)"/>
<path d="M385.438 36.0938L400.782 37.875C400.407 42.8125 400.219 46.8854 400.219 50.0938C400.219 51.6979 400.261 53.0833 400.344 54.25C400.448 55.4167 400.605 56.4792 400.813 57.4375C401.021 58.3958 401.271 59.2188 401.563 59.9062C402.875 62.8854 404.073 64.375 405.157 64.375C405.99 64.375 406.844 63.3125 407.719 61.1875C408.302 59.7083 408.823 58.2604 409.282 56.8438C409.74 55.4062 410.094 54.0417 410.344 52.75C410.594 51.4583 410.782 50.0417 410.907 48.5C411.032 46.9583 411.094 45.2708 411.094 43.4375C411.094 41.6042 411.073 40.1771 411.032 39.1562L424.094 39.9375C424.782 44.25 425.188 46.8542 425.313 47.75C425.438 48.625 425.5 49.7292 425.5 51.0625C425.5 53.3333 424.948 56.7083 423.844 61.1875C423.302 63.4583 422.105 65.8438 420.25 68.3438C418.396 70.8438 416.605 72.5938 414.875 73.5938C412.167 75.1354 409.011 75.9062 405.407 75.9062C402.907 75.9062 400.469 75.5521 398.094 74.8438C395.74 74.1354 393.573 73.0833 391.594 71.6875C389.74 70.3958 388.25 68.7083 387.125 66.625C386.021 64.5417 385.25 62.2708 384.813 59.8125C384.375 57.3542 384.157 54.625 384.157 51.625C384.157 49.8333 384.209 48.1042 384.313 46.4375C384.438 44.7708 384.594 43.0729 384.782 41.3438C384.969 39.5938 385.188 37.8438 385.438 36.0938Z" stroke="#3664AE" stroke-width="10" mask="url(#path-1-outside-1_1131_2)"/>
<path d="M465.869 44.5312L454.838 51.7188C454.296 50.3229 453.567 49.1354 452.65 48.1562C451.755 47.1562 450.827 46.6562 449.869 46.6562C448.494 46.6562 447.338 47.7396 446.4 49.9062C445.505 51.9896 445.057 55.6354 445.057 60.8438C445.057 64.4896 445.244 68.7812 445.619 73.7188L430.275 75.5C429.38 69.0625 428.932 63.3229 428.932 58.2812C428.932 57.4479 428.973 56.3021 429.057 54.8438L428.494 36.5938L440.775 35.0625L442.557 37.125C444.015 36.625 445.359 36.1979 446.588 35.8438C447.838 35.4896 449.005 35.2083 450.088 35C451.171 34.7917 452.223 34.6875 453.244 34.6875C455.307 34.6875 457.119 35.1562 458.682 36.0938C460.661 37.1979 462.223 38.3438 463.369 39.5312C464.536 40.7188 465.369 42.3854 465.869 44.5312Z" stroke="#3664AE" stroke-width="10" mask="url(#path-1-outside-1_1131_2)"/>
<path d="M499.394 57.7188L506.925 66.8125C506.321 68.5625 504.884 70.1667 502.613 71.625C500.363 73.0833 497.675 74.2292 494.55 75.0625C491.446 75.9167 488.342 76.3438 485.238 76.3438C482.488 76.3438 480.03 75.9792 477.863 75.25C475.717 74.5208 474.061 73.4167 472.894 71.9375C470.873 69.3958 469.863 66.1458 469.863 62.1875C469.863 59.0625 470.425 55.9896 471.55 52.9688C472.696 49.9271 473.905 47.8021 475.175 46.5938C476.696 45.1562 478.342 43.9583 480.113 43C481.905 42.0417 483.759 41.3229 485.675 40.8438C487.592 40.3646 489.561 40.125 491.582 40.125C494.227 40.125 496.738 40.5521 499.113 41.4062C501.509 42.2396 503.602 43.4583 505.394 45.0625L488.238 65.5312C489.759 65.5312 491.196 65.2188 492.55 64.5938C493.925 63.9479 495.186 63.0417 496.332 61.875C497.477 60.6875 498.498 59.3021 499.394 57.7188ZM490.738 50.4375C489.717 49.9167 488.675 49.6562 487.613 49.6562C486.488 49.6562 485.394 49.8854 484.332 50.3438C483.29 50.8021 482.55 51.3438 482.113 51.9688C480.821 53.6354 480.175 55.4688 480.175 57.4688C480.175 58.1979 480.248 58.8958 480.394 59.5625C480.54 60.2292 480.79 61.1458 481.144 62.3125L490.738 50.4375Z" stroke="#3664AE" stroke-width="10" mask="url(#path-1-outside-1_1131_2)"/>
<path d="M529.732 44.4062C528.586 44.5521 527.45 44.9167 526.325 45.5C525.221 46.0833 524.273 46.7708 523.482 47.5625C522.69 48.3542 522.065 49.2292 521.607 50.1875C521.169 51.125 520.95 52.0521 520.95 52.9688C520.95 54.8646 521.846 56.4062 523.638 57.5938C525.221 58.6562 526.825 59.1875 528.45 59.1875C528.763 59.1875 529.19 59.1458 529.732 59.0625V52.4062C529.169 52.4062 528.669 52.2604 528.232 51.9688C527.607 51.4688 527.294 50.5104 527.294 49.0938C527.294 47.0521 528.107 45.4896 529.732 44.4062ZM529.45 14.0625L542.513 8.1875L543.294 50.5C543.461 51.5833 543.544 52.8125 543.544 54.1875C543.544 55.3958 543.502 56.2917 543.419 56.875L543.794 76.0312L529.732 76.7812V74.875C527.44 75.8125 525.127 76.2812 522.794 76.2812C521.002 76.2812 519.315 76.0104 517.732 75.4688C516.169 74.9271 514.815 74.1979 513.669 73.2812C511.815 71.7396 510.367 69.6667 509.325 67.0625C508.284 64.4375 507.763 61.6667 507.763 58.75C507.763 53.7292 509.211 49.6771 512.107 46.5938C514.607 43.9688 517.179 41.9792 519.825 40.625C522.492 39.2708 525.211 38.5938 527.982 38.5938C528.752 38.5938 529.336 38.6146 529.732 38.6562L529.45 14.0625Z" stroke="#3664AE" stroke-width="10" mask="url(#path-1-outside-1_1131_2)"/>
<path d="M552.507 61.9375C553.986 61.9375 555.257 62.1875 556.319 62.6875C557.402 63.1667 558.288 63.7604 558.975 64.4688C559.663 65.1562 560.132 65.7604 560.382 66.2812C560.632 66.8646 560.757 67.4896 560.757 68.1562C560.757 69.1771 560.538 70.2083 560.1 71.25C559.663 72.2708 559.121 73.1771 558.475 73.9688C557.85 74.7396 557.267 75.1667 556.725 75.25C555.6 75.4167 554.788 75.5 554.288 75.5C552.225 75.5 550.569 74.9688 549.319 73.9062C548.09 72.8229 547.361 71.3542 547.132 69.5C547.132 67.7083 547.559 66.0417 548.413 64.5C549.288 62.9583 550.652 62.1042 552.507 61.9375ZM547.882 53.25L543.788 18.6875L562.475 13.0625L558.632 52.2188L547.882 53.25Z" stroke="#3664AE" stroke-width="10" mask="url(#path-1-outside-1_1131_2)"/>
</g>
<defs>
<filter id="filter0_d_1131_2" x="0.888672" y="0.519531" width="571.291" height="94.7322" filterUnits="userSpaceOnUse" color-interpolation-filters="sRGB">
<feFlood flood-opacity="0" result="BackgroundImageFix"/>
<feColorMatrix in="SourceAlpha" type="matrix" values="0 0 0 0 0 0 0 0 0 0 0 0 0 0 0 0 0 0 127 0" result="hardAlpha"/>
<feOffset dx="4" dy="4"/>
<feComposite in2="hardAlpha" operator="out"/>
<feColorMatrix type="matrix" values="0 0 0 0 0 0 0 0 0 0 0 0 0 0 0 0 0 0 0.3 0"/>
<feBlend mode="normal" in2="BackgroundImageFix" result="effect1_dropShadow_1131_2"/>
<feBlend mode="normal" in="SourceGraphic" in2="effect1_dropShadow_1131_2" result="shape"/>
</filter>
</defs>
</svg>
