<svg width="24" height="24" viewBox="0 0 24 24" fill="none" xmlns="http://www.w3.org/2000/svg"><path d="M10.4883 6.12891L7.2478 0.728437C7.11456 0.506278 6.92606 0.322415 6.70064 0.194758C6.47523 0.0671012 6.2206 3.18059e-06 5.96155 0H0.751375C0.144342 0 -0.210972 0.682969 0.136841 1.18031L5.35264 8.63156C6.74577 7.32984 8.51765 6.43641 10.4883 6.12891ZM23.2486 0H18.0385C17.5116 0 17.0231 0.276562 16.7522 0.728437L13.5117 6.12891C15.4824 6.43641 17.2542 7.32984 18.6474 8.63109L23.8632 1.18031C24.211 0.682969 23.8557 0 23.2486 0ZM12 7.5C7.44374 7.5 3.74998 11.1938 3.74998 15.75C3.74998 20.3062 7.44374 24 12 24C16.5563 24 20.25 20.3062 20.25 15.75C20.25 11.1938 16.5563 7.5 12 7.5ZM16.3369 14.8716L14.5589 16.6041L14.9794 19.0519C15.0544 19.4906 14.5922 19.8258 14.1989 19.6186L12 18.4631L9.80156 19.6186C9.40781 19.8272 8.94609 19.4902 9.02109 19.0519L9.44156 16.6041L7.66358 14.8716C7.34389 14.5603 7.52061 14.017 7.96124 13.9533L10.4189 13.5952L11.5172 11.3677C11.6161 11.167 11.8073 11.0681 11.9991 11.0681C12.1917 11.0681 12.3844 11.1684 12.4833 11.3677L13.5816 13.5952L16.0392 13.9533C16.4799 14.017 16.6566 14.5603 16.3369 14.8716Z" fill="#FFCB08"/></svg>