<svg width="320" height="140" viewBox="0 0 320 140" fill="none" xmlns="http://www.w3.org/2000/svg"><g filter="url(#filter0_d_612_258)"><mask id="path-1-outside-1_612_258" maskUnits="userSpaceOnUse" x="-0.578125" y="-0.703125" width="317" height="136" fill="black"><rect fill="white" x="-0.578125" y="-0.703125" width="317" height="136"/><path d="M39.0078 54.2969L27.5 55.0703L24.4297 50.0781L21.7344 56.9922L14.2344 57.1797L5.42188 16.0938L19.0391 17.4297L21.5469 31.4453L24.2188 26.2656L27.875 32.8047L29.7969 11.1016L43.0391 10.1406L39.0078 54.2969Z"/><path d="M57.8469 24.9297C60.6438 24.0078 63.0578 23.5469 65.0891 23.5469C66.9484 23.5469 68.5656 23.9453 69.9406 24.7422C70.7688 25.2266 71.6984 25.9609 72.7297 26.9453C73.7609 27.9141 74.6672 28.9844 75.4484 30.1562C76.2453 31.3281 76.7766 32.4688 77.0422 33.5781C77.8703 36.9062 78.2844 39.8125 78.2844 42.2969C78.2844 43.6094 78.1984 44.9922 78.0266 46.4453C77.8547 47.8828 77.5891 49.7344 77.2297 52L67.4328 52.5859C67.4641 51.8047 67.4797 50.6797 67.4797 49.2109C67.4797 43.0859 66.6359 37.875 64.9484 33.5781C64.2922 31.9688 63.6516 31.1641 63.0266 31.1641C62.2141 31.1641 61.3156 32.2891 60.3313 34.5391C60.0969 35.0859 59.9016 35.7109 59.7453 36.4141C59.6047 37.1172 59.4953 37.9062 59.4172 38.7812C59.3547 39.6562 59.3234 40.6875 59.3234 41.875C59.3234 44.2812 59.4641 47.3359 59.7453 51.0391L48.2375 52.375C48.1125 51.4688 48.0344 50.4062 48.0031 49.1875C47.9563 47.9688 47.925 46.7109 47.9094 45.4141C47.8781 44.1172 47.8234 42.9375 47.7453 41.875C47.6828 40.7969 47.5422 39.5781 47.3234 38.2188L46.6906 7.65625L56.3 6.48438L57.8469 24.9297Z"/><path d="M102.162 26.6172C103.272 27.2109 104.17 28.0156 104.858 29.0312C105.561 30.0312 106.069 31.1641 106.381 32.4297C106.709 33.6797 106.873 34.9844 106.873 36.3438C106.873 37.4688 106.78 38.5547 106.592 39.6016C106.42 40.6484 106.178 41.6094 105.866 42.4844C105.553 43.3594 105.186 44.1016 104.764 44.7109C103.78 46.1797 102.725 47.4453 101.6 48.5078C100.475 49.5703 99.3266 50.4297 98.1547 51.0859C96.9828 51.7266 95.8187 52.1953 94.6625 52.4922C93.5219 52.8047 92.3891 52.9609 91.2641 52.9609C89.9359 52.9609 88.6703 52.75 87.4672 52.3281C86.2797 51.9219 85.2641 51.3828 84.4203 50.7109C83.0297 49.5547 81.9437 48 81.1625 46.0469C80.3812 44.0781 79.9906 42 79.9906 39.8125C79.9906 36.0469 81.0766 33.0078 83.2484 30.6953C85.1078 28.7109 87.0297 27.2188 89.0141 26.2188C90.9984 25.2031 93.0297 24.6953 95.1078 24.6953C96.3266 24.6953 97.4984 24.8516 98.6234 25.1641C99.7484 25.4609 100.928 25.9453 102.162 26.6172ZM100.78 30.5547C100.514 31.7422 99.9359 32.7891 99.0453 33.6953C98.1703 34.6016 97.3109 35.0547 96.4672 35.0547C96.0453 35.0547 95.6703 34.9453 95.3422 34.7266C94.8734 34.3516 94.6391 33.6953 94.6391 32.7578C94.6391 32.0391 94.8734 31.3281 95.3422 30.625C95.8266 29.9219 96.5844 29.3672 97.6156 28.9609C96.5844 28.9609 95.5844 29.1562 94.6156 29.5469C93.6625 29.9375 92.8422 30.4453 92.1547 31.0703C91.4672 31.6797 90.9125 32.375 90.4906 33.1562C90.0844 33.9219 89.8812 34.6953 89.8812 35.4766C89.8812 36.9297 90.5531 38.0859 91.8969 38.9453C93.1469 39.7422 94.3344 40.1406 95.4594 40.1406C96.5687 40.1406 97.5531 39.7734 98.4125 39.0391C99.2719 38.2891 99.9281 37.3359 100.381 36.1797C100.834 35.0078 101.061 33.8516 101.061 32.7109C101.061 31.9297 100.967 31.2109 100.78 30.5547Z"/><path d="M118.962 25.75L113.97 25.0703L110.173 10.0938L119.923 11.4766L118.962 25.75Z"/><path d="M150.411 34.1406C149.942 33.9688 148.802 33.6094 146.989 33.0625C145.192 32.5 143.583 32.0156 142.161 31.6094C140.755 31.2031 139.2 30.8125 137.497 30.4375C135.794 30.0625 134.466 29.875 133.512 29.875C133.012 29.875 132.63 29.9531 132.364 30.1094C131.598 30.6875 131.216 31.2188 131.216 31.7031C131.216 32.4688 131.981 33.1328 133.512 33.6953C135.044 34.2422 136.903 34.6484 139.091 34.9141C142.091 35.2422 144.512 35.9453 146.356 37.0234C148.216 38.1016 149.559 39.3594 150.387 40.7969C151.216 42.2188 151.63 43.6797 151.63 45.1797C151.63 46.2422 151.419 47.2344 150.997 48.1562C149.184 52 145.708 53.9219 140.567 53.9219C139.161 53.9219 137.575 53.7656 135.809 53.4531C134.044 53.1562 132.348 52.7812 130.723 52.3281C129.114 51.8906 127.395 51.375 125.567 50.7812C123.739 50.1875 122.036 49.6328 120.458 49.1172C120.864 48.2734 121.38 47.2578 122.005 46.0703C122.63 44.8672 123.239 43.6953 123.833 42.5547C124.411 41.4141 124.7 40.7891 124.7 40.6797C125.153 41.1016 125.716 41.4453 126.387 41.7109C127.075 41.9609 128.067 42.2656 129.364 42.625C130.677 42.9688 131.677 43.2812 132.364 43.5625C133.88 44.125 135.45 44.4062 137.075 44.4062C138.075 44.4062 139.028 44.3047 139.934 44.1016C140.841 43.8828 141.325 43.7031 141.387 43.5625C141.387 43.1562 140.692 42.7578 139.302 42.3672C137.927 41.9609 136.387 41.6484 134.684 41.4297C132.747 41.2109 130.794 40.7422 128.825 40.0234C126.872 39.2891 125.208 38.2188 123.833 36.8125C122.458 35.4062 121.77 33.6719 121.77 31.6094C121.77 30.0312 122.169 28.3828 122.966 26.6641C123.841 24.7422 125.153 23.3516 126.903 22.4922C128.653 21.6172 130.747 21.1797 133.184 21.1797C135.997 21.1797 138.895 21.5781 141.88 22.375C144.864 23.1719 148.927 24.4062 154.067 26.0781C153.958 26.3125 153.528 27.3125 152.778 29.0781C152.028 30.8281 151.466 32.1094 151.091 32.9219C150.716 33.7344 150.489 34.1406 150.411 34.1406Z"/><path d="M188.511 10.9141L198.753 6.29688L198.589 22.0469L206.23 22.2344V31.2578L198.308 31.3516C198.027 33.5703 197.886 35.6562 197.886 37.6094C197.886 39.2344 197.98 40.5781 198.167 41.6406C198.323 42.5156 198.714 43.1875 199.339 43.6562C199.964 44.125 200.691 44.3594 201.519 44.3594C202.441 44.3594 203.245 44.0859 203.933 43.5391C204.636 42.9922 204.988 42.2422 204.988 41.2891C204.988 41.1484 204.956 40.875 204.894 40.4688L212.558 35.4766C212.886 36.0859 213.292 37.1094 213.777 38.5469C214.277 39.9844 214.527 41.5547 214.527 43.2578C214.527 45.3047 213.988 47.1562 212.909 48.8125C211.831 50.4688 209.988 51.7266 207.378 52.5859C205.55 53.1797 203.823 53.4766 202.198 53.4766C199.745 53.4766 197.581 52.9375 195.706 51.8594C193.847 50.7812 192.3 49.4844 191.066 47.9688C190.488 47.2656 190.034 46.1016 189.706 44.4766C189.394 42.8516 189.191 41.1562 189.097 39.3906C189.003 37.625 188.956 35.8594 188.956 34.0938V31.4453L182.042 31.6562L180.308 21.0859L189.05 21.6719L188.511 10.9141Z"/><path d="M229.475 24.9297C232.272 24.0078 234.686 23.5469 236.717 23.5469C238.577 23.5469 240.194 23.9453 241.569 24.7422C242.397 25.2266 243.327 25.9609 244.358 26.9453C245.389 27.9141 246.295 28.9844 247.077 30.1562C247.873 31.3281 248.405 32.4688 248.67 33.5781C249.498 36.9062 249.913 39.8125 249.913 42.2969C249.913 43.6094 249.827 44.9922 249.655 46.4453C249.483 47.8828 249.217 49.7344 248.858 52L239.061 52.5859C239.092 51.8047 239.108 50.6797 239.108 49.2109C239.108 43.0859 238.264 37.875 236.577 33.5781C235.92 31.9688 235.28 31.1641 234.655 31.1641C233.842 31.1641 232.944 32.2891 231.959 34.5391C231.725 35.0859 231.53 35.7109 231.373 36.4141C231.233 37.1172 231.123 37.9062 231.045 38.7812C230.983 39.6562 230.952 40.6875 230.952 41.875C230.952 44.2812 231.092 47.3359 231.373 51.0391L219.866 52.375C219.741 51.4688 219.663 50.4062 219.631 49.1875C219.584 47.9688 219.553 46.7109 219.538 45.4141C219.506 44.1172 219.452 42.9375 219.373 41.875C219.311 40.7969 219.17 39.5781 218.952 38.2188L218.319 7.65625L227.928 6.48438L229.475 24.9297Z"/><path d="M268.095 29.0547C267.236 29.1641 266.384 29.4375 265.541 29.875C264.712 30.3125 264.002 30.8281 263.408 31.4219C262.814 32.0156 262.345 32.6719 262.002 33.3906C261.673 34.0938 261.509 34.7891 261.509 35.4766C261.509 36.8984 262.181 38.0547 263.525 38.9453C264.712 39.7422 265.916 40.1406 267.134 40.1406C267.369 40.1406 267.689 40.1094 268.095 40.0469V35.0547C267.673 35.0547 267.298 34.9453 266.97 34.7266C266.502 34.3516 266.267 33.6328 266.267 32.5703C266.267 31.0391 266.877 29.8672 268.095 29.0547ZM268.283 24.9297L278.08 20.5234L278.267 33.625C278.392 34.4375 278.455 35.3594 278.455 36.3906C278.455 37.2969 278.423 37.9688 278.361 38.4062L278.642 52.7734L268.095 53.3359V51.9062C266.377 52.6094 264.642 52.9609 262.892 52.9609C261.548 52.9609 260.283 52.7578 259.095 52.3516C257.923 51.9453 256.908 51.3984 256.048 50.7109C254.658 49.5547 253.572 48 252.791 46.0469C252.009 44.0781 251.619 42 251.619 39.8125C251.619 36.0469 252.705 33.0078 254.877 30.6953C256.752 28.7266 258.681 27.2344 260.666 26.2188C262.666 25.2031 264.705 24.6953 266.783 24.6953C267.361 24.6953 267.798 24.7109 268.095 24.7422L268.283 24.9297Z"/><path d="M285.739 10.9141L295.981 6.29688L295.817 22.0469L303.458 22.2344V31.2578L295.536 31.3516C295.255 33.5703 295.114 35.6562 295.114 37.6094C295.114 39.2344 295.208 40.5781 295.395 41.6406C295.552 42.5156 295.942 43.1875 296.567 43.6562C297.192 44.125 297.919 44.3594 298.747 44.3594C299.669 44.3594 300.473 44.0859 301.161 43.5391C301.864 42.9922 302.216 42.2422 302.216 41.2891C302.216 41.1484 302.184 40.875 302.122 40.4688L309.786 35.4766C310.114 36.0859 310.52 37.1094 311.005 38.5469C311.505 39.9844 311.755 41.5547 311.755 43.2578C311.755 45.3047 311.216 47.1562 310.138 48.8125C309.059 50.4688 307.216 51.7266 304.606 52.5859C302.778 53.1797 301.052 53.4766 299.427 53.4766C296.973 53.4766 294.809 52.9375 292.934 51.8594C291.075 50.7812 289.528 49.4844 288.294 47.9688C287.716 47.2656 287.263 46.1016 286.934 44.4766C286.622 42.8516 286.419 41.1562 286.325 39.3906C286.231 37.625 286.184 35.8594 286.184 34.0938V31.4453L279.27 31.6562L277.536 21.0859L286.278 21.6719L285.739 10.9141Z"/><path d="M33.3641 81.7578C35.2547 81.1328 37.0281 80.5547 38.6844 80.0234C40.3562 79.4922 42.1141 78.9922 43.9578 78.5234C45.8016 78.0391 47.5672 77.6562 49.2547 77.375C50.5516 77.1562 51.8797 77.0469 53.2391 77.0469C55.5047 77.0469 56.9891 77.1094 57.6922 77.2344C58.7547 77.4375 59.7547 77.7656 60.6922 78.2188C61.6453 78.6719 62.4891 79.2812 63.2234 80.0469C63.9734 80.7969 64.5828 81.6875 65.0516 82.7188C65.2391 83.1406 65.3328 83.5859 65.3328 84.0547C65.3328 85.8047 64.3719 87.9609 62.45 90.5234C60.5437 93.0859 58.6219 95.3203 56.6844 97.2266C54.7625 99.1328 53.325 100.5 52.3719 101.328L56.5906 116.117L50.45 120.547L39.6922 89.8203C39.6609 89.8203 39.5125 89.9688 39.2469 90.2656C38.9812 90.5625 38.6297 90.9531 38.1922 91.4375C37.7703 91.9062 37.5047 92.1953 37.3953 92.3047C37.3484 92.3047 37.1922 91.9688 36.9266 91.2969C36.6766 90.625 36.3328 89.6953 35.8953 88.5078C35.4734 87.3047 34.9969 85.9766 34.4656 84.5234C33.9187 83.0547 33.5516 82.1328 33.3641 81.7578ZM48.5281 88.2734L50.45 95.1875C51.4187 94.2031 52.6219 92.8594 54.0594 91.1562C55.4969 89.4531 56.2156 88.2188 56.2156 87.4531C56.2156 87.1562 56.0906 86.9844 55.8406 86.9375C55.1375 86.7812 54.4422 86.7031 53.7547 86.7031C51.6922 86.7031 49.95 87.2266 48.5281 88.2734Z"/><path d="M87.7344 93.6172C88.8438 94.2109 89.7422 95.0156 90.4297 96.0312C91.1328 97.0312 91.6406 98.1641 91.9531 99.4297C92.2812 100.68 92.4453 101.984 92.4453 103.344C92.4453 104.469 92.3516 105.555 92.1641 106.602C91.9922 107.648 91.75 108.609 91.4375 109.484C91.125 110.359 90.7578 111.102 90.3359 111.711C89.3516 113.18 88.2969 114.445 87.1719 115.508C86.0469 116.57 84.8984 117.43 83.7266 118.086C82.5547 118.727 81.3906 119.195 80.2344 119.492C79.0938 119.805 77.9609 119.961 76.8359 119.961C75.5078 119.961 74.2422 119.75 73.0391 119.328C71.8516 118.922 70.8359 118.383 69.9922 117.711C68.6016 116.555 67.5156 115 66.7344 113.047C65.9531 111.078 65.5625 109 65.5625 106.812C65.5625 103.047 66.6484 100.008 68.8203 97.6953C70.6797 95.7109 72.6016 94.2188 74.5859 93.2188C76.5703 92.2031 78.6016 91.6953 80.6797 91.6953C81.8984 91.6953 83.0703 91.8516 84.1953 92.1641C85.3203 92.4609 86.5 92.9453 87.7344 93.6172ZM86.3516 97.5547C86.0859 98.7422 85.5078 99.7891 84.6172 100.695C83.7422 101.602 82.8828 102.055 82.0391 102.055C81.6172 102.055 81.2422 101.945 80.9141 101.727C80.4453 101.352 80.2109 100.695 80.2109 99.7578C80.2109 99.0391 80.4453 98.3281 80.9141 97.625C81.3984 96.9219 82.1562 96.3672 83.1875 95.9609C82.1562 95.9609 81.1562 96.1562 80.1875 96.5469C79.2344 96.9375 78.4141 97.4453 77.7266 98.0703C77.0391 98.6797 76.4844 99.375 76.0625 100.156C75.6562 100.922 75.4531 101.695 75.4531 102.477C75.4531 103.93 76.125 105.086 77.4688 105.945C78.7188 106.742 79.9062 107.141 81.0312 107.141C82.1406 107.141 83.125 106.773 83.9844 106.039C84.8438 105.289 85.5 104.336 85.9531 103.18C86.4062 102.008 86.6328 100.852 86.6328 99.7109C86.6328 98.9297 86.5391 98.2109 86.3516 97.5547Z"/><path d="M93.3547 79.8359L105.261 74.8438L106.995 101.914L116.792 96.5469L126.964 98.0703L113.698 108.242L126.191 117.664L126.753 127.062L108.331 113.82L108.917 125.328L97.7609 125.539L95.6516 84.8281L92.2062 85.6016L93.3547 79.8359Z"/><path d="M148.077 106.039L153.725 112.859C153.272 114.172 152.194 115.375 150.491 116.469C148.803 117.562 146.788 118.422 144.444 119.047C142.116 119.688 139.788 120.008 137.459 120.008C135.397 120.008 133.553 119.734 131.928 119.188C130.319 118.641 129.077 117.812 128.202 116.703C126.686 114.797 125.928 112.359 125.928 109.391C125.928 107.047 126.35 104.742 127.194 102.477C128.053 100.195 128.959 98.6016 129.913 97.6953C131.053 96.6172 132.288 95.7188 133.616 95C134.959 94.2812 136.35 93.7422 137.788 93.3828C139.225 93.0234 140.702 92.8438 142.217 92.8438C144.202 92.8438 146.084 93.1641 147.866 93.8047C149.663 94.4297 151.233 95.3438 152.577 96.5469L139.709 111.898C140.85 111.898 141.928 111.664 142.944 111.195C143.975 110.711 144.92 110.031 145.78 109.156C146.639 108.266 147.405 107.227 148.077 106.039ZM141.584 100.578C140.819 100.188 140.038 99.9922 139.241 99.9922C138.397 99.9922 137.577 100.164 136.78 100.508C135.998 100.852 135.444 101.258 135.116 101.727C134.147 102.977 133.663 104.352 133.663 105.852C133.663 106.398 133.717 106.922 133.827 107.422C133.936 107.922 134.123 108.609 134.389 109.484L141.584 100.578ZM129.538 83.6797L142.03 76.7656L147.397 85.0156L132.233 87.8984L129.538 83.6797Z"/><path d="M176.478 92.1172C180.525 90.8359 183.533 90.1953 185.502 90.1953C187.064 90.1953 188.408 90.5156 189.533 91.1562C190.923 91.9531 192.423 93.3125 194.033 95.2344C195.642 97.1562 196.642 98.9375 197.033 100.578C197.861 103.906 198.275 106.812 198.275 109.297C198.275 110.609 198.189 111.992 198.017 113.445C197.845 114.883 197.58 116.734 197.22 119L187.423 119.586C187.455 118.805 187.47 117.68 187.47 116.211C187.47 110.086 186.627 104.875 184.939 100.578C184.627 99.8125 184.259 99.2109 183.837 98.7734C183.416 98.3359 183.041 98.1172 182.712 98.1172C182.369 98.1172 182.197 98.3594 182.197 98.8438C182.197 99.125 182.228 99.3672 182.291 99.5703C182.4 99.8203 182.509 100.156 182.619 100.578C183.462 103.969 183.884 106.875 183.884 109.297C183.884 110.484 183.806 111.734 183.65 113.047C183.494 114.344 183.22 116.328 182.83 119L173.033 119.586C173.064 118.805 173.08 117.68 173.08 116.211C173.08 110.07 172.228 104.859 170.525 100.578C170.322 100.078 170.166 99.5547 170.056 99.0078C169.947 98.4453 169.869 98.1641 169.822 98.1641C169.759 98.1641 169.58 98.5312 169.283 99.2656C168.986 100 168.666 100.758 168.322 101.539C168.087 102.086 167.892 102.711 167.736 103.414C167.595 104.117 167.486 104.906 167.408 105.781C167.345 106.656 167.314 107.688 167.314 108.875C167.314 111.281 167.455 114.336 167.736 118.039L156.228 119.375C156.041 118 155.869 116.633 155.712 115.273C155.556 113.914 155.431 112.656 155.337 111.5C155.259 110.328 155.22 109.07 155.22 107.727C155.22 107.148 155.252 106.312 155.314 105.219L154.892 91.5547L164.103 90.3828L165.439 91.9297C167.908 91.1328 169.923 90.7344 171.486 90.7344C173.22 90.7344 174.884 91.1953 176.478 92.1172Z"/><path d="M222.153 93.6172C223.262 94.2109 224.161 95.0156 224.848 96.0312C225.552 97.0312 226.059 98.1641 226.372 99.4297C226.7 100.68 226.864 101.984 226.864 103.344C226.864 104.469 226.77 105.555 226.583 106.602C226.411 107.648 226.169 108.609 225.856 109.484C225.544 110.359 225.177 111.102 224.755 111.711C223.77 113.18 222.716 114.445 221.591 115.508C220.466 116.57 219.317 117.43 218.145 118.086C216.973 118.727 215.809 119.195 214.653 119.492C213.512 119.805 212.38 119.961 211.255 119.961C209.927 119.961 208.661 119.75 207.458 119.328C206.27 118.922 205.255 118.383 204.411 117.711C203.02 116.555 201.934 115 201.153 113.047C200.372 111.078 199.981 109 199.981 106.812C199.981 103.047 201.067 100.008 203.239 97.6953C205.098 95.7109 207.02 94.2188 209.005 93.2188C210.989 92.2031 213.02 91.6953 215.098 91.6953C216.317 91.6953 217.489 91.8516 218.614 92.1641C219.739 92.4609 220.919 92.9453 222.153 93.6172ZM220.77 97.5547C220.505 98.7422 219.927 99.7891 219.036 100.695C218.161 101.602 217.302 102.055 216.458 102.055C216.036 102.055 215.661 101.945 215.333 101.727C214.864 101.352 214.63 100.695 214.63 99.7578C214.63 99.0391 214.864 98.3281 215.333 97.625C215.817 96.9219 216.575 96.3672 217.606 95.9609C216.575 95.9609 215.575 96.1562 214.606 96.5469C213.653 96.9375 212.833 97.4453 212.145 98.0703C211.458 98.6797 210.903 99.375 210.481 100.156C210.075 100.922 209.872 101.695 209.872 102.477C209.872 103.93 210.544 105.086 211.887 105.945C213.137 106.742 214.325 107.141 215.45 107.141C216.559 107.141 217.544 106.773 218.403 106.039C219.262 105.289 219.919 104.336 220.372 103.18C220.825 102.008 221.052 100.852 221.052 99.7109C221.052 98.9297 220.958 98.2109 220.77 97.5547Z"/><path d="M239.867 91.9297C241.602 91.3516 243.094 90.9141 244.344 90.6172C245.594 90.3047 246.789 90.1484 247.93 90.1484C249.461 90.1484 250.805 90.4844 251.961 91.1562C253.352 91.9531 254.852 93.3125 256.461 95.2344C258.07 97.1562 259.07 98.9375 259.461 100.578C260.289 103.906 260.703 106.812 260.703 109.297C260.703 110.609 260.617 111.992 260.445 113.445C260.273 114.883 260.008 116.734 259.648 119L249.852 119.586C249.883 118.805 249.898 117.68 249.898 116.211C249.898 110.086 249.055 104.875 247.367 100.578C246.711 98.9688 246.07 98.1641 245.445 98.1641C244.633 98.1641 243.734 99.2891 242.75 101.539C242.516 102.086 242.32 102.711 242.164 103.414C242.023 104.117 241.914 104.906 241.836 105.781C241.773 106.656 241.742 107.688 241.742 108.875C241.742 111.281 241.883 114.336 242.164 118.039L230.656 119.375C230.469 118 230.297 116.633 230.141 115.273C229.984 113.914 229.859 112.656 229.766 111.5C229.688 110.328 229.648 109.07 229.648 107.727C229.648 107.148 229.68 106.312 229.742 105.219L229.32 91.5547L238.531 90.3828L239.867 91.9297Z"/><path d="M270.706 98.2109C272.206 98.1641 273.737 97.7188 275.3 96.875C276.878 96.0312 278.339 94.9922 279.683 93.7578C281.027 92.5078 282.112 91.2891 282.941 90.1016C283.784 88.9141 284.206 88.0312 284.206 87.4531C284.206 87.1562 284.097 86.9844 283.878 86.9375C283.487 86.8438 283.05 86.7969 282.566 86.7969C281.722 86.7969 280.441 86.9688 278.722 87.3125C277.019 87.6562 275.98 87.8516 275.605 87.8984C274.636 88.0078 273.378 88.3984 271.831 89.0703C270.284 89.7266 268.862 90.3984 267.566 91.0859C266.284 91.7578 265.573 92.1641 265.433 92.3047C265.386 92.3047 265.23 91.9688 264.964 91.2969C264.714 90.625 264.37 89.6953 263.933 88.5078C263.511 87.3047 263.034 85.9766 262.503 84.5234C261.956 83.0547 261.589 82.1328 261.402 81.7578C263.292 81.1328 265.066 80.5547 266.722 80.0234C268.394 79.4922 270.152 78.9922 271.995 78.5234C273.839 78.0391 275.597 77.6562 277.269 77.375C278.956 77.0938 280.612 76.9531 282.237 76.9531C283.503 76.9531 284.667 77.0547 285.73 77.2578C286.792 77.4453 287.792 77.7656 288.73 78.2188C289.683 78.6719 290.527 79.2812 291.261 80.0469C292.011 80.7969 292.62 81.6875 293.089 82.7188C293.245 83.0312 293.323 83.4453 293.323 83.9609C293.323 85.8828 292.081 88.4219 289.597 91.5781C287.112 94.7188 284.222 97.6484 280.925 100.367C277.628 103.07 275.042 104.703 273.167 105.266L270.706 98.2109ZM276.753 109.602C277.847 109.602 278.8 109.789 279.612 110.164C280.441 110.523 281.105 110.953 281.605 111.453C282.105 111.953 282.456 112.422 282.659 112.859C282.862 113.266 282.964 113.727 282.964 114.242C282.964 115.008 282.8 115.789 282.472 116.586C282.144 117.367 281.745 118.039 281.277 118.602C280.808 119.164 280.362 119.492 279.941 119.586C279.097 119.711 278.487 119.773 278.112 119.773C276.581 119.773 275.347 119.375 274.409 118.578C273.472 117.781 272.909 116.672 272.722 115.25C272.722 113.922 273.042 112.68 273.683 111.523C274.339 110.367 275.362 109.727 276.753 109.602Z"/></mask><path d="M39.0078 54.2969L27.5 55.0703L24.4297 50.0781L21.7344 56.9922L14.2344 57.1797L5.42188 16.0938L19.0391 17.4297L21.5469 31.4453L24.2188 26.2656L27.875 32.8047L29.7969 11.1016L43.0391 10.1406L39.0078 54.2969Z" fill="#FFCB08"/><path d="M57.8469 24.9297C60.6438 24.0078 63.0578 23.5469 65.0891 23.5469C66.9484 23.5469 68.5656 23.9453 69.9406 24.7422C70.7688 25.2266 71.6984 25.9609 72.7297 26.9453C73.7609 27.9141 74.6672 28.9844 75.4484 30.1562C76.2453 31.3281 76.7766 32.4688 77.0422 33.5781C77.8703 36.9062 78.2844 39.8125 78.2844 42.2969C78.2844 43.6094 78.1984 44.9922 78.0266 46.4453C77.8547 47.8828 77.5891 49.7344 77.2297 52L67.4328 52.5859C67.4641 51.8047 67.4797 50.6797 67.4797 49.2109C67.4797 43.0859 66.6359 37.875 64.9484 33.5781C64.2922 31.9688 63.6516 31.1641 63.0266 31.1641C62.2141 31.1641 61.3156 32.2891 60.3313 34.5391C60.0969 35.0859 59.9016 35.7109 59.7453 36.4141C59.6047 37.1172 59.4953 37.9062 59.4172 38.7812C59.3547 39.6562 59.3234 40.6875 59.3234 41.875C59.3234 44.2812 59.4641 47.3359 59.7453 51.0391L48.2375 52.375C48.1125 51.4688 48.0344 50.4062 48.0031 49.1875C47.9563 47.9688 47.925 46.7109 47.9094 45.4141C47.8781 44.1172 47.8234 42.9375 47.7453 41.875C47.6828 40.7969 47.5422 39.5781 47.3234 38.2188L46.6906 7.65625L56.3 6.48438L57.8469 24.9297Z" fill="#FFCB08"/><path d="M102.162 26.6172C103.272 27.2109 104.17 28.0156 104.858 29.0312C105.561 30.0312 106.069 31.1641 106.381 32.4297C106.709 33.6797 106.873 34.9844 106.873 36.3438C106.873 37.4688 106.78 38.5547 106.592 39.6016C106.42 40.6484 106.178 41.6094 105.866 42.4844C105.553 43.3594 105.186 44.1016 104.764 44.7109C103.78 46.1797 102.725 47.4453 101.6 48.5078C100.475 49.5703 99.3266 50.4297 98.1547 51.0859C96.9828 51.7266 95.8187 52.1953 94.6625 52.4922C93.5219 52.8047 92.3891 52.9609 91.2641 52.9609C89.9359 52.9609 88.6703 52.75 87.4672 52.3281C86.2797 51.9219 85.2641 51.3828 84.4203 50.7109C83.0297 49.5547 81.9437 48 81.1625 46.0469C80.3812 44.0781 79.9906 42 79.9906 39.8125C79.9906 36.0469 81.0766 33.0078 83.2484 30.6953C85.1078 28.7109 87.0297 27.2188 89.0141 26.2188C90.9984 25.2031 93.0297 24.6953 95.1078 24.6953C96.3266 24.6953 97.4984 24.8516 98.6234 25.1641C99.7484 25.4609 100.928 25.9453 102.162 26.6172ZM100.78 30.5547C100.514 31.7422 99.9359 32.7891 99.0453 33.6953C98.1703 34.6016 97.3109 35.0547 96.4672 35.0547C96.0453 35.0547 95.6703 34.9453 95.3422 34.7266C94.8734 34.3516 94.6391 33.6953 94.6391 32.7578C94.6391 32.0391 94.8734 31.3281 95.3422 30.625C95.8266 29.9219 96.5844 29.3672 97.6156 28.9609C96.5844 28.9609 95.5844 29.1562 94.6156 29.5469C93.6625 29.9375 92.8422 30.4453 92.1547 31.0703C91.4672 31.6797 90.9125 32.375 90.4906 33.1562C90.0844 33.9219 89.8812 34.6953 89.8812 35.4766C89.8812 36.9297 90.5531 38.0859 91.8969 38.9453C93.1469 39.7422 94.3344 40.1406 95.4594 40.1406C96.5687 40.1406 97.5531 39.7734 98.4125 39.0391C99.2719 38.2891 99.9281 37.3359 100.381 36.1797C100.834 35.0078 101.061 33.8516 101.061 32.7109C101.061 31.9297 100.967 31.2109 100.78 30.5547Z" fill="#FFCB08"/><path d="M118.962 25.75L113.97 25.0703L110.173 10.0938L119.923 11.4766L118.962 25.75Z" fill="#FFCB08"/><path d="M150.411 34.1406C149.942 33.9688 148.802 33.6094 146.989 33.0625C145.192 32.5 143.583 32.0156 142.161 31.6094C140.755 31.2031 139.2 30.8125 137.497 30.4375C135.794 30.0625 134.466 29.875 133.512 29.875C133.012 29.875 132.63 29.9531 132.364 30.1094C131.598 30.6875 131.216 31.2188 131.216 31.7031C131.216 32.4688 131.981 33.1328 133.512 33.6953C135.044 34.2422 136.903 34.6484 139.091 34.9141C142.091 35.2422 144.512 35.9453 146.356 37.0234C148.216 38.1016 149.559 39.3594 150.387 40.7969C151.216 42.2188 151.63 43.6797 151.63 45.1797C151.63 46.2422 151.419 47.2344 150.997 48.1562C149.184 52 145.708 53.9219 140.567 53.9219C139.161 53.9219 137.575 53.7656 135.809 53.4531C134.044 53.1562 132.348 52.7812 130.723 52.3281C129.114 51.8906 127.395 51.375 125.567 50.7812C123.739 50.1875 122.036 49.6328 120.458 49.1172C120.864 48.2734 121.38 47.2578 122.005 46.0703C122.63 44.8672 123.239 43.6953 123.833 42.5547C124.411 41.4141 124.7 40.7891 124.7 40.6797C125.153 41.1016 125.716 41.4453 126.387 41.7109C127.075 41.9609 128.067 42.2656 129.364 42.625C130.677 42.9688 131.677 43.2812 132.364 43.5625C133.88 44.125 135.45 44.4062 137.075 44.4062C138.075 44.4062 139.028 44.3047 139.934 44.1016C140.841 43.8828 141.325 43.7031 141.387 43.5625C141.387 43.1562 140.692 42.7578 139.302 42.3672C137.927 41.9609 136.387 41.6484 134.684 41.4297C132.747 41.2109 130.794 40.7422 128.825 40.0234C126.872 39.2891 125.208 38.2188 123.833 36.8125C122.458 35.4062 121.77 33.6719 121.77 31.6094C121.77 30.0312 122.169 28.3828 122.966 26.6641C123.841 24.7422 125.153 23.3516 126.903 22.4922C128.653 21.6172 130.747 21.1797 133.184 21.1797C135.997 21.1797 138.895 21.5781 141.88 22.375C144.864 23.1719 148.927 24.4062 154.067 26.0781C153.958 26.3125 153.528 27.3125 152.778 29.0781C152.028 30.8281 151.466 32.1094 151.091 32.9219C150.716 33.7344 150.489 34.1406 150.411 34.1406Z" fill="#FFCB08"/><path d="M188.511 10.9141L198.753 6.29688L198.589 22.0469L206.23 22.2344V31.2578L198.308 31.3516C198.027 33.5703 197.886 35.6562 197.886 37.6094C197.886 39.2344 197.98 40.5781 198.167 41.6406C198.323 42.5156 198.714 43.1875 199.339 43.6562C199.964 44.125 200.691 44.3594 201.519 44.3594C202.441 44.3594 203.245 44.0859 203.933 43.5391C204.636 42.9922 204.988 42.2422 204.988 41.2891C204.988 41.1484 204.956 40.875 204.894 40.4688L212.558 35.4766C212.886 36.0859 213.292 37.1094 213.777 38.5469C214.277 39.9844 214.527 41.5547 214.527 43.2578C214.527 45.3047 213.988 47.1562 212.909 48.8125C211.831 50.4688 209.988 51.7266 207.378 52.5859C205.55 53.1797 203.823 53.4766 202.198 53.4766C199.745 53.4766 197.581 52.9375 195.706 51.8594C193.847 50.7812 192.3 49.4844 191.066 47.9688C190.488 47.2656 190.034 46.1016 189.706 44.4766C189.394 42.8516 189.191 41.1562 189.097 39.3906C189.003 37.625 188.956 35.8594 188.956 34.0938V31.4453L182.042 31.6562L180.308 21.0859L189.05 21.6719L188.511 10.9141Z" fill="#FFCB08"/><path d="M229.475 24.9297C232.272 24.0078 234.686 23.5469 236.717 23.5469C238.577 23.5469 240.194 23.9453 241.569 24.7422C242.397 25.2266 243.327 25.9609 244.358 26.9453C245.389 27.9141 246.295 28.9844 247.077 30.1562C247.873 31.3281 248.405 32.4688 248.67 33.5781C249.498 36.9062 249.913 39.8125 249.913 42.2969C249.913 43.6094 249.827 44.9922 249.655 46.4453C249.483 47.8828 249.217 49.7344 248.858 52L239.061 52.5859C239.092 51.8047 239.108 50.6797 239.108 49.2109C239.108 43.0859 238.264 37.875 236.577 33.5781C235.92 31.9688 235.28 31.1641 234.655 31.1641C233.842 31.1641 232.944 32.2891 231.959 34.5391C231.725 35.0859 231.53 35.7109 231.373 36.4141C231.233 37.1172 231.123 37.9062 231.045 38.7812C230.983 39.6562 230.952 40.6875 230.952 41.875C230.952 44.2812 231.092 47.3359 231.373 51.0391L219.866 52.375C219.741 51.4688 219.663 50.4062 219.631 49.1875C219.584 47.9688 219.553 46.7109 219.538 45.4141C219.506 44.1172 219.452 42.9375 219.373 41.875C219.311 40.7969 219.17 39.5781 218.952 38.2188L218.319 7.65625L227.928 6.48438L229.475 24.9297Z" fill="#FFCB08"/><path d="M268.095 29.0547C267.236 29.1641 266.384 29.4375 265.541 29.875C264.712 30.3125 264.002 30.8281 263.408 31.4219C262.814 32.0156 262.345 32.6719 262.002 33.3906C261.673 34.0938 261.509 34.7891 261.509 35.4766C261.509 36.8984 262.181 38.0547 263.525 38.9453C264.712 39.7422 265.916 40.1406 267.134 40.1406C267.369 40.1406 267.689 40.1094 268.095 40.0469V35.0547C267.673 35.0547 267.298 34.9453 266.97 34.7266C266.502 34.3516 266.267 33.6328 266.267 32.5703C266.267 31.0391 266.877 29.8672 268.095 29.0547ZM268.283 24.9297L278.08 20.5234L278.267 33.625C278.392 34.4375 278.455 35.3594 278.455 36.3906C278.455 37.2969 278.423 37.9688 278.361 38.4062L278.642 52.7734L268.095 53.3359V51.9062C266.377 52.6094 264.642 52.9609 262.892 52.9609C261.548 52.9609 260.283 52.7578 259.095 52.3516C257.923 51.9453 256.908 51.3984 256.048 50.7109C254.658 49.5547 253.572 48 252.791 46.0469C252.009 44.0781 251.619 42 251.619 39.8125C251.619 36.0469 252.705 33.0078 254.877 30.6953C256.752 28.7266 258.681 27.2344 260.666 26.2188C262.666 25.2031 264.705 24.6953 266.783 24.6953C267.361 24.6953 267.798 24.7109 268.095 24.7422L268.283 24.9297Z" fill="#FFCB08"/><path d="M285.739 10.9141L295.981 6.29688L295.817 22.0469L303.458 22.2344V31.2578L295.536 31.3516C295.255 33.5703 295.114 35.6562 295.114 37.6094C295.114 39.2344 295.208 40.5781 295.395 41.6406C295.552 42.5156 295.942 43.1875 296.567 43.6562C297.192 44.125 297.919 44.3594 298.747 44.3594C299.669 44.3594 300.473 44.0859 301.161 43.5391C301.864 42.9922 302.216 42.2422 302.216 41.2891C302.216 41.1484 302.184 40.875 302.122 40.4688L309.786 35.4766C310.114 36.0859 310.52 37.1094 311.005 38.5469C311.505 39.9844 311.755 41.5547 311.755 43.2578C311.755 45.3047 311.216 47.1562 310.138 48.8125C309.059 50.4688 307.216 51.7266 304.606 52.5859C302.778 53.1797 301.052 53.4766 299.427 53.4766C296.973 53.4766 294.809 52.9375 292.934 51.8594C291.075 50.7812 289.528 49.4844 288.294 47.9688C287.716 47.2656 287.263 46.1016 286.934 44.4766C286.622 42.8516 286.419 41.1562 286.325 39.3906C286.231 37.625 286.184 35.8594 286.184 34.0938V31.4453L279.27 31.6562L277.536 21.0859L286.278 21.6719L285.739 10.9141Z" fill="#FFCB08"/><path d="M33.3641 81.7578C35.2547 81.1328 37.0281 80.5547 38.6844 80.0234C40.3562 79.4922 42.1141 78.9922 43.9578 78.5234C45.8016 78.0391 47.5672 77.6562 49.2547 77.375C50.5516 77.1562 51.8797 77.0469 53.2391 77.0469C55.5047 77.0469 56.9891 77.1094 57.6922 77.2344C58.7547 77.4375 59.7547 77.7656 60.6922 78.2188C61.6453 78.6719 62.4891 79.2812 63.2234 80.0469C63.9734 80.7969 64.5828 81.6875 65.0516 82.7188C65.2391 83.1406 65.3328 83.5859 65.3328 84.0547C65.3328 85.8047 64.3719 87.9609 62.45 90.5234C60.5437 93.0859 58.6219 95.3203 56.6844 97.2266C54.7625 99.1328 53.325 100.5 52.3719 101.328L56.5906 116.117L50.45 120.547L39.6922 89.8203C39.6609 89.8203 39.5125 89.9688 39.2469 90.2656C38.9812 90.5625 38.6297 90.9531 38.1922 91.4375C37.7703 91.9062 37.5047 92.1953 37.3953 92.3047C37.3484 92.3047 37.1922 91.9688 36.9266 91.2969C36.6766 90.625 36.3328 89.6953 35.8953 88.5078C35.4734 87.3047 34.9969 85.9766 34.4656 84.5234C33.9187 83.0547 33.5516 82.1328 33.3641 81.7578ZM48.5281 88.2734L50.45 95.1875C51.4187 94.2031 52.6219 92.8594 54.0594 91.1562C55.4969 89.4531 56.2156 88.2188 56.2156 87.4531C56.2156 87.1562 56.0906 86.9844 55.8406 86.9375C55.1375 86.7812 54.4422 86.7031 53.7547 86.7031C51.6922 86.7031 49.95 87.2266 48.5281 88.2734Z" fill="#FFCB08"/><path d="M87.7344 93.6172C88.8438 94.2109 89.7422 95.0156 90.4297 96.0312C91.1328 97.0312 91.6406 98.1641 91.9531 99.4297C92.2812 100.68 92.4453 101.984 92.4453 103.344C92.4453 104.469 92.3516 105.555 92.1641 106.602C91.9922 107.648 91.75 108.609 91.4375 109.484C91.125 110.359 90.7578 111.102 90.3359 111.711C89.3516 113.18 88.2969 114.445 87.1719 115.508C86.0469 116.57 84.8984 117.43 83.7266 118.086C82.5547 118.727 81.3906 119.195 80.2344 119.492C79.0938 119.805 77.9609 119.961 76.8359 119.961C75.5078 119.961 74.2422 119.75 73.0391 119.328C71.8516 118.922 70.8359 118.383 69.9922 117.711C68.6016 116.555 67.5156 115 66.7344 113.047C65.9531 111.078 65.5625 109 65.5625 106.812C65.5625 103.047 66.6484 100.008 68.8203 97.6953C70.6797 95.7109 72.6016 94.2188 74.5859 93.2188C76.5703 92.2031 78.6016 91.6953 80.6797 91.6953C81.8984 91.6953 83.0703 91.8516 84.1953 92.1641C85.3203 92.4609 86.5 92.9453 87.7344 93.6172ZM86.3516 97.5547C86.0859 98.7422 85.5078 99.7891 84.6172 100.695C83.7422 101.602 82.8828 102.055 82.0391 102.055C81.6172 102.055 81.2422 101.945 80.9141 101.727C80.4453 101.352 80.2109 100.695 80.2109 99.7578C80.2109 99.0391 80.4453 98.3281 80.9141 97.625C81.3984 96.9219 82.1562 96.3672 83.1875 95.9609C82.1562 95.9609 81.1562 96.1562 80.1875 96.5469C79.2344 96.9375 78.4141 97.4453 77.7266 98.0703C77.0391 98.6797 76.4844 99.375 76.0625 100.156C75.6562 100.922 75.4531 101.695 75.4531 102.477C75.4531 103.93 76.125 105.086 77.4688 105.945C78.7188 106.742 79.9062 107.141 81.0312 107.141C82.1406 107.141 83.125 106.773 83.9844 106.039C84.8438 105.289 85.5 104.336 85.9531 103.18C86.4062 102.008 86.6328 100.852 86.6328 99.7109C86.6328 98.9297 86.5391 98.2109 86.3516 97.5547Z" fill="#FFCB08"/><path d="M93.3547 79.8359L105.261 74.8438L106.995 101.914L116.792 96.5469L126.964 98.0703L113.698 108.242L126.191 117.664L126.753 127.062L108.331 113.82L108.917 125.328L97.7609 125.539L95.6516 84.8281L92.2062 85.6016L93.3547 79.8359Z" fill="#FFCB08"/><path d="M148.077 106.039L153.725 112.859C153.272 114.172 152.194 115.375 150.491 116.469C148.803 117.562 146.788 118.422 144.444 119.047C142.116 119.688 139.788 120.008 137.459 120.008C135.397 120.008 133.553 119.734 131.928 119.188C130.319 118.641 129.077 117.812 128.202 116.703C126.686 114.797 125.928 112.359 125.928 109.391C125.928 107.047 126.35 104.742 127.194 102.477C128.053 100.195 128.959 98.6016 129.913 97.6953C131.053 96.6172 132.288 95.7188 133.616 95C134.959 94.2812 136.35 93.7422 137.788 93.3828C139.225 93.0234 140.702 92.8438 142.217 92.8438C144.202 92.8438 146.084 93.1641 147.866 93.8047C149.663 94.4297 151.233 95.3438 152.577 96.5469L139.709 111.898C140.85 111.898 141.928 111.664 142.944 111.195C143.975 110.711 144.92 110.031 145.78 109.156C146.639 108.266 147.405 107.227 148.077 106.039ZM141.584 100.578C140.819 100.188 140.038 99.9922 139.241 99.9922C138.397 99.9922 137.577 100.164 136.78 100.508C135.998 100.852 135.444 101.258 135.116 101.727C134.147 102.977 133.663 104.352 133.663 105.852C133.663 106.398 133.717 106.922 133.827 107.422C133.936 107.922 134.123 108.609 134.389 109.484L141.584 100.578ZM129.538 83.6797L142.03 76.7656L147.397 85.0156L132.233 87.8984L129.538 83.6797Z" fill="#FFCB08"/><path d="M176.478 92.1172C180.525 90.8359 183.533 90.1953 185.502 90.1953C187.064 90.1953 188.408 90.5156 189.533 91.1562C190.923 91.9531 192.423 93.3125 194.033 95.2344C195.642 97.1562 196.642 98.9375 197.033 100.578C197.861 103.906 198.275 106.812 198.275 109.297C198.275 110.609 198.189 111.992 198.017 113.445C197.845 114.883 197.58 116.734 197.22 119L187.423 119.586C187.455 118.805 187.47 117.68 187.47 116.211C187.47 110.086 186.627 104.875 184.939 100.578C184.627 99.8125 184.259 99.2109 183.837 98.7734C183.416 98.3359 183.041 98.1172 182.712 98.1172C182.369 98.1172 182.197 98.3594 182.197 98.8438C182.197 99.125 182.228 99.3672 182.291 99.5703C182.4 99.8203 182.509 100.156 182.619 100.578C183.462 103.969 183.884 106.875 183.884 109.297C183.884 110.484 183.806 111.734 183.65 113.047C183.494 114.344 183.22 116.328 182.83 119L173.033 119.586C173.064 118.805 173.08 117.68 173.08 116.211C173.08 110.07 172.228 104.859 170.525 100.578C170.322 100.078 170.166 99.5547 170.056 99.0078C169.947 98.4453 169.869 98.1641 169.822 98.1641C169.759 98.1641 169.58 98.5312 169.283 99.2656C168.986 100 168.666 100.758 168.322 101.539C168.087 102.086 167.892 102.711 167.736 103.414C167.595 104.117 167.486 104.906 167.408 105.781C167.345 106.656 167.314 107.688 167.314 108.875C167.314 111.281 167.455 114.336 167.736 118.039L156.228 119.375C156.041 118 155.869 116.633 155.712 115.273C155.556 113.914 155.431 112.656 155.337 111.5C155.259 110.328 155.22 109.07 155.22 107.727C155.22 107.148 155.252 106.312 155.314 105.219L154.892 91.5547L164.103 90.3828L165.439 91.9297C167.908 91.1328 169.923 90.7344 171.486 90.7344C173.22 90.7344 174.884 91.1953 176.478 92.1172Z" fill="#FFCB08"/><path d="M222.153 93.6172C223.262 94.2109 224.161 95.0156 224.848 96.0312C225.552 97.0312 226.059 98.1641 226.372 99.4297C226.7 100.68 226.864 101.984 226.864 103.344C226.864 104.469 226.77 105.555 226.583 106.602C226.411 107.648 226.169 108.609 225.856 109.484C225.544 110.359 225.177 111.102 224.755 111.711C223.77 113.18 222.716 114.445 221.591 115.508C220.466 116.57 219.317 117.43 218.145 118.086C216.973 118.727 215.809 119.195 214.653 119.492C213.512 119.805 212.38 119.961 211.255 119.961C209.927 119.961 208.661 119.75 207.458 119.328C206.27 118.922 205.255 118.383 204.411 117.711C203.02 116.555 201.934 115 201.153 113.047C200.372 111.078 199.981 109 199.981 106.812C199.981 103.047 201.067 100.008 203.239 97.6953C205.098 95.7109 207.02 94.2188 209.005 93.2188C210.989 92.2031 213.02 91.6953 215.098 91.6953C216.317 91.6953 217.489 91.8516 218.614 92.1641C219.739 92.4609 220.919 92.9453 222.153 93.6172ZM220.77 97.5547C220.505 98.7422 219.927 99.7891 219.036 100.695C218.161 101.602 217.302 102.055 216.458 102.055C216.036 102.055 215.661 101.945 215.333 101.727C214.864 101.352 214.63 100.695 214.63 99.7578C214.63 99.0391 214.864 98.3281 215.333 97.625C215.817 96.9219 216.575 96.3672 217.606 95.9609C216.575 95.9609 215.575 96.1562 214.606 96.5469C213.653 96.9375 212.833 97.4453 212.145 98.0703C211.458 98.6797 210.903 99.375 210.481 100.156C210.075 100.922 209.872 101.695 209.872 102.477C209.872 103.93 210.544 105.086 211.887 105.945C213.137 106.742 214.325 107.141 215.45 107.141C216.559 107.141 217.544 106.773 218.403 106.039C219.262 105.289 219.919 104.336 220.372 103.18C220.825 102.008 221.052 100.852 221.052 99.7109C221.052 98.9297 220.958 98.2109 220.77 97.5547Z" fill="#FFCB08"/><path d="M239.867 91.9297C241.602 91.3516 243.094 90.9141 244.344 90.6172C245.594 90.3047 246.789 90.1484 247.93 90.1484C249.461 90.1484 250.805 90.4844 251.961 91.1562C253.352 91.9531 254.852 93.3125 256.461 95.2344C258.07 97.1562 259.07 98.9375 259.461 100.578C260.289 103.906 260.703 106.812 260.703 109.297C260.703 110.609 260.617 111.992 260.445 113.445C260.273 114.883 260.008 116.734 259.648 119L249.852 119.586C249.883 118.805 249.898 117.68 249.898 116.211C249.898 110.086 249.055 104.875 247.367 100.578C246.711 98.9688 246.07 98.1641 245.445 98.1641C244.633 98.1641 243.734 99.2891 242.75 101.539C242.516 102.086 242.32 102.711 242.164 103.414C242.023 104.117 241.914 104.906 241.836 105.781C241.773 106.656 241.742 107.688 241.742 108.875C241.742 111.281 241.883 114.336 242.164 118.039L230.656 119.375C230.469 118 230.297 116.633 230.141 115.273C229.984 113.914 229.859 112.656 229.766 111.5C229.688 110.328 229.648 109.07 229.648 107.727C229.648 107.148 229.68 106.312 229.742 105.219L229.32 91.5547L238.531 90.3828L239.867 91.9297Z" fill="#FFCB08"/><path d="M270.706 98.2109C272.206 98.1641 273.737 97.7188 275.3 96.875C276.878 96.0312 278.339 94.9922 279.683 93.7578C281.027 92.5078 282.112 91.2891 282.941 90.1016C283.784 88.9141 284.206 88.0312 284.206 87.4531C284.206 87.1562 284.097 86.9844 283.878 86.9375C283.487 86.8438 283.05 86.7969 282.566 86.7969C281.722 86.7969 280.441 86.9688 278.722 87.3125C277.019 87.6562 275.98 87.8516 275.605 87.8984C274.636 88.0078 273.378 88.3984 271.831 89.0703C270.284 89.7266 268.862 90.3984 267.566 91.0859C266.284 91.7578 265.573 92.1641 265.433 92.3047C265.386 92.3047 265.23 91.9688 264.964 91.2969C264.714 90.625 264.37 89.6953 263.933 88.5078C263.511 87.3047 263.034 85.9766 262.503 84.5234C261.956 83.0547 261.589 82.1328 261.402 81.7578C263.292 81.1328 265.066 80.5547 266.722 80.0234C268.394 79.4922 270.152 78.9922 271.995 78.5234C273.839 78.0391 275.597 77.6562 277.269 77.375C278.956 77.0938 280.612 76.9531 282.237 76.9531C283.503 76.9531 284.667 77.0547 285.73 77.2578C286.792 77.4453 287.792 77.7656 288.73 78.2188C289.683 78.6719 290.527 79.2812 291.261 80.0469C292.011 80.7969 292.62 81.6875 293.089 82.7188C293.245 83.0312 293.323 83.4453 293.323 83.9609C293.323 85.8828 292.081 88.4219 289.597 91.5781C287.112 94.7188 284.222 97.6484 280.925 100.367C277.628 103.07 275.042 104.703 273.167 105.266L270.706 98.2109ZM276.753 109.602C277.847 109.602 278.8 109.789 279.612 110.164C280.441 110.523 281.105 110.953 281.605 111.453C282.105 111.953 282.456 112.422 282.659 112.859C282.862 113.266 282.964 113.727 282.964 114.242C282.964 115.008 282.8 115.789 282.472 116.586C282.144 117.367 281.745 118.039 281.277 118.602C280.808 119.164 280.362 119.492 279.941 119.586C279.097 119.711 278.487 119.773 278.112 119.773C276.581 119.773 275.347 119.375 274.409 118.578C273.472 117.781 272.909 116.672 272.722 115.25C272.722 113.922 273.042 112.68 273.683 111.523C274.339 110.367 275.362 109.727 276.753 109.602Z" fill="#FFCB08"/><path d="M39.0078 54.2969L27.5 55.0703L24.4297 50.0781L21.7344 56.9922L14.2344 57.1797L5.42188 16.0938L19.0391 17.4297L21.5469 31.4453L24.2188 26.2656L27.875 32.8047L29.7969 11.1016L43.0391 10.1406L39.0078 54.2969Z" stroke="#3664AE" stroke-width="8" mask="url(#path-1-outside-1_612_258)"/><path d="M57.8469 24.9297C60.6438 24.0078 63.0578 23.5469 65.0891 23.5469C66.9484 23.5469 68.5656 23.9453 69.9406 24.7422C70.7688 25.2266 71.6984 25.9609 72.7297 26.9453C73.7609 27.9141 74.6672 28.9844 75.4484 30.1562C76.2453 31.3281 76.7766 32.4688 77.0422 33.5781C77.8703 36.9062 78.2844 39.8125 78.2844 42.2969C78.2844 43.6094 78.1984 44.9922 78.0266 46.4453C77.8547 47.8828 77.5891 49.7344 77.2297 52L67.4328 52.5859C67.4641 51.8047 67.4797 50.6797 67.4797 49.2109C67.4797 43.0859 66.6359 37.875 64.9484 33.5781C64.2922 31.9688 63.6516 31.1641 63.0266 31.1641C62.2141 31.1641 61.3156 32.2891 60.3313 34.5391C60.0969 35.0859 59.9016 35.7109 59.7453 36.4141C59.6047 37.1172 59.4953 37.9062 59.4172 38.7812C59.3547 39.6562 59.3234 40.6875 59.3234 41.875C59.3234 44.2812 59.4641 47.3359 59.7453 51.0391L48.2375 52.375C48.1125 51.4688 48.0344 50.4062 48.0031 49.1875C47.9563 47.9688 47.925 46.7109 47.9094 45.4141C47.8781 44.1172 47.8234 42.9375 47.7453 41.875C47.6828 40.7969 47.5422 39.5781 47.3234 38.2188L46.6906 7.65625L56.3 6.48438L57.8469 24.9297Z" stroke="#3664AE" stroke-width="8" mask="url(#path-1-outside-1_612_258)"/><path d="M102.162 26.6172C103.272 27.2109 104.17 28.0156 104.858 29.0312C105.561 30.0312 106.069 31.1641 106.381 32.4297C106.709 33.6797 106.873 34.9844 106.873 36.3438C106.873 37.4688 106.78 38.5547 106.592 39.6016C106.42 40.6484 106.178 41.6094 105.866 42.4844C105.553 43.3594 105.186 44.1016 104.764 44.7109C103.78 46.1797 102.725 47.4453 101.6 48.5078C100.475 49.5703 99.3266 50.4297 98.1547 51.0859C96.9828 51.7266 95.8187 52.1953 94.6625 52.4922C93.5219 52.8047 92.3891 52.9609 91.2641 52.9609C89.9359 52.9609 88.6703 52.75 87.4672 52.3281C86.2797 51.9219 85.2641 51.3828 84.4203 50.7109C83.0297 49.5547 81.9437 48 81.1625 46.0469C80.3812 44.0781 79.9906 42 79.9906 39.8125C79.9906 36.0469 81.0766 33.0078 83.2484 30.6953C85.1078 28.7109 87.0297 27.2188 89.0141 26.2188C90.9984 25.2031 93.0297 24.6953 95.1078 24.6953C96.3266 24.6953 97.4984 24.8516 98.6234 25.1641C99.7484 25.4609 100.928 25.9453 102.162 26.6172ZM100.78 30.5547C100.514 31.7422 99.9359 32.7891 99.0453 33.6953C98.1703 34.6016 97.3109 35.0547 96.4672 35.0547C96.0453 35.0547 95.6703 34.9453 95.3422 34.7266C94.8734 34.3516 94.6391 33.6953 94.6391 32.7578C94.6391 32.0391 94.8734 31.3281 95.3422 30.625C95.8266 29.9219 96.5844 29.3672 97.6156 28.9609C96.5844 28.9609 95.5844 29.1562 94.6156 29.5469C93.6625 29.9375 92.8422 30.4453 92.1547 31.0703C91.4672 31.6797 90.9125 32.375 90.4906 33.1562C90.0844 33.9219 89.8812 34.6953 89.8812 35.4766C89.8812 36.9297 90.5531 38.0859 91.8969 38.9453C93.1469 39.7422 94.3344 40.1406 95.4594 40.1406C96.5687 40.1406 97.5531 39.7734 98.4125 39.0391C99.2719 38.2891 99.9281 37.3359 100.381 36.1797C100.834 35.0078 101.061 33.8516 101.061 32.7109C101.061 31.9297 100.967 31.2109 100.78 30.5547Z" stroke="#3664AE" stroke-width="8" mask="url(#path-1-outside-1_612_258)"/><path d="M118.962 25.75L113.97 25.0703L110.173 10.0938L119.923 11.4766L118.962 25.75Z" stroke="#3664AE" stroke-width="8" mask="url(#path-1-outside-1_612_258)"/><path d="M150.411 34.1406C149.942 33.9688 148.802 33.6094 146.989 33.0625C145.192 32.5 143.583 32.0156 142.161 31.6094C140.755 31.2031 139.2 30.8125 137.497 30.4375C135.794 30.0625 134.466 29.875 133.512 29.875C133.012 29.875 132.63 29.9531 132.364 30.1094C131.598 30.6875 131.216 31.2188 131.216 31.7031C131.216 32.4688 131.981 33.1328 133.512 33.6953C135.044 34.2422 136.903 34.6484 139.091 34.9141C142.091 35.2422 144.512 35.9453 146.356 37.0234C148.216 38.1016 149.559 39.3594 150.387 40.7969C151.216 42.2188 151.63 43.6797 151.63 45.1797C151.63 46.2422 151.419 47.2344 150.997 48.1562C149.184 52 145.708 53.9219 140.567 53.9219C139.161 53.9219 137.575 53.7656 135.809 53.4531C134.044 53.1562 132.348 52.7812 130.723 52.3281C129.114 51.8906 127.395 51.375 125.567 50.7812C123.739 50.1875 122.036 49.6328 120.458 49.1172C120.864 48.2734 121.38 47.2578 122.005 46.0703C122.63 44.8672 123.239 43.6953 123.833 42.5547C124.411 41.4141 124.7 40.7891 124.7 40.6797C125.153 41.1016 125.716 41.4453 126.387 41.7109C127.075 41.9609 128.067 42.2656 129.364 42.625C130.677 42.9688 131.677 43.2812 132.364 43.5625C133.88 44.125 135.45 44.4062 137.075 44.4062C138.075 44.4062 139.028 44.3047 139.934 44.1016C140.841 43.8828 141.325 43.7031 141.387 43.5625C141.387 43.1562 140.692 42.7578 139.302 42.3672C137.927 41.9609 136.387 41.6484 134.684 41.4297C132.747 41.2109 130.794 40.7422 128.825 40.0234C126.872 39.2891 125.208 38.2188 123.833 36.8125C122.458 35.4062 121.77 33.6719 121.77 31.6094C121.77 30.0312 122.169 28.3828 122.966 26.6641C123.841 24.7422 125.153 23.3516 126.903 22.4922C128.653 21.6172 130.747 21.1797 133.184 21.1797C135.997 21.1797 138.895 21.5781 141.88 22.375C144.864 23.1719 148.927 24.4062 154.067 26.0781C153.958 26.3125 153.528 27.3125 152.778 29.0781C152.028 30.8281 151.466 32.1094 151.091 32.9219C150.716 33.7344 150.489 34.1406 150.411 34.1406Z" stroke="#3664AE" stroke-width="8" mask="url(#path-1-outside-1_612_258)"/><path d="M188.511 10.9141L198.753 6.29688L198.589 22.0469L206.23 22.2344V31.2578L198.308 31.3516C198.027 33.5703 197.886 35.6562 197.886 37.6094C197.886 39.2344 197.98 40.5781 198.167 41.6406C198.323 42.5156 198.714 43.1875 199.339 43.6562C199.964 44.125 200.691 44.3594 201.519 44.3594C202.441 44.3594 203.245 44.0859 203.933 43.5391C204.636 42.9922 204.988 42.2422 204.988 41.2891C204.988 41.1484 204.956 40.875 204.894 40.4688L212.558 35.4766C212.886 36.0859 213.292 37.1094 213.777 38.5469C214.277 39.9844 214.527 41.5547 214.527 43.2578C214.527 45.3047 213.988 47.1562 212.909 48.8125C211.831 50.4688 209.988 51.7266 207.378 52.5859C205.55 53.1797 203.823 53.4766 202.198 53.4766C199.745 53.4766 197.581 52.9375 195.706 51.8594C193.847 50.7812 192.3 49.4844 191.066 47.9688C190.488 47.2656 190.034 46.1016 189.706 44.4766C189.394 42.8516 189.191 41.1562 189.097 39.3906C189.003 37.625 188.956 35.8594 188.956 34.0938V31.4453L182.042 31.6562L180.308 21.0859L189.05 21.6719L188.511 10.9141Z" stroke="#3664AE" stroke-width="8" mask="url(#path-1-outside-1_612_258)"/><path d="M229.475 24.9297C232.272 24.0078 234.686 23.5469 236.717 23.5469C238.577 23.5469 240.194 23.9453 241.569 24.7422C242.397 25.2266 243.327 25.9609 244.358 26.9453C245.389 27.9141 246.295 28.9844 247.077 30.1562C247.873 31.3281 248.405 32.4688 248.67 33.5781C249.498 36.9062 249.913 39.8125 249.913 42.2969C249.913 43.6094 249.827 44.9922 249.655 46.4453C249.483 47.8828 249.217 49.7344 248.858 52L239.061 52.5859C239.092 51.8047 239.108 50.6797 239.108 49.2109C239.108 43.0859 238.264 37.875 236.577 33.5781C235.92 31.9688 235.28 31.1641 234.655 31.1641C233.842 31.1641 232.944 32.2891 231.959 34.5391C231.725 35.0859 231.53 35.7109 231.373 36.4141C231.233 37.1172 231.123 37.9062 231.045 38.7812C230.983 39.6562 230.952 40.6875 230.952 41.875C230.952 44.2812 231.092 47.3359 231.373 51.0391L219.866 52.375C219.741 51.4688 219.663 50.4062 219.631 49.1875C219.584 47.9688 219.553 46.7109 219.538 45.4141C219.506 44.1172 219.452 42.9375 219.373 41.875C219.311 40.7969 219.17 39.5781 218.952 38.2188L218.319 7.65625L227.928 6.48438L229.475 24.9297Z" stroke="#3664AE" stroke-width="8" mask="url(#path-1-outside-1_612_258)"/><path d="M268.095 29.0547C267.236 29.1641 266.384 29.4375 265.541 29.875C264.712 30.3125 264.002 30.8281 263.408 31.4219C262.814 32.0156 262.345 32.6719 262.002 33.3906C261.673 34.0938 261.509 34.7891 261.509 35.4766C261.509 36.8984 262.181 38.0547 263.525 38.9453C264.712 39.7422 265.916 40.1406 267.134 40.1406C267.369 40.1406 267.689 40.1094 268.095 40.0469V35.0547C267.673 35.0547 267.298 34.9453 266.97 34.7266C266.502 34.3516 266.267 33.6328 266.267 32.5703C266.267 31.0391 266.877 29.8672 268.095 29.0547ZM268.283 24.9297L278.08 20.5234L278.267 33.625C278.392 34.4375 278.455 35.3594 278.455 36.3906C278.455 37.2969 278.423 37.9688 278.361 38.4062L278.642 52.7734L268.095 53.3359V51.9062C266.377 52.6094 264.642 52.9609 262.892 52.9609C261.548 52.9609 260.283 52.7578 259.095 52.3516C257.923 51.9453 256.908 51.3984 256.048 50.7109C254.658 49.5547 253.572 48 252.791 46.0469C252.009 44.0781 251.619 42 251.619 39.8125C251.619 36.0469 252.705 33.0078 254.877 30.6953C256.752 28.7266 258.681 27.2344 260.666 26.2188C262.666 25.2031 264.705 24.6953 266.783 24.6953C267.361 24.6953 267.798 24.7109 268.095 24.7422L268.283 24.9297Z" stroke="#3664AE" stroke-width="8" mask="url(#path-1-outside-1_612_258)"/><path d="M285.739 10.9141L295.981 6.29688L295.817 22.0469L303.458 22.2344V31.2578L295.536 31.3516C295.255 33.5703 295.114 35.6562 295.114 37.6094C295.114 39.2344 295.208 40.5781 295.395 41.6406C295.552 42.5156 295.942 43.1875 296.567 43.6562C297.192 44.125 297.919 44.3594 298.747 44.3594C299.669 44.3594 300.473 44.0859 301.161 43.5391C301.864 42.9922 302.216 42.2422 302.216 41.2891C302.216 41.1484 302.184 40.875 302.122 40.4688L309.786 35.4766C310.114 36.0859 310.52 37.1094 311.005 38.5469C311.505 39.9844 311.755 41.5547 311.755 43.2578C311.755 45.3047 311.216 47.1562 310.138 48.8125C309.059 50.4688 307.216 51.7266 304.606 52.5859C302.778 53.1797 301.052 53.4766 299.427 53.4766C296.973 53.4766 294.809 52.9375 292.934 51.8594C291.075 50.7812 289.528 49.4844 288.294 47.9688C287.716 47.2656 287.263 46.1016 286.934 44.4766C286.622 42.8516 286.419 41.1562 286.325 39.3906C286.231 37.625 286.184 35.8594 286.184 34.0938V31.4453L279.27 31.6562L277.536 21.0859L286.278 21.6719L285.739 10.9141Z" stroke="#3664AE" stroke-width="8" mask="url(#path-1-outside-1_612_258)"/><path d="M33.3641 81.7578C35.2547 81.1328 37.0281 80.5547 38.6844 80.0234C40.3562 79.4922 42.1141 78.9922 43.9578 78.5234C45.8016 78.0391 47.5672 77.6562 49.2547 77.375C50.5516 77.1562 51.8797 77.0469 53.2391 77.0469C55.5047 77.0469 56.9891 77.1094 57.6922 77.2344C58.7547 77.4375 59.7547 77.7656 60.6922 78.2188C61.6453 78.6719 62.4891 79.2812 63.2234 80.0469C63.9734 80.7969 64.5828 81.6875 65.0516 82.7188C65.2391 83.1406 65.3328 83.5859 65.3328 84.0547C65.3328 85.8047 64.3719 87.9609 62.45 90.5234C60.5437 93.0859 58.6219 95.3203 56.6844 97.2266C54.7625 99.1328 53.325 100.5 52.3719 101.328L56.5906 116.117L50.45 120.547L39.6922 89.8203C39.6609 89.8203 39.5125 89.9688 39.2469 90.2656C38.9812 90.5625 38.6297 90.9531 38.1922 91.4375C37.7703 91.9062 37.5047 92.1953 37.3953 92.3047C37.3484 92.3047 37.1922 91.9688 36.9266 91.2969C36.6766 90.625 36.3328 89.6953 35.8953 88.5078C35.4734 87.3047 34.9969 85.9766 34.4656 84.5234C33.9187 83.0547 33.5516 82.1328 33.3641 81.7578ZM48.5281 88.2734L50.45 95.1875C51.4187 94.2031 52.6219 92.8594 54.0594 91.1562C55.4969 89.4531 56.2156 88.2188 56.2156 87.4531C56.2156 87.1562 56.0906 86.9844 55.8406 86.9375C55.1375 86.7812 54.4422 86.7031 53.7547 86.7031C51.6922 86.7031 49.95 87.2266 48.5281 88.2734Z" stroke="#3664AE" stroke-width="8" mask="url(#path-1-outside-1_612_258)"/><path d="M87.7344 93.6172C88.8438 94.2109 89.7422 95.0156 90.4297 96.0312C91.1328 97.0312 91.6406 98.1641 91.9531 99.4297C92.2812 100.68 92.4453 101.984 92.4453 103.344C92.4453 104.469 92.3516 105.555 92.1641 106.602C91.9922 107.648 91.75 108.609 91.4375 109.484C91.125 110.359 90.7578 111.102 90.3359 111.711C89.3516 113.18 88.2969 114.445 87.1719 115.508C86.0469 116.57 84.8984 117.43 83.7266 118.086C82.5547 118.727 81.3906 119.195 80.2344 119.492C79.0938 119.805 77.9609 119.961 76.8359 119.961C75.5078 119.961 74.2422 119.75 73.0391 119.328C71.8516 118.922 70.8359 118.383 69.9922 117.711C68.6016 116.555 67.5156 115 66.7344 113.047C65.9531 111.078 65.5625 109 65.5625 106.812C65.5625 103.047 66.6484 100.008 68.8203 97.6953C70.6797 95.7109 72.6016 94.2188 74.5859 93.2188C76.5703 92.2031 78.6016 91.6953 80.6797 91.6953C81.8984 91.6953 83.0703 91.8516 84.1953 92.1641C85.3203 92.4609 86.5 92.9453 87.7344 93.6172ZM86.3516 97.5547C86.0859 98.7422 85.5078 99.7891 84.6172 100.695C83.7422 101.602 82.8828 102.055 82.0391 102.055C81.6172 102.055 81.2422 101.945 80.9141 101.727C80.4453 101.352 80.2109 100.695 80.2109 99.7578C80.2109 99.0391 80.4453 98.3281 80.9141 97.625C81.3984 96.9219 82.1562 96.3672 83.1875 95.9609C82.1562 95.9609 81.1562 96.1562 80.1875 96.5469C79.2344 96.9375 78.4141 97.4453 77.7266 98.0703C77.0391 98.6797 76.4844 99.375 76.0625 100.156C75.6562 100.922 75.4531 101.695 75.4531 102.477C75.4531 103.93 76.125 105.086 77.4688 105.945C78.7188 106.742 79.9062 107.141 81.0312 107.141C82.1406 107.141 83.125 106.773 83.9844 106.039C84.8438 105.289 85.5 104.336 85.9531 103.18C86.4062 102.008 86.6328 100.852 86.6328 99.7109C86.6328 98.9297 86.5391 98.2109 86.3516 97.5547Z" stroke="#3664AE" stroke-width="8" mask="url(#path-1-outside-1_612_258)"/><path d="M93.3547 79.8359L105.261 74.8438L106.995 101.914L116.792 96.5469L126.964 98.0703L113.698 108.242L126.191 117.664L126.753 127.062L108.331 113.82L108.917 125.328L97.7609 125.539L95.6516 84.8281L92.2062 85.6016L93.3547 79.8359Z" stroke="#3664AE" stroke-width="8" mask="url(#path-1-outside-1_612_258)"/><path d="M148.077 106.039L153.725 112.859C153.272 114.172 152.194 115.375 150.491 116.469C148.803 117.562 146.788 118.422 144.444 119.047C142.116 119.688 139.788 120.008 137.459 120.008C135.397 120.008 133.553 119.734 131.928 119.188C130.319 118.641 129.077 117.812 128.202 116.703C126.686 114.797 125.928 112.359 125.928 109.391C125.928 107.047 126.35 104.742 127.194 102.477C128.053 100.195 128.959 98.6016 129.913 97.6953C131.053 96.6172 132.288 95.7188 133.616 95C134.959 94.2812 136.35 93.7422 137.788 93.3828C139.225 93.0234 140.702 92.8438 142.217 92.8438C144.202 92.8438 146.084 93.1641 147.866 93.8047C149.663 94.4297 151.233 95.3438 152.577 96.5469L139.709 111.898C140.85 111.898 141.928 111.664 142.944 111.195C143.975 110.711 144.92 110.031 145.78 109.156C146.639 108.266 147.405 107.227 148.077 106.039ZM141.584 100.578C140.819 100.188 140.038 99.9922 139.241 99.9922C138.397 99.9922 137.577 100.164 136.78 100.508C135.998 100.852 135.444 101.258 135.116 101.727C134.147 102.977 133.663 104.352 133.663 105.852C133.663 106.398 133.717 106.922 133.827 107.422C133.936 107.922 134.123 108.609 134.389 109.484L141.584 100.578ZM129.538 83.6797L142.03 76.7656L147.397 85.0156L132.233 87.8984L129.538 83.6797Z" stroke="#3664AE" stroke-width="8" mask="url(#path-1-outside-1_612_258)"/><path d="M176.478 92.1172C180.525 90.8359 183.533 90.1953 185.502 90.1953C187.064 90.1953 188.408 90.5156 189.533 91.1562C190.923 91.9531 192.423 93.3125 194.033 95.2344C195.642 97.1562 196.642 98.9375 197.033 100.578C197.861 103.906 198.275 106.812 198.275 109.297C198.275 110.609 198.189 111.992 198.017 113.445C197.845 114.883 197.58 116.734 197.22 119L187.423 119.586C187.455 118.805 187.47 117.68 187.47 116.211C187.47 110.086 186.627 104.875 184.939 100.578C184.627 99.8125 184.259 99.2109 183.837 98.7734C183.416 98.3359 183.041 98.1172 182.712 98.1172C182.369 98.1172 182.197 98.3594 182.197 98.8438C182.197 99.125 182.228 99.3672 182.291 99.5703C182.4 99.8203 182.509 100.156 182.619 100.578C183.462 103.969 183.884 106.875 183.884 109.297C183.884 110.484 183.806 111.734 183.65 113.047C183.494 114.344 183.22 116.328 182.83 119L173.033 119.586C173.064 118.805 173.08 117.68 173.08 116.211C173.08 110.07 172.228 104.859 170.525 100.578C170.322 100.078 170.166 99.5547 170.056 99.0078C169.947 98.4453 169.869 98.1641 169.822 98.1641C169.759 98.1641 169.58 98.5312 169.283 99.2656C168.986 100 168.666 100.758 168.322 101.539C168.087 102.086 167.892 102.711 167.736 103.414C167.595 104.117 167.486 104.906 167.408 105.781C167.345 106.656 167.314 107.688 167.314 108.875C167.314 111.281 167.455 114.336 167.736 118.039L156.228 119.375C156.041 118 155.869 116.633 155.712 115.273C155.556 113.914 155.431 112.656 155.337 111.5C155.259 110.328 155.22 109.07 155.22 107.727C155.22 107.148 155.252 106.312 155.314 105.219L154.892 91.5547L164.103 90.3828L165.439 91.9297C167.908 91.1328 169.923 90.7344 171.486 90.7344C173.22 90.7344 174.884 91.1953 176.478 92.1172Z" stroke="#3664AE" stroke-width="8" mask="url(#path-1-outside-1_612_258)"/><path d="M222.153 93.6172C223.262 94.2109 224.161 95.0156 224.848 96.0312C225.552 97.0312 226.059 98.1641 226.372 99.4297C226.7 100.68 226.864 101.984 226.864 103.344C226.864 104.469 226.77 105.555 226.583 106.602C226.411 107.648 226.169 108.609 225.856 109.484C225.544 110.359 225.177 111.102 224.755 111.711C223.77 113.18 222.716 114.445 221.591 115.508C220.466 116.57 219.317 117.43 218.145 118.086C216.973 118.727 215.809 119.195 214.653 119.492C213.512 119.805 212.38 119.961 211.255 119.961C209.927 119.961 208.661 119.75 207.458 119.328C206.27 118.922 205.255 118.383 204.411 117.711C203.02 116.555 201.934 115 201.153 113.047C200.372 111.078 199.981 109 199.981 106.812C199.981 103.047 201.067 100.008 203.239 97.6953C205.098 95.7109 207.02 94.2188 209.005 93.2188C210.989 92.2031 213.02 91.6953 215.098 91.6953C216.317 91.6953 217.489 91.8516 218.614 92.1641C219.739 92.4609 220.919 92.9453 222.153 93.6172ZM220.77 97.5547C220.505 98.7422 219.927 99.7891 219.036 100.695C218.161 101.602 217.302 102.055 216.458 102.055C216.036 102.055 215.661 101.945 215.333 101.727C214.864 101.352 214.63 100.695 214.63 99.7578C214.63 99.0391 214.864 98.3281 215.333 97.625C215.817 96.9219 216.575 96.3672 217.606 95.9609C216.575 95.9609 215.575 96.1562 214.606 96.5469C213.653 96.9375 212.833 97.4453 212.145 98.0703C211.458 98.6797 210.903 99.375 210.481 100.156C210.075 100.922 209.872 101.695 209.872 102.477C209.872 103.93 210.544 105.086 211.887 105.945C213.137 106.742 214.325 107.141 215.45 107.141C216.559 107.141 217.544 106.773 218.403 106.039C219.262 105.289 219.919 104.336 220.372 103.18C220.825 102.008 221.052 100.852 221.052 99.7109C221.052 98.9297 220.958 98.2109 220.77 97.5547Z" stroke="#3664AE" stroke-width="8" mask="url(#path-1-outside-1_612_258)"/><path d="M239.867 91.9297C241.602 91.3516 243.094 90.9141 244.344 90.6172C245.594 90.3047 246.789 90.1484 247.93 90.1484C249.461 90.1484 250.805 90.4844 251.961 91.1562C253.352 91.9531 254.852 93.3125 256.461 95.2344C258.07 97.1562 259.07 98.9375 259.461 100.578C260.289 103.906 260.703 106.812 260.703 109.297C260.703 110.609 260.617 111.992 260.445 113.445C260.273 114.883 260.008 116.734 259.648 119L249.852 119.586C249.883 118.805 249.898 117.68 249.898 116.211C249.898 110.086 249.055 104.875 247.367 100.578C246.711 98.9688 246.07 98.1641 245.445 98.1641C244.633 98.1641 243.734 99.2891 242.75 101.539C242.516 102.086 242.32 102.711 242.164 103.414C242.023 104.117 241.914 104.906 241.836 105.781C241.773 106.656 241.742 107.688 241.742 108.875C241.742 111.281 241.883 114.336 242.164 118.039L230.656 119.375C230.469 118 230.297 116.633 230.141 115.273C229.984 113.914 229.859 112.656 229.766 111.5C229.688 110.328 229.648 109.07 229.648 107.727C229.648 107.148 229.68 106.312 229.742 105.219L229.32 91.5547L238.531 90.3828L239.867 91.9297Z" stroke="#3664AE" stroke-width="8" mask="url(#path-1-outside-1_612_258)"/><path d="M270.706 98.2109C272.206 98.1641 273.737 97.7188 275.3 96.875C276.878 96.0312 278.339 94.9922 279.683 93.7578C281.027 92.5078 282.112 91.2891 282.941 90.1016C283.784 88.9141 284.206 88.0312 284.206 87.4531C284.206 87.1562 284.097 86.9844 283.878 86.9375C283.487 86.8438 283.05 86.7969 282.566 86.7969C281.722 86.7969 280.441 86.9688 278.722 87.3125C277.019 87.6562 275.98 87.8516 275.605 87.8984C274.636 88.0078 273.378 88.3984 271.831 89.0703C270.284 89.7266 268.862 90.3984 267.566 91.0859C266.284 91.7578 265.573 92.1641 265.433 92.3047C265.386 92.3047 265.23 91.9688 264.964 91.2969C264.714 90.625 264.37 89.6953 263.933 88.5078C263.511 87.3047 263.034 85.9766 262.503 84.5234C261.956 83.0547 261.589 82.1328 261.402 81.7578C263.292 81.1328 265.066 80.5547 266.722 80.0234C268.394 79.4922 270.152 78.9922 271.995 78.5234C273.839 78.0391 275.597 77.6562 277.269 77.375C278.956 77.0938 280.612 76.9531 282.237 76.9531C283.503 76.9531 284.667 77.0547 285.73 77.2578C286.792 77.4453 287.792 77.7656 288.73 78.2188C289.683 78.6719 290.527 79.2812 291.261 80.0469C292.011 80.7969 292.62 81.6875 293.089 82.7188C293.245 83.0312 293.323 83.4453 293.323 83.9609C293.323 85.8828 292.081 88.4219 289.597 91.5781C287.112 94.7188 284.222 97.6484 280.925 100.367C277.628 103.07 275.042 104.703 273.167 105.266L270.706 98.2109ZM276.753 109.602C277.847 109.602 278.8 109.789 279.612 110.164C280.441 110.523 281.105 110.953 281.605 111.453C282.105 111.953 282.456 112.422 282.659 112.859C282.862 113.266 282.964 113.727 282.964 114.242C282.964 115.008 282.8 115.789 282.472 116.586C282.144 117.367 281.745 118.039 281.277 118.602C280.808 119.164 280.362 119.492 279.941 119.586C279.097 119.711 278.487 119.773 278.112 119.773C276.581 119.773 275.347 119.375 274.409 118.578C273.472 117.781 272.909 116.672 272.722 115.25C272.722 113.922 273.042 112.68 273.683 111.523C274.339 110.367 275.362 109.727 276.753 109.602Z" stroke="#3664AE" stroke-width="8" mask="url(#path-1-outside-1_612_258)"/></g><defs><filter id="filter0_d_612_258" x="0.363281" y="0.0766602" width="319.391" height="139.144" filterUnits="userSpaceOnUse" color-interpolation-filters="sRGB"><feFlood flood-opacity="0" result="BackgroundImageFix"/><feColorMatrix in="SourceAlpha" type="matrix" values="0 0 0 0 0 0 0 0 0 0 0 0 0 0 0 0 0 0 127 0" result="hardAlpha"/><feOffset dx="4" dy="4"/><feComposite in2="hardAlpha" operator="out"/><feColorMatrix type="matrix" values="0 0 0 0 0 0 0 0 0 0 0 0 0 0 0 0 0 0 0.3 0"/><feBlend mode="normal" in2="BackgroundImageFix" result="effect1_dropShadow_612_258"/><feBlend mode="normal" in="SourceGraphic" in2="effect1_dropShadow_612_258" result="shape"/></filter></defs></svg>