<svg width="448" height="190" viewBox="0 0 448 190" fill="none" xmlns="http://www.w3.org/2000/svg">
<g filter="url(#filter0_d_1267_8)">
<mask id="path-1-outside-1_1267_8" maskUnits="userSpaceOnUse" x="-0.127441" y="-0.746094" width="444" height="187" fill="black">
<rect fill="white" x="-0.127441" y="-0.746094" width="444" height="187"/>
<path d="M53.4526 74.2539L37.1499 75.3496L32.8003 68.2773L28.9819 78.0723L18.3569 78.3379L5.87256 20.1328L25.1636 22.0254L28.7163 41.8809L32.5015 34.543L37.6812 43.8066L40.4038 13.0605L59.1636 11.6992L53.4526 74.2539Z"/>
<path d="M80.1413 32.6504C84.1036 31.3444 87.5235 30.6914 90.4011 30.6914C93.0352 30.6914 95.3262 31.2559 97.2741 32.3848C98.4473 33.071 99.7644 34.1113 101.225 35.5059C102.686 36.8783 103.97 38.3945 105.077 40.0547C106.206 41.7148 106.958 43.3307 107.335 44.9023C108.508 49.6172 109.094 53.7344 109.094 57.2539C109.094 59.1133 108.973 61.0723 108.729 63.1309C108.486 65.1673 108.109 67.7904 107.6 71L93.7214 71.8301C93.7657 70.7233 93.7878 69.1296 93.7878 67.0488C93.7878 58.3717 92.5925 50.9896 90.2019 44.9023C89.2722 42.6224 88.3646 41.4824 87.4792 41.4824C86.3282 41.4824 85.0554 43.0762 83.6608 46.2637C83.3288 47.0384 83.0521 47.9238 82.8308 48.9199C82.6315 49.916 82.4766 51.0339 82.3659 52.2734C82.2774 53.513 82.2331 54.974 82.2331 56.6562C82.2331 60.0651 82.4323 64.3926 82.8308 69.6387L66.528 71.5312C66.3509 70.2474 66.2403 68.7422 66.196 67.0156C66.1296 65.2891 66.0853 63.5072 66.0632 61.6699C66.0189 59.8327 65.9414 58.1615 65.8308 56.6562C65.7422 55.1289 65.543 53.4023 65.2331 51.4766L64.3366 8.17969L77.9499 6.51953L80.1413 32.6504Z"/>
<path d="M142.922 35.041C144.493 35.8822 145.766 37.0221 146.74 38.4609C147.736 39.8776 148.456 41.4824 148.898 43.2754C149.363 45.0462 149.596 46.8945 149.596 48.8203C149.596 50.4141 149.463 51.9525 149.197 53.4355C148.954 54.9186 148.611 56.2799 148.168 57.5195C147.725 58.7591 147.205 59.8105 146.607 60.6738C145.213 62.7546 143.719 64.5475 142.125 66.0527C140.531 67.5579 138.904 68.7754 137.244 69.7051C135.584 70.6126 133.935 71.2767 132.297 71.6973C130.681 72.14 129.076 72.3613 127.482 72.3613C125.601 72.3613 123.808 72.0625 122.103 71.4648C120.421 70.8893 118.982 70.1257 117.787 69.1738C115.817 67.5358 114.279 65.3333 113.172 62.5664C112.065 59.7773 111.512 56.8333 111.512 53.7344C111.512 48.3997 113.05 44.0944 116.127 40.8184C118.761 38.0072 121.484 35.8932 124.295 34.4766C127.106 33.0378 129.984 32.3184 132.928 32.3184C134.654 32.3184 136.314 32.5397 137.908 32.9824C139.502 33.403 141.173 34.0892 142.922 35.041ZM140.963 40.6191C140.586 42.3014 139.767 43.7845 138.506 45.0684C137.266 46.3522 136.049 46.9941 134.853 46.9941C134.256 46.9941 133.725 46.8392 133.26 46.5293C132.596 45.998 132.264 45.0684 132.264 43.7402C132.264 42.722 132.596 41.7148 133.26 40.7188C133.946 39.7227 135.019 38.9368 136.48 38.3613C135.019 38.3613 133.603 38.638 132.23 39.1914C130.88 39.7448 129.718 40.4642 128.744 41.3496C127.77 42.2129 126.984 43.1979 126.387 44.3047C125.811 45.3893 125.523 46.485 125.523 47.5918C125.523 49.6504 126.475 51.2884 128.379 52.5059C130.15 53.6348 131.832 54.1992 133.426 54.1992C134.997 54.1992 136.392 53.679 137.609 52.6387C138.827 51.5762 139.756 50.2259 140.398 48.5879C141.04 46.9277 141.361 45.2897 141.361 43.6738C141.361 42.5671 141.228 41.5488 140.963 40.6191Z"/>
<path d="M166.722 33.8125L159.65 32.8496L154.271 11.6328L168.083 13.5918L166.722 33.8125Z"/>
<path d="M211.274 45.6992C210.61 45.4557 208.994 44.9466 206.426 44.1719C203.88 43.375 201.601 42.6888 199.586 42.1133C197.594 41.5378 195.392 40.9844 192.979 40.4531C190.566 39.9219 188.685 39.6562 187.334 39.6562C186.626 39.6562 186.084 39.7669 185.707 39.9883C184.623 40.8073 184.08 41.5599 184.08 42.2461C184.08 43.3307 185.165 44.2715 187.334 45.0684C189.504 45.8431 192.138 46.4186 195.237 46.7949C199.487 47.2598 202.918 48.2559 205.53 49.7832C208.164 51.3105 210.067 53.0924 211.241 55.1289C212.414 57.1432 213 59.2129 213 61.3379C213 62.8431 212.701 64.2487 212.104 65.5547C209.536 71 204.611 73.7227 197.328 73.7227C195.336 73.7227 193.089 73.5013 190.588 73.0586C188.087 72.638 185.685 72.1068 183.383 71.4648C181.103 70.8451 178.668 70.1146 176.078 69.2734C173.489 68.4323 171.076 67.6465 168.84 66.916C169.416 65.7207 170.146 64.2819 171.032 62.5996C171.917 60.8952 172.78 59.235 173.621 57.6191C174.44 56.0033 174.85 55.1178 174.85 54.9629C175.492 55.5605 176.289 56.0475 177.241 56.4238C178.214 56.778 179.62 57.2096 181.457 57.7188C183.317 58.2057 184.733 58.6484 185.707 59.0469C187.854 59.8438 190.079 60.2422 192.381 60.2422C193.798 60.2422 195.148 60.0983 196.432 59.8105C197.716 59.5007 198.402 59.2461 198.491 59.0469C198.491 58.4714 197.505 57.9069 195.535 57.3535C193.588 56.778 191.407 56.3353 188.994 56.0254C186.25 55.7155 183.483 55.0514 180.694 54.0332C177.927 52.9928 175.569 51.4766 173.621 49.4844C171.673 47.4922 170.7 45.0352 170.7 42.1133C170.7 39.8776 171.264 37.5423 172.393 35.1074C173.632 32.3848 175.492 30.4147 177.971 29.1973C180.45 27.9577 183.416 27.3379 186.869 27.3379C190.854 27.3379 194.96 27.9023 199.188 29.0312C203.416 30.1602 209.171 31.9089 216.453 34.2773C216.298 34.6094 215.69 36.026 214.627 38.5273C213.565 41.0065 212.768 42.8216 212.237 43.9727C211.705 45.1237 211.384 45.6992 211.274 45.6992Z"/>
<path d="M265.249 12.7949L279.759 6.25391L279.526 28.5664L290.35 28.832V41.6152L279.128 41.748C278.729 44.8913 278.53 47.8464 278.53 50.6133C278.53 52.9154 278.663 54.819 278.928 56.3242C279.15 57.5638 279.703 58.5156 280.589 59.1797C281.474 59.8438 282.503 60.1758 283.676 60.1758C284.982 60.1758 286.122 59.7884 287.096 59.0137C288.092 58.2389 288.591 57.1764 288.591 55.8262C288.591 55.627 288.546 55.2396 288.458 54.6641L299.315 47.5918C299.78 48.4551 300.356 49.9049 301.042 51.9414C301.75 53.9779 302.104 56.2025 302.104 58.6152C302.104 61.515 301.341 64.138 299.813 66.4844C298.286 68.8307 295.674 70.6126 291.977 71.8301C289.387 72.6712 286.941 73.0918 284.639 73.0918C281.164 73.0918 278.098 72.3281 275.442 70.8008C272.808 69.2734 270.617 67.4362 268.868 65.2891C268.049 64.293 267.407 62.6439 266.942 60.3418C266.499 58.0397 266.212 55.638 266.079 53.1367C265.946 50.6354 265.88 48.1341 265.88 45.6328V41.8809L256.085 42.1797L253.628 27.2051L266.012 28.0352L265.249 12.7949Z"/>
<path d="M323.281 32.6504C327.243 31.3444 330.663 30.6914 333.541 30.6914C336.175 30.6914 338.466 31.2559 340.414 32.3848C341.587 33.071 342.904 34.1113 344.365 35.5059C345.826 36.8783 347.11 38.3945 348.217 40.0547C349.346 41.7148 350.098 43.3307 350.475 44.9023C351.648 49.6172 352.234 53.7344 352.234 57.2539C352.234 59.1133 352.113 61.0723 351.869 63.1309C351.626 65.1673 351.249 67.7904 350.74 71L336.861 71.8301C336.906 70.7233 336.928 69.1296 336.928 67.0488C336.928 58.3717 335.732 50.9896 333.342 44.9023C332.412 42.6224 331.504 41.4824 330.619 41.4824C329.468 41.4824 328.195 43.0762 326.801 46.2637C326.469 47.0384 326.192 47.9238 325.971 48.9199C325.771 49.916 325.616 51.0339 325.506 52.2734C325.417 53.513 325.373 54.974 325.373 56.6562C325.373 60.0651 325.572 64.3926 325.971 69.6387L309.668 71.5312C309.491 70.2474 309.38 68.7422 309.336 67.0156C309.269 65.2891 309.225 63.5072 309.203 61.6699C309.159 59.8327 309.081 58.1615 308.971 56.6562C308.882 55.1289 308.683 53.4023 308.373 51.4766L307.476 8.17969L321.09 6.51953L323.281 32.6504Z"/>
<path d="M377.993 38.4941C376.776 38.6491 375.569 39.0365 374.374 39.6562C373.201 40.276 372.194 41.0065 371.353 41.8477C370.511 42.6888 369.847 43.6185 369.36 44.6367C368.896 45.6328 368.663 46.6178 368.663 47.5918C368.663 49.6061 369.615 51.2441 371.519 52.5059C373.201 53.6348 374.905 54.1992 376.632 54.1992C376.964 54.1992 377.418 54.1549 377.993 54.0664V46.9941C377.396 46.9941 376.864 46.8392 376.4 46.5293C375.735 45.998 375.403 44.9798 375.403 43.4746C375.403 41.3053 376.267 39.6452 377.993 38.4941ZM378.259 32.6504L392.138 26.4082L392.403 44.9688C392.58 46.1198 392.669 47.4258 392.669 48.8867C392.669 50.1706 392.625 51.1224 392.536 51.7422L392.935 72.0957L377.993 72.8926V70.8672C375.558 71.8633 373.101 72.3613 370.622 72.3613C368.719 72.3613 366.926 72.0736 365.243 71.498C363.583 70.9225 362.144 70.1478 360.927 69.1738C358.957 67.5358 357.418 65.3333 356.312 62.5664C355.205 59.7773 354.651 56.8333 354.651 53.7344C354.651 48.3997 356.19 44.0944 359.267 40.8184C361.923 38.0293 364.657 35.9154 367.468 34.4766C370.301 33.0378 373.19 32.3184 376.134 32.3184C376.953 32.3184 377.573 32.3405 377.993 32.3848L378.259 32.6504Z"/>
<path d="M402.989 12.7949L417.498 6.25391L417.266 28.5664L428.09 28.832V41.6152L416.867 41.748C416.469 44.8913 416.27 47.8464 416.27 50.6133C416.27 52.9154 416.403 54.819 416.668 56.3242C416.89 57.5638 417.443 58.5156 418.328 59.1797C419.214 59.8438 420.243 60.1758 421.416 60.1758C422.722 60.1758 423.862 59.7884 424.836 59.0137C425.832 58.2389 426.33 57.1764 426.33 55.8262C426.33 55.627 426.286 55.2396 426.198 54.6641L437.055 47.5918C437.52 48.4551 438.095 49.9049 438.782 51.9414C439.49 53.9779 439.844 56.2025 439.844 58.6152C439.844 61.515 439.08 64.138 437.553 66.4844C436.026 68.8307 433.414 70.6126 429.717 71.8301C427.127 72.6712 424.681 73.0918 422.379 73.0918C418.904 73.0918 415.838 72.3281 413.182 70.8008C410.548 69.2734 408.356 67.4362 406.608 65.2891C405.789 64.293 405.147 62.6439 404.682 60.3418C404.239 58.0397 403.951 55.638 403.819 53.1367C403.686 50.6354 403.619 48.1341 403.619 45.6328V41.8809L393.825 42.1797L391.367 27.2051L403.752 28.0352L402.989 12.7949Z"/>
<path d="M42.0573 113.24C44.7357 112.355 47.2481 111.536 49.5944 110.783C51.9629 110.031 54.4532 109.322 57.0651 108.658C59.6771 107.972 62.1784 107.43 64.569 107.031C66.4063 106.721 68.2878 106.566 70.2136 106.566C73.4232 106.566 75.5261 106.655 76.5222 106.832C78.0274 107.12 79.444 107.585 80.7722 108.227C82.1224 108.868 83.3177 109.732 84.3581 110.816C85.4206 111.879 86.2839 113.141 86.948 114.602C87.2136 115.199 87.3464 115.83 87.3464 116.494C87.3464 118.973 85.9851 122.028 83.2624 125.658C80.5619 129.288 77.8392 132.454 75.0944 135.154C72.3718 137.855 70.3353 139.792 68.9851 140.965L74.9616 161.916L66.2624 168.191L51.0222 124.662C50.9779 124.662 50.7676 124.872 50.3913 125.293C50.015 125.714 49.517 126.267 48.8972 126.953C48.2995 127.617 47.9232 128.027 47.7683 128.182C47.7019 128.182 47.4805 127.706 47.1042 126.754C46.75 125.802 46.2631 124.485 45.6433 122.803C45.0456 121.098 44.3705 119.217 43.6179 117.158C42.8431 115.077 42.323 113.771 42.0573 113.24ZM63.5397 122.471L66.2624 132.266C67.6348 130.871 69.3392 128.967 71.3757 126.555C73.4121 124.142 74.4304 122.393 74.4304 121.309C74.4304 120.888 74.2533 120.645 73.8991 120.578C72.903 120.357 71.918 120.246 70.944 120.246C68.0222 120.246 65.5541 120.988 63.5397 122.471Z"/>
<path d="M119.082 130.041C120.654 130.882 121.926 132.022 122.9 133.461C123.896 134.878 124.616 136.482 125.059 138.275C125.523 140.046 125.756 141.895 125.756 143.82C125.756 145.414 125.623 146.952 125.357 148.436C125.114 149.919 124.771 151.28 124.328 152.52C123.885 153.759 123.365 154.811 122.767 155.674C121.373 157.755 119.879 159.548 118.285 161.053C116.691 162.558 115.064 163.775 113.404 164.705C111.744 165.613 110.095 166.277 108.457 166.697C106.841 167.14 105.236 167.361 103.642 167.361C101.761 167.361 99.968 167.062 98.2636 166.465C96.5813 165.889 95.1425 165.126 93.9472 164.174C91.9771 162.536 90.4387 160.333 89.3319 157.566C88.2252 154.777 87.6718 151.833 87.6718 148.734C87.6718 143.4 89.2102 139.094 92.287 135.818C94.9211 133.007 97.6438 130.893 100.455 129.477C103.266 128.038 106.144 127.318 109.088 127.318C110.814 127.318 112.475 127.54 114.068 127.982C115.662 128.403 117.333 129.089 119.082 130.041ZM117.123 135.619C116.747 137.301 115.928 138.785 114.666 140.068C113.426 141.352 112.209 141.994 111.014 141.994C110.416 141.994 109.885 141.839 109.42 141.529C108.756 140.998 108.424 140.068 108.424 138.74C108.424 137.722 108.756 136.715 109.42 135.719C110.106 134.723 111.18 133.937 112.641 133.361C111.18 133.361 109.763 133.638 108.391 134.191C107.04 134.745 105.878 135.464 104.904 136.35C103.93 137.213 103.144 138.198 102.547 139.305C101.971 140.389 101.684 141.485 101.684 142.592C101.684 144.65 102.635 146.288 104.539 147.506C106.31 148.635 107.992 149.199 109.586 149.199C111.157 149.199 112.552 148.679 113.769 147.639C114.987 146.576 115.917 145.226 116.559 143.588C117.2 141.928 117.521 140.29 117.521 138.674C117.521 137.567 117.389 136.549 117.123 135.619Z"/>
<path d="M127.044 110.518L143.911 103.445L146.368 141.795L160.247 134.191L174.657 136.35L155.864 150.76L173.562 164.107L174.358 177.422L148.261 158.662L149.091 174.965L133.286 175.264L130.298 117.59L125.417 118.686L127.044 110.518Z"/>
<path d="M204.567 147.639L212.569 157.301C211.927 159.16 210.399 160.865 207.987 162.414C205.596 163.964 202.741 165.181 199.42 166.066C196.122 166.974 192.824 167.428 189.526 167.428C186.604 167.428 183.992 167.04 181.69 166.266C179.41 165.491 177.65 164.318 176.41 162.746C174.263 160.046 173.19 156.592 173.19 152.387C173.19 149.066 173.787 145.801 174.983 142.592C176.2 139.36 177.484 137.102 178.834 135.818C180.45 134.291 182.199 133.018 184.08 132C185.984 130.982 187.954 130.218 189.991 129.709C192.027 129.2 194.119 128.945 196.266 128.945C199.077 128.945 201.744 129.399 204.268 130.307C206.813 131.192 209.038 132.487 210.942 134.191L192.713 155.939C194.329 155.939 195.856 155.607 197.295 154.943C198.756 154.257 200.095 153.294 201.313 152.055C202.53 150.793 203.615 149.321 204.567 147.639ZM195.369 139.902C194.285 139.349 193.178 139.072 192.049 139.072C190.854 139.072 189.692 139.316 188.563 139.803C187.456 140.29 186.67 140.865 186.205 141.529C184.833 143.3 184.147 145.248 184.147 147.373C184.147 148.148 184.224 148.889 184.379 149.598C184.534 150.306 184.8 151.28 185.176 152.52L195.369 139.902ZM178.303 115.963L196 106.168L203.604 117.855L182.121 121.939L178.303 115.963Z"/>
<path d="M244.802 127.916C250.535 126.101 254.796 125.193 257.585 125.193C259.799 125.193 261.703 125.647 263.296 126.555C265.266 127.684 267.391 129.609 269.671 132.332C271.951 135.055 273.368 137.578 273.921 139.902C275.095 144.617 275.681 148.734 275.681 152.254C275.681 154.113 275.559 156.072 275.316 158.131C275.072 160.167 274.696 162.79 274.187 166L260.308 166.83C260.352 165.723 260.375 164.13 260.375 162.049C260.375 153.372 259.179 145.99 256.789 139.902C256.346 138.818 255.826 137.965 255.228 137.346C254.63 136.726 254.099 136.416 253.634 136.416C253.147 136.416 252.904 136.759 252.904 137.445C252.904 137.844 252.948 138.187 253.037 138.475C253.192 138.829 253.347 139.305 253.501 139.902C254.697 144.706 255.294 148.823 255.294 152.254C255.294 153.936 255.184 155.707 254.962 157.566C254.741 159.404 254.354 162.215 253.8 166L239.921 166.83C239.966 165.723 239.988 164.13 239.988 162.049C239.988 153.35 238.781 145.967 236.369 139.902C236.081 139.194 235.86 138.452 235.705 137.678C235.55 136.881 235.439 136.482 235.373 136.482C235.284 136.482 235.029 137.003 234.609 138.043C234.188 139.083 233.735 140.157 233.248 141.264C232.916 142.038 232.639 142.924 232.417 143.92C232.218 144.916 232.063 146.034 231.953 147.273C231.864 148.513 231.82 149.974 231.82 151.656C231.82 155.065 232.019 159.393 232.417 164.639L216.115 166.531C215.849 164.583 215.606 162.646 215.384 160.721C215.163 158.795 214.986 157.013 214.853 155.375C214.742 153.715 214.687 151.933 214.687 150.029C214.687 149.21 214.731 148.026 214.82 146.477L214.222 127.119L227.271 125.459L229.164 127.65C232.661 126.521 235.516 125.957 237.73 125.957C240.187 125.957 242.544 126.61 244.802 127.916Z"/>
<path d="M309.509 130.041C311.08 130.882 312.353 132.022 313.327 133.461C314.323 134.878 315.042 136.482 315.485 138.275C315.95 140.046 316.182 141.895 316.182 143.82C316.182 145.414 316.05 146.952 315.784 148.436C315.54 149.919 315.197 151.28 314.755 152.52C314.312 153.759 313.792 154.811 313.194 155.674C311.8 157.755 310.305 159.548 308.712 161.053C307.118 162.558 305.491 163.775 303.831 164.705C302.171 165.613 300.522 166.277 298.884 166.697C297.268 167.14 295.663 167.361 294.069 167.361C292.188 167.361 290.395 167.062 288.69 166.465C287.008 165.889 285.569 165.126 284.374 164.174C282.404 162.536 280.865 160.333 279.759 157.566C278.652 154.777 278.098 151.833 278.098 148.734C278.098 143.4 279.637 139.094 282.714 135.818C285.348 133.007 288.07 130.893 290.882 129.477C293.693 128.038 296.57 127.318 299.514 127.318C301.241 127.318 302.901 127.54 304.495 127.982C306.089 128.403 307.76 129.089 309.509 130.041ZM307.55 135.619C307.173 137.301 306.354 138.785 305.092 140.068C303.853 141.352 302.635 141.994 301.44 141.994C300.842 141.994 300.311 141.839 299.846 141.529C299.182 140.998 298.85 140.068 298.85 138.74C298.85 137.722 299.182 136.715 299.846 135.719C300.533 134.723 301.606 133.937 303.067 133.361C301.606 133.361 300.19 133.638 298.817 134.191C297.467 134.745 296.305 135.464 295.331 136.35C294.357 137.213 293.571 138.198 292.973 139.305C292.398 140.389 292.11 141.485 292.11 142.592C292.11 144.65 293.062 146.288 294.966 147.506C296.736 148.635 298.419 149.199 300.012 149.199C301.584 149.199 302.979 148.679 304.196 147.639C305.413 146.576 306.343 145.226 306.985 143.588C307.627 141.928 307.948 140.29 307.948 138.674C307.948 137.567 307.815 136.549 307.55 135.619Z"/>
<path d="M334.603 127.65C337.06 126.831 339.174 126.212 340.945 125.791C342.716 125.348 344.409 125.127 346.025 125.127C348.195 125.127 350.098 125.603 351.736 126.555C353.706 127.684 355.831 129.609 358.111 132.332C360.391 135.055 361.808 137.578 362.361 139.902C363.534 144.617 364.121 148.734 364.121 152.254C364.121 154.113 363.999 156.072 363.756 158.131C363.512 160.167 363.136 162.79 362.627 166L348.748 166.83C348.792 165.723 348.814 164.13 348.814 162.049C348.814 153.372 347.619 145.99 345.228 139.902C344.299 137.622 343.391 136.482 342.506 136.482C341.355 136.482 340.082 138.076 338.687 141.264C338.355 142.038 338.079 142.924 337.857 143.92C337.658 144.916 337.503 146.034 337.392 147.273C337.304 148.513 337.26 149.974 337.26 151.656C337.26 155.065 337.459 159.393 337.857 164.639L321.555 166.531C321.289 164.583 321.045 162.646 320.824 160.721C320.603 158.795 320.426 157.013 320.293 155.375C320.182 153.715 320.127 151.933 320.127 150.029C320.127 149.21 320.171 148.026 320.26 146.477L319.662 127.119L332.711 125.459L334.603 127.65Z"/>
<path d="M378.292 136.549C380.417 136.482 382.586 135.852 384.8 134.656C387.036 133.461 389.105 131.989 391.009 130.24C392.913 128.469 394.451 126.743 395.624 125.061C396.819 123.378 397.417 122.128 397.417 121.309C397.417 120.888 397.262 120.645 396.952 120.578C396.399 120.445 395.779 120.379 395.093 120.379C393.898 120.379 392.082 120.622 389.648 121.109C387.235 121.596 385.763 121.873 385.232 121.939C383.859 122.094 382.077 122.648 379.886 123.6C377.694 124.529 375.68 125.481 373.843 126.455C372.028 127.407 371.021 127.982 370.821 128.182C370.755 128.182 370.534 127.706 370.157 126.754C369.803 125.802 369.316 124.485 368.696 122.803C368.099 121.098 367.424 119.217 366.671 117.158C365.896 115.077 365.376 113.771 365.11 113.24C367.789 112.355 370.301 111.536 372.648 110.783C375.016 110.031 377.506 109.322 380.118 108.658C382.73 107.972 385.22 107.43 387.589 107.031C389.98 106.633 392.326 106.434 394.628 106.434C396.421 106.434 398.07 106.577 399.575 106.865C401.08 107.131 402.497 107.585 403.825 108.227C405.176 108.868 406.371 109.732 407.411 110.816C408.474 111.879 409.337 113.141 410.001 114.602C410.222 115.044 410.333 115.631 410.333 116.361C410.333 119.084 408.573 122.681 405.054 127.152C401.534 131.602 397.439 135.752 392.769 139.604C388.098 143.433 384.435 145.746 381.778 146.543L378.292 136.549ZM386.858 152.686C388.408 152.686 389.758 152.951 390.909 153.482C392.082 153.992 393.023 154.6 393.732 155.309C394.44 156.017 394.938 156.681 395.226 157.301C395.513 157.876 395.657 158.529 395.657 159.26C395.657 160.344 395.425 161.451 394.96 162.58C394.495 163.687 393.931 164.639 393.267 165.436C392.603 166.232 391.972 166.697 391.374 166.83C390.179 167.007 389.316 167.096 388.784 167.096C386.615 167.096 384.866 166.531 383.538 165.402C382.21 164.273 381.413 162.702 381.148 160.688C381.148 158.806 381.601 157.046 382.509 155.408C383.439 153.77 384.888 152.863 386.858 152.686Z"/>
</mask>
<path d="M53.4526 74.2539L37.1499 75.3496L32.8003 68.2773L28.9819 78.0723L18.3569 78.3379L5.87256 20.1328L25.1636 22.0254L28.7163 41.8809L32.5015 34.543L37.6812 43.8066L40.4038 13.0605L59.1636 11.6992L53.4526 74.2539Z" fill="#FFCB08"/>
<path d="M80.1413 32.6504C84.1036 31.3444 87.5235 30.6914 90.4011 30.6914C93.0352 30.6914 95.3262 31.2559 97.2741 32.3848C98.4473 33.071 99.7644 34.1113 101.225 35.5059C102.686 36.8783 103.97 38.3945 105.077 40.0547C106.206 41.7148 106.958 43.3307 107.335 44.9023C108.508 49.6172 109.094 53.7344 109.094 57.2539C109.094 59.1133 108.973 61.0723 108.729 63.1309C108.486 65.1673 108.109 67.7904 107.6 71L93.7214 71.8301C93.7657 70.7233 93.7878 69.1296 93.7878 67.0488C93.7878 58.3717 92.5925 50.9896 90.2019 44.9023C89.2722 42.6224 88.3646 41.4824 87.4792 41.4824C86.3282 41.4824 85.0554 43.0762 83.6608 46.2637C83.3288 47.0384 83.0521 47.9238 82.8308 48.9199C82.6315 49.916 82.4766 51.0339 82.3659 52.2734C82.2774 53.513 82.2331 54.974 82.2331 56.6562C82.2331 60.0651 82.4323 64.3926 82.8308 69.6387L66.528 71.5312C66.3509 70.2474 66.2403 68.7422 66.196 67.0156C66.1296 65.2891 66.0853 63.5072 66.0632 61.6699C66.0189 59.8327 65.9414 58.1615 65.8308 56.6562C65.7422 55.1289 65.543 53.4023 65.2331 51.4766L64.3366 8.17969L77.9499 6.51953L80.1413 32.6504Z" fill="#FFCB08"/>
<path d="M142.922 35.041C144.493 35.8822 145.766 37.0221 146.74 38.4609C147.736 39.8776 148.456 41.4824 148.898 43.2754C149.363 45.0462 149.596 46.8945 149.596 48.8203C149.596 50.4141 149.463 51.9525 149.197 53.4355C148.954 54.9186 148.611 56.2799 148.168 57.5195C147.725 58.7591 147.205 59.8105 146.607 60.6738C145.213 62.7546 143.719 64.5475 142.125 66.0527C140.531 67.5579 138.904 68.7754 137.244 69.7051C135.584 70.6126 133.935 71.2767 132.297 71.6973C130.681 72.14 129.076 72.3613 127.482 72.3613C125.601 72.3613 123.808 72.0625 122.103 71.4648C120.421 70.8893 118.982 70.1257 117.787 69.1738C115.817 67.5358 114.279 65.3333 113.172 62.5664C112.065 59.7773 111.512 56.8333 111.512 53.7344C111.512 48.3997 113.05 44.0944 116.127 40.8184C118.761 38.0072 121.484 35.8932 124.295 34.4766C127.106 33.0378 129.984 32.3184 132.928 32.3184C134.654 32.3184 136.314 32.5397 137.908 32.9824C139.502 33.403 141.173 34.0892 142.922 35.041ZM140.963 40.6191C140.586 42.3014 139.767 43.7845 138.506 45.0684C137.266 46.3522 136.049 46.9941 134.853 46.9941C134.256 46.9941 133.725 46.8392 133.26 46.5293C132.596 45.998 132.264 45.0684 132.264 43.7402C132.264 42.722 132.596 41.7148 133.26 40.7188C133.946 39.7227 135.019 38.9368 136.48 38.3613C135.019 38.3613 133.603 38.638 132.23 39.1914C130.88 39.7448 129.718 40.4642 128.744 41.3496C127.77 42.2129 126.984 43.1979 126.387 44.3047C125.811 45.3893 125.523 46.485 125.523 47.5918C125.523 49.6504 126.475 51.2884 128.379 52.5059C130.15 53.6348 131.832 54.1992 133.426 54.1992C134.997 54.1992 136.392 53.679 137.609 52.6387C138.827 51.5762 139.756 50.2259 140.398 48.5879C141.04 46.9277 141.361 45.2897 141.361 43.6738C141.361 42.5671 141.228 41.5488 140.963 40.6191Z" fill="#FFCB08"/>
<path d="M166.722 33.8125L159.65 32.8496L154.271 11.6328L168.083 13.5918L166.722 33.8125Z" fill="#FFCB08"/>
<path d="M211.274 45.6992C210.61 45.4557 208.994 44.9466 206.426 44.1719C203.88 43.375 201.601 42.6888 199.586 42.1133C197.594 41.5378 195.392 40.9844 192.979 40.4531C190.566 39.9219 188.685 39.6562 187.334 39.6562C186.626 39.6562 186.084 39.7669 185.707 39.9883C184.623 40.8073 184.08 41.5599 184.08 42.2461C184.08 43.3307 185.165 44.2715 187.334 45.0684C189.504 45.8431 192.138 46.4186 195.237 46.7949C199.487 47.2598 202.918 48.2559 205.53 49.7832C208.164 51.3105 210.067 53.0924 211.241 55.1289C212.414 57.1432 213 59.2129 213 61.3379C213 62.8431 212.701 64.2487 212.104 65.5547C209.536 71 204.611 73.7227 197.328 73.7227C195.336 73.7227 193.089 73.5013 190.588 73.0586C188.087 72.638 185.685 72.1068 183.383 71.4648C181.103 70.8451 178.668 70.1146 176.078 69.2734C173.489 68.4323 171.076 67.6465 168.84 66.916C169.416 65.7207 170.146 64.2819 171.032 62.5996C171.917 60.8952 172.78 59.235 173.621 57.6191C174.44 56.0033 174.85 55.1178 174.85 54.9629C175.492 55.5605 176.289 56.0475 177.241 56.4238C178.214 56.778 179.62 57.2096 181.457 57.7188C183.317 58.2057 184.733 58.6484 185.707 59.0469C187.854 59.8438 190.079 60.2422 192.381 60.2422C193.798 60.2422 195.148 60.0983 196.432 59.8105C197.716 59.5007 198.402 59.2461 198.491 59.0469C198.491 58.4714 197.505 57.9069 195.535 57.3535C193.588 56.778 191.407 56.3353 188.994 56.0254C186.25 55.7155 183.483 55.0514 180.694 54.0332C177.927 52.9928 175.569 51.4766 173.621 49.4844C171.673 47.4922 170.7 45.0352 170.7 42.1133C170.7 39.8776 171.264 37.5423 172.393 35.1074C173.632 32.3848 175.492 30.4147 177.971 29.1973C180.45 27.9577 183.416 27.3379 186.869 27.3379C190.854 27.3379 194.96 27.9023 199.188 29.0312C203.416 30.1602 209.171 31.9089 216.453 34.2773C216.298 34.6094 215.69 36.026 214.627 38.5273C213.565 41.0065 212.768 42.8216 212.237 43.9727C211.705 45.1237 211.384 45.6992 211.274 45.6992Z" fill="#FFCB08"/>
<path d="M265.249 12.7949L279.759 6.25391L279.526 28.5664L290.35 28.832V41.6152L279.128 41.748C278.729 44.8913 278.53 47.8464 278.53 50.6133C278.53 52.9154 278.663 54.819 278.928 56.3242C279.15 57.5638 279.703 58.5156 280.589 59.1797C281.474 59.8438 282.503 60.1758 283.676 60.1758C284.982 60.1758 286.122 59.7884 287.096 59.0137C288.092 58.2389 288.591 57.1764 288.591 55.8262C288.591 55.627 288.546 55.2396 288.458 54.6641L299.315 47.5918C299.78 48.4551 300.356 49.9049 301.042 51.9414C301.75 53.9779 302.104 56.2025 302.104 58.6152C302.104 61.515 301.341 64.138 299.813 66.4844C298.286 68.8307 295.674 70.6126 291.977 71.8301C289.387 72.6712 286.941 73.0918 284.639 73.0918C281.164 73.0918 278.098 72.3281 275.442 70.8008C272.808 69.2734 270.617 67.4362 268.868 65.2891C268.049 64.293 267.407 62.6439 266.942 60.3418C266.499 58.0397 266.212 55.638 266.079 53.1367C265.946 50.6354 265.88 48.1341 265.88 45.6328V41.8809L256.085 42.1797L253.628 27.2051L266.012 28.0352L265.249 12.7949Z" fill="#FFCB08"/>
<path d="M323.281 32.6504C327.243 31.3444 330.663 30.6914 333.541 30.6914C336.175 30.6914 338.466 31.2559 340.414 32.3848C341.587 33.071 342.904 34.1113 344.365 35.5059C345.826 36.8783 347.11 38.3945 348.217 40.0547C349.346 41.7148 350.098 43.3307 350.475 44.9023C351.648 49.6172 352.234 53.7344 352.234 57.2539C352.234 59.1133 352.113 61.0723 351.869 63.1309C351.626 65.1673 351.249 67.7904 350.74 71L336.861 71.8301C336.906 70.7233 336.928 69.1296 336.928 67.0488C336.928 58.3717 335.732 50.9896 333.342 44.9023C332.412 42.6224 331.504 41.4824 330.619 41.4824C329.468 41.4824 328.195 43.0762 326.801 46.2637C326.469 47.0384 326.192 47.9238 325.971 48.9199C325.771 49.916 325.616 51.0339 325.506 52.2734C325.417 53.513 325.373 54.974 325.373 56.6562C325.373 60.0651 325.572 64.3926 325.971 69.6387L309.668 71.5312C309.491 70.2474 309.38 68.7422 309.336 67.0156C309.269 65.2891 309.225 63.5072 309.203 61.6699C309.159 59.8327 309.081 58.1615 308.971 56.6562C308.882 55.1289 308.683 53.4023 308.373 51.4766L307.476 8.17969L321.09 6.51953L323.281 32.6504Z" fill="#FFCB08"/>
<path d="M377.993 38.4941C376.776 38.6491 375.569 39.0365 374.374 39.6562C373.201 40.276 372.194 41.0065 371.353 41.8477C370.511 42.6888 369.847 43.6185 369.36 44.6367C368.896 45.6328 368.663 46.6178 368.663 47.5918C368.663 49.6061 369.615 51.2441 371.519 52.5059C373.201 53.6348 374.905 54.1992 376.632 54.1992C376.964 54.1992 377.418 54.1549 377.993 54.0664V46.9941C377.396 46.9941 376.864 46.8392 376.4 46.5293C375.735 45.998 375.403 44.9798 375.403 43.4746C375.403 41.3053 376.267 39.6452 377.993 38.4941ZM378.259 32.6504L392.138 26.4082L392.403 44.9688C392.58 46.1198 392.669 47.4258 392.669 48.8867C392.669 50.1706 392.625 51.1224 392.536 51.7422L392.935 72.0957L377.993 72.8926V70.8672C375.558 71.8633 373.101 72.3613 370.622 72.3613C368.719 72.3613 366.926 72.0736 365.243 71.498C363.583 70.9225 362.144 70.1478 360.927 69.1738C358.957 67.5358 357.418 65.3333 356.312 62.5664C355.205 59.7773 354.651 56.8333 354.651 53.7344C354.651 48.3997 356.19 44.0944 359.267 40.8184C361.923 38.0293 364.657 35.9154 367.468 34.4766C370.301 33.0378 373.19 32.3184 376.134 32.3184C376.953 32.3184 377.573 32.3405 377.993 32.3848L378.259 32.6504Z" fill="#FFCB08"/>
<path d="M402.989 12.7949L417.498 6.25391L417.266 28.5664L428.09 28.832V41.6152L416.867 41.748C416.469 44.8913 416.27 47.8464 416.27 50.6133C416.27 52.9154 416.403 54.819 416.668 56.3242C416.89 57.5638 417.443 58.5156 418.328 59.1797C419.214 59.8438 420.243 60.1758 421.416 60.1758C422.722 60.1758 423.862 59.7884 424.836 59.0137C425.832 58.2389 426.33 57.1764 426.33 55.8262C426.33 55.627 426.286 55.2396 426.198 54.6641L437.055 47.5918C437.52 48.4551 438.095 49.9049 438.782 51.9414C439.49 53.9779 439.844 56.2025 439.844 58.6152C439.844 61.515 439.08 64.138 437.553 66.4844C436.026 68.8307 433.414 70.6126 429.717 71.8301C427.127 72.6712 424.681 73.0918 422.379 73.0918C418.904 73.0918 415.838 72.3281 413.182 70.8008C410.548 69.2734 408.356 67.4362 406.608 65.2891C405.789 64.293 405.147 62.6439 404.682 60.3418C404.239 58.0397 403.951 55.638 403.819 53.1367C403.686 50.6354 403.619 48.1341 403.619 45.6328V41.8809L393.825 42.1797L391.367 27.2051L403.752 28.0352L402.989 12.7949Z" fill="#FFCB08"/>
<path d="M42.0573 113.24C44.7357 112.355 47.2481 111.536 49.5944 110.783C51.9629 110.031 54.4532 109.322 57.0651 108.658C59.6771 107.972 62.1784 107.43 64.569 107.031C66.4063 106.721 68.2878 106.566 70.2136 106.566C73.4232 106.566 75.5261 106.655 76.5222 106.832C78.0274 107.12 79.444 107.585 80.7722 108.227C82.1224 108.868 83.3177 109.732 84.3581 110.816C85.4206 111.879 86.2839 113.141 86.948 114.602C87.2136 115.199 87.3464 115.83 87.3464 116.494C87.3464 118.973 85.9851 122.028 83.2624 125.658C80.5619 129.288 77.8392 132.454 75.0944 135.154C72.3718 137.855 70.3353 139.792 68.9851 140.965L74.9616 161.916L66.2624 168.191L51.0222 124.662C50.9779 124.662 50.7676 124.872 50.3913 125.293C50.015 125.714 49.517 126.267 48.8972 126.953C48.2995 127.617 47.9232 128.027 47.7683 128.182C47.7019 128.182 47.4805 127.706 47.1042 126.754C46.75 125.802 46.2631 124.485 45.6433 122.803C45.0456 121.098 44.3705 119.217 43.6179 117.158C42.8431 115.077 42.323 113.771 42.0573 113.24ZM63.5397 122.471L66.2624 132.266C67.6348 130.871 69.3392 128.967 71.3757 126.555C73.4121 124.142 74.4304 122.393 74.4304 121.309C74.4304 120.888 74.2533 120.645 73.8991 120.578C72.903 120.357 71.918 120.246 70.944 120.246C68.0222 120.246 65.5541 120.988 63.5397 122.471Z" fill="#FFCB08"/>
<path d="M119.082 130.041C120.654 130.882 121.926 132.022 122.9 133.461C123.896 134.878 124.616 136.482 125.059 138.275C125.523 140.046 125.756 141.895 125.756 143.82C125.756 145.414 125.623 146.952 125.357 148.436C125.114 149.919 124.771 151.28 124.328 152.52C123.885 153.759 123.365 154.811 122.767 155.674C121.373 157.755 119.879 159.548 118.285 161.053C116.691 162.558 115.064 163.775 113.404 164.705C111.744 165.613 110.095 166.277 108.457 166.697C106.841 167.14 105.236 167.361 103.642 167.361C101.761 167.361 99.968 167.062 98.2636 166.465C96.5813 165.889 95.1425 165.126 93.9472 164.174C91.9771 162.536 90.4387 160.333 89.3319 157.566C88.2252 154.777 87.6718 151.833 87.6718 148.734C87.6718 143.4 89.2102 139.094 92.287 135.818C94.9211 133.007 97.6438 130.893 100.455 129.477C103.266 128.038 106.144 127.318 109.088 127.318C110.814 127.318 112.475 127.54 114.068 127.982C115.662 128.403 117.333 129.089 119.082 130.041ZM117.123 135.619C116.747 137.301 115.928 138.785 114.666 140.068C113.426 141.352 112.209 141.994 111.014 141.994C110.416 141.994 109.885 141.839 109.42 141.529C108.756 140.998 108.424 140.068 108.424 138.74C108.424 137.722 108.756 136.715 109.42 135.719C110.106 134.723 111.18 133.937 112.641 133.361C111.18 133.361 109.763 133.638 108.391 134.191C107.04 134.745 105.878 135.464 104.904 136.35C103.93 137.213 103.144 138.198 102.547 139.305C101.971 140.389 101.684 141.485 101.684 142.592C101.684 144.65 102.635 146.288 104.539 147.506C106.31 148.635 107.992 149.199 109.586 149.199C111.157 149.199 112.552 148.679 113.769 147.639C114.987 146.576 115.917 145.226 116.559 143.588C117.2 141.928 117.521 140.29 117.521 138.674C117.521 137.567 117.389 136.549 117.123 135.619Z" fill="#FFCB08"/>
<path d="M127.044 110.518L143.911 103.445L146.368 141.795L160.247 134.191L174.657 136.35L155.864 150.76L173.562 164.107L174.358 177.422L148.261 158.662L149.091 174.965L133.286 175.264L130.298 117.59L125.417 118.686L127.044 110.518Z" fill="#FFCB08"/>
<path d="M204.567 147.639L212.569 157.301C211.927 159.16 210.399 160.865 207.987 162.414C205.596 163.964 202.741 165.181 199.42 166.066C196.122 166.974 192.824 167.428 189.526 167.428C186.604 167.428 183.992 167.04 181.69 166.266C179.41 165.491 177.65 164.318 176.41 162.746C174.263 160.046 173.19 156.592 173.19 152.387C173.19 149.066 173.787 145.801 174.983 142.592C176.2 139.36 177.484 137.102 178.834 135.818C180.45 134.291 182.199 133.018 184.08 132C185.984 130.982 187.954 130.218 189.991 129.709C192.027 129.2 194.119 128.945 196.266 128.945C199.077 128.945 201.744 129.399 204.268 130.307C206.813 131.192 209.038 132.487 210.942 134.191L192.713 155.939C194.329 155.939 195.856 155.607 197.295 154.943C198.756 154.257 200.095 153.294 201.313 152.055C202.53 150.793 203.615 149.321 204.567 147.639ZM195.369 139.902C194.285 139.349 193.178 139.072 192.049 139.072C190.854 139.072 189.692 139.316 188.563 139.803C187.456 140.29 186.67 140.865 186.205 141.529C184.833 143.3 184.147 145.248 184.147 147.373C184.147 148.148 184.224 148.889 184.379 149.598C184.534 150.306 184.8 151.28 185.176 152.52L195.369 139.902ZM178.303 115.963L196 106.168L203.604 117.855L182.121 121.939L178.303 115.963Z" fill="#FFCB08"/>
<path d="M244.802 127.916C250.535 126.101 254.796 125.193 257.585 125.193C259.799 125.193 261.703 125.647 263.296 126.555C265.266 127.684 267.391 129.609 269.671 132.332C271.951 135.055 273.368 137.578 273.921 139.902C275.095 144.617 275.681 148.734 275.681 152.254C275.681 154.113 275.559 156.072 275.316 158.131C275.072 160.167 274.696 162.79 274.187 166L260.308 166.83C260.352 165.723 260.375 164.13 260.375 162.049C260.375 153.372 259.179 145.99 256.789 139.902C256.346 138.818 255.826 137.965 255.228 137.346C254.63 136.726 254.099 136.416 253.634 136.416C253.147 136.416 252.904 136.759 252.904 137.445C252.904 137.844 252.948 138.187 253.037 138.475C253.192 138.829 253.347 139.305 253.501 139.902C254.697 144.706 255.294 148.823 255.294 152.254C255.294 153.936 255.184 155.707 254.962 157.566C254.741 159.404 254.354 162.215 253.8 166L239.921 166.83C239.966 165.723 239.988 164.13 239.988 162.049C239.988 153.35 238.781 145.967 236.369 139.902C236.081 139.194 235.86 138.452 235.705 137.678C235.55 136.881 235.439 136.482 235.373 136.482C235.284 136.482 235.029 137.003 234.609 138.043C234.188 139.083 233.735 140.157 233.248 141.264C232.916 142.038 232.639 142.924 232.417 143.92C232.218 144.916 232.063 146.034 231.953 147.273C231.864 148.513 231.82 149.974 231.82 151.656C231.82 155.065 232.019 159.393 232.417 164.639L216.115 166.531C215.849 164.583 215.606 162.646 215.384 160.721C215.163 158.795 214.986 157.013 214.853 155.375C214.742 153.715 214.687 151.933 214.687 150.029C214.687 149.21 214.731 148.026 214.82 146.477L214.222 127.119L227.271 125.459L229.164 127.65C232.661 126.521 235.516 125.957 237.73 125.957C240.187 125.957 242.544 126.61 244.802 127.916Z" fill="#FFCB08"/>
<path d="M309.509 130.041C311.08 130.882 312.353 132.022 313.327 133.461C314.323 134.878 315.042 136.482 315.485 138.275C315.95 140.046 316.182 141.895 316.182 143.82C316.182 145.414 316.05 146.952 315.784 148.436C315.54 149.919 315.197 151.28 314.755 152.52C314.312 153.759 313.792 154.811 313.194 155.674C311.8 157.755 310.305 159.548 308.712 161.053C307.118 162.558 305.491 163.775 303.831 164.705C302.171 165.613 300.522 166.277 298.884 166.697C297.268 167.14 295.663 167.361 294.069 167.361C292.188 167.361 290.395 167.062 288.69 166.465C287.008 165.889 285.569 165.126 284.374 164.174C282.404 162.536 280.865 160.333 279.759 157.566C278.652 154.777 278.098 151.833 278.098 148.734C278.098 143.4 279.637 139.094 282.714 135.818C285.348 133.007 288.07 130.893 290.882 129.477C293.693 128.038 296.57 127.318 299.514 127.318C301.241 127.318 302.901 127.54 304.495 127.982C306.089 128.403 307.76 129.089 309.509 130.041ZM307.55 135.619C307.173 137.301 306.354 138.785 305.092 140.068C303.853 141.352 302.635 141.994 301.44 141.994C300.842 141.994 300.311 141.839 299.846 141.529C299.182 140.998 298.85 140.068 298.85 138.74C298.85 137.722 299.182 136.715 299.846 135.719C300.533 134.723 301.606 133.937 303.067 133.361C301.606 133.361 300.19 133.638 298.817 134.191C297.467 134.745 296.305 135.464 295.331 136.35C294.357 137.213 293.571 138.198 292.973 139.305C292.398 140.389 292.11 141.485 292.11 142.592C292.11 144.65 293.062 146.288 294.966 147.506C296.736 148.635 298.419 149.199 300.012 149.199C301.584 149.199 302.979 148.679 304.196 147.639C305.413 146.576 306.343 145.226 306.985 143.588C307.627 141.928 307.948 140.29 307.948 138.674C307.948 137.567 307.815 136.549 307.55 135.619Z" fill="#FFCB08"/>
<path d="M334.603 127.65C337.06 126.831 339.174 126.212 340.945 125.791C342.716 125.348 344.409 125.127 346.025 125.127C348.195 125.127 350.098 125.603 351.736 126.555C353.706 127.684 355.831 129.609 358.111 132.332C360.391 135.055 361.808 137.578 362.361 139.902C363.534 144.617 364.121 148.734 364.121 152.254C364.121 154.113 363.999 156.072 363.756 158.131C363.512 160.167 363.136 162.79 362.627 166L348.748 166.83C348.792 165.723 348.814 164.13 348.814 162.049C348.814 153.372 347.619 145.99 345.228 139.902C344.299 137.622 343.391 136.482 342.506 136.482C341.355 136.482 340.082 138.076 338.687 141.264C338.355 142.038 338.079 142.924 337.857 143.92C337.658 144.916 337.503 146.034 337.392 147.273C337.304 148.513 337.26 149.974 337.26 151.656C337.26 155.065 337.459 159.393 337.857 164.639L321.555 166.531C321.289 164.583 321.045 162.646 320.824 160.721C320.603 158.795 320.426 157.013 320.293 155.375C320.182 153.715 320.127 151.933 320.127 150.029C320.127 149.21 320.171 148.026 320.26 146.477L319.662 127.119L332.711 125.459L334.603 127.65Z" fill="#FFCB08"/>
<path d="M378.292 136.549C380.417 136.482 382.586 135.852 384.8 134.656C387.036 133.461 389.105 131.989 391.009 130.24C392.913 128.469 394.451 126.743 395.624 125.061C396.819 123.378 397.417 122.128 397.417 121.309C397.417 120.888 397.262 120.645 396.952 120.578C396.399 120.445 395.779 120.379 395.093 120.379C393.898 120.379 392.082 120.622 389.648 121.109C387.235 121.596 385.763 121.873 385.232 121.939C383.859 122.094 382.077 122.648 379.886 123.6C377.694 124.529 375.68 125.481 373.843 126.455C372.028 127.407 371.021 127.982 370.821 128.182C370.755 128.182 370.534 127.706 370.157 126.754C369.803 125.802 369.316 124.485 368.696 122.803C368.099 121.098 367.424 119.217 366.671 117.158C365.896 115.077 365.376 113.771 365.11 113.24C367.789 112.355 370.301 111.536 372.648 110.783C375.016 110.031 377.506 109.322 380.118 108.658C382.73 107.972 385.22 107.43 387.589 107.031C389.98 106.633 392.326 106.434 394.628 106.434C396.421 106.434 398.07 106.577 399.575 106.865C401.08 107.131 402.497 107.585 403.825 108.227C405.176 108.868 406.371 109.732 407.411 110.816C408.474 111.879 409.337 113.141 410.001 114.602C410.222 115.044 410.333 115.631 410.333 116.361C410.333 119.084 408.573 122.681 405.054 127.152C401.534 131.602 397.439 135.752 392.769 139.604C388.098 143.433 384.435 145.746 381.778 146.543L378.292 136.549ZM386.858 152.686C388.408 152.686 389.758 152.951 390.909 153.482C392.082 153.992 393.023 154.6 393.732 155.309C394.44 156.017 394.938 156.681 395.226 157.301C395.513 157.876 395.657 158.529 395.657 159.26C395.657 160.344 395.425 161.451 394.96 162.58C394.495 163.687 393.931 164.639 393.267 165.436C392.603 166.232 391.972 166.697 391.374 166.83C390.179 167.007 389.316 167.096 388.784 167.096C386.615 167.096 384.866 166.531 383.538 165.402C382.21 164.273 381.413 162.702 381.148 160.688C381.148 158.806 381.601 157.046 382.509 155.408C383.439 153.77 384.888 152.863 386.858 152.686Z" fill="#FFCB08"/>
<path d="M53.4526 74.2539L37.1499 75.3496L32.8003 68.2773L28.9819 78.0723L18.3569 78.3379L5.87256 20.1328L25.1636 22.0254L28.7163 41.8809L32.5015 34.543L37.6812 43.8066L40.4038 13.0605L59.1636 11.6992L53.4526 74.2539Z" stroke="#3664AE" stroke-width="8" mask="url(#path-1-outside-1_1267_8)"/>
<path d="M80.1413 32.6504C84.1036 31.3444 87.5235 30.6914 90.4011 30.6914C93.0352 30.6914 95.3262 31.2559 97.2741 32.3848C98.4473 33.071 99.7644 34.1113 101.225 35.5059C102.686 36.8783 103.97 38.3945 105.077 40.0547C106.206 41.7148 106.958 43.3307 107.335 44.9023C108.508 49.6172 109.094 53.7344 109.094 57.2539C109.094 59.1133 108.973 61.0723 108.729 63.1309C108.486 65.1673 108.109 67.7904 107.6 71L93.7214 71.8301C93.7657 70.7233 93.7878 69.1296 93.7878 67.0488C93.7878 58.3717 92.5925 50.9896 90.2019 44.9023C89.2722 42.6224 88.3646 41.4824 87.4792 41.4824C86.3282 41.4824 85.0554 43.0762 83.6608 46.2637C83.3288 47.0384 83.0521 47.9238 82.8308 48.9199C82.6315 49.916 82.4766 51.0339 82.3659 52.2734C82.2774 53.513 82.2331 54.974 82.2331 56.6562C82.2331 60.0651 82.4323 64.3926 82.8308 69.6387L66.528 71.5312C66.3509 70.2474 66.2403 68.7422 66.196 67.0156C66.1296 65.2891 66.0853 63.5072 66.0632 61.6699C66.0189 59.8327 65.9414 58.1615 65.8308 56.6562C65.7422 55.1289 65.543 53.4023 65.2331 51.4766L64.3366 8.17969L77.9499 6.51953L80.1413 32.6504Z" stroke="#3664AE" stroke-width="8" mask="url(#path-1-outside-1_1267_8)"/>
<path d="M142.922 35.041C144.493 35.8822 145.766 37.0221 146.74 38.4609C147.736 39.8776 148.456 41.4824 148.898 43.2754C149.363 45.0462 149.596 46.8945 149.596 48.8203C149.596 50.4141 149.463 51.9525 149.197 53.4355C148.954 54.9186 148.611 56.2799 148.168 57.5195C147.725 58.7591 147.205 59.8105 146.607 60.6738C145.213 62.7546 143.719 64.5475 142.125 66.0527C140.531 67.5579 138.904 68.7754 137.244 69.7051C135.584 70.6126 133.935 71.2767 132.297 71.6973C130.681 72.14 129.076 72.3613 127.482 72.3613C125.601 72.3613 123.808 72.0625 122.103 71.4648C120.421 70.8893 118.982 70.1257 117.787 69.1738C115.817 67.5358 114.279 65.3333 113.172 62.5664C112.065 59.7773 111.512 56.8333 111.512 53.7344C111.512 48.3997 113.05 44.0944 116.127 40.8184C118.761 38.0072 121.484 35.8932 124.295 34.4766C127.106 33.0378 129.984 32.3184 132.928 32.3184C134.654 32.3184 136.314 32.5397 137.908 32.9824C139.502 33.403 141.173 34.0892 142.922 35.041ZM140.963 40.6191C140.586 42.3014 139.767 43.7845 138.506 45.0684C137.266 46.3522 136.049 46.9941 134.853 46.9941C134.256 46.9941 133.725 46.8392 133.26 46.5293C132.596 45.998 132.264 45.0684 132.264 43.7402C132.264 42.722 132.596 41.7148 133.26 40.7188C133.946 39.7227 135.019 38.9368 136.48 38.3613C135.019 38.3613 133.603 38.638 132.23 39.1914C130.88 39.7448 129.718 40.4642 128.744 41.3496C127.77 42.2129 126.984 43.1979 126.387 44.3047C125.811 45.3893 125.523 46.485 125.523 47.5918C125.523 49.6504 126.475 51.2884 128.379 52.5059C130.15 53.6348 131.832 54.1992 133.426 54.1992C134.997 54.1992 136.392 53.679 137.609 52.6387C138.827 51.5762 139.756 50.2259 140.398 48.5879C141.04 46.9277 141.361 45.2897 141.361 43.6738C141.361 42.5671 141.228 41.5488 140.963 40.6191Z" stroke="#3664AE" stroke-width="8" mask="url(#path-1-outside-1_1267_8)"/>
<path d="M166.722 33.8125L159.65 32.8496L154.271 11.6328L168.083 13.5918L166.722 33.8125Z" stroke="#3664AE" stroke-width="8" mask="url(#path-1-outside-1_1267_8)"/>
<path d="M211.274 45.6992C210.61 45.4557 208.994 44.9466 206.426 44.1719C203.88 43.375 201.601 42.6888 199.586 42.1133C197.594 41.5378 195.392 40.9844 192.979 40.4531C190.566 39.9219 188.685 39.6562 187.334 39.6562C186.626 39.6562 186.084 39.7669 185.707 39.9883C184.623 40.8073 184.08 41.5599 184.08 42.2461C184.08 43.3307 185.165 44.2715 187.334 45.0684C189.504 45.8431 192.138 46.4186 195.237 46.7949C199.487 47.2598 202.918 48.2559 205.53 49.7832C208.164 51.3105 210.067 53.0924 211.241 55.1289C212.414 57.1432 213 59.2129 213 61.3379C213 62.8431 212.701 64.2487 212.104 65.5547C209.536 71 204.611 73.7227 197.328 73.7227C195.336 73.7227 193.089 73.5013 190.588 73.0586C188.087 72.638 185.685 72.1068 183.383 71.4648C181.103 70.8451 178.668 70.1146 176.078 69.2734C173.489 68.4323 171.076 67.6465 168.84 66.916C169.416 65.7207 170.146 64.2819 171.032 62.5996C171.917 60.8952 172.78 59.235 173.621 57.6191C174.44 56.0033 174.85 55.1178 174.85 54.9629C175.492 55.5605 176.289 56.0475 177.241 56.4238C178.214 56.778 179.62 57.2096 181.457 57.7188C183.317 58.2057 184.733 58.6484 185.707 59.0469C187.854 59.8438 190.079 60.2422 192.381 60.2422C193.798 60.2422 195.148 60.0983 196.432 59.8105C197.716 59.5007 198.402 59.2461 198.491 59.0469C198.491 58.4714 197.505 57.9069 195.535 57.3535C193.588 56.778 191.407 56.3353 188.994 56.0254C186.25 55.7155 183.483 55.0514 180.694 54.0332C177.927 52.9928 175.569 51.4766 173.621 49.4844C171.673 47.4922 170.7 45.0352 170.7 42.1133C170.7 39.8776 171.264 37.5423 172.393 35.1074C173.632 32.3848 175.492 30.4147 177.971 29.1973C180.45 27.9577 183.416 27.3379 186.869 27.3379C190.854 27.3379 194.96 27.9023 199.188 29.0312C203.416 30.1602 209.171 31.9089 216.453 34.2773C216.298 34.6094 215.69 36.026 214.627 38.5273C213.565 41.0065 212.768 42.8216 212.237 43.9727C211.705 45.1237 211.384 45.6992 211.274 45.6992Z" stroke="#3664AE" stroke-width="8" mask="url(#path-1-outside-1_1267_8)"/>
<path d="M265.249 12.7949L279.759 6.25391L279.526 28.5664L290.35 28.832V41.6152L279.128 41.748C278.729 44.8913 278.53 47.8464 278.53 50.6133C278.53 52.9154 278.663 54.819 278.928 56.3242C279.15 57.5638 279.703 58.5156 280.589 59.1797C281.474 59.8438 282.503 60.1758 283.676 60.1758C284.982 60.1758 286.122 59.7884 287.096 59.0137C288.092 58.2389 288.591 57.1764 288.591 55.8262C288.591 55.627 288.546 55.2396 288.458 54.6641L299.315 47.5918C299.78 48.4551 300.356 49.9049 301.042 51.9414C301.75 53.9779 302.104 56.2025 302.104 58.6152C302.104 61.515 301.341 64.138 299.813 66.4844C298.286 68.8307 295.674 70.6126 291.977 71.8301C289.387 72.6712 286.941 73.0918 284.639 73.0918C281.164 73.0918 278.098 72.3281 275.442 70.8008C272.808 69.2734 270.617 67.4362 268.868 65.2891C268.049 64.293 267.407 62.6439 266.942 60.3418C266.499 58.0397 266.212 55.638 266.079 53.1367C265.946 50.6354 265.88 48.1341 265.88 45.6328V41.8809L256.085 42.1797L253.628 27.2051L266.012 28.0352L265.249 12.7949Z" stroke="#3664AE" stroke-width="8" mask="url(#path-1-outside-1_1267_8)"/>
<path d="M323.281 32.6504C327.243 31.3444 330.663 30.6914 333.541 30.6914C336.175 30.6914 338.466 31.2559 340.414 32.3848C341.587 33.071 342.904 34.1113 344.365 35.5059C345.826 36.8783 347.11 38.3945 348.217 40.0547C349.346 41.7148 350.098 43.3307 350.475 44.9023C351.648 49.6172 352.234 53.7344 352.234 57.2539C352.234 59.1133 352.113 61.0723 351.869 63.1309C351.626 65.1673 351.249 67.7904 350.74 71L336.861 71.8301C336.906 70.7233 336.928 69.1296 336.928 67.0488C336.928 58.3717 335.732 50.9896 333.342 44.9023C332.412 42.6224 331.504 41.4824 330.619 41.4824C329.468 41.4824 328.195 43.0762 326.801 46.2637C326.469 47.0384 326.192 47.9238 325.971 48.9199C325.771 49.916 325.616 51.0339 325.506 52.2734C325.417 53.513 325.373 54.974 325.373 56.6562C325.373 60.0651 325.572 64.3926 325.971 69.6387L309.668 71.5312C309.491 70.2474 309.38 68.7422 309.336 67.0156C309.269 65.2891 309.225 63.5072 309.203 61.6699C309.159 59.8327 309.081 58.1615 308.971 56.6562C308.882 55.1289 308.683 53.4023 308.373 51.4766L307.476 8.17969L321.09 6.51953L323.281 32.6504Z" stroke="#3664AE" stroke-width="8" mask="url(#path-1-outside-1_1267_8)"/>
<path d="M377.993 38.4941C376.776 38.6491 375.569 39.0365 374.374 39.6562C373.201 40.276 372.194 41.0065 371.353 41.8477C370.511 42.6888 369.847 43.6185 369.36 44.6367C368.896 45.6328 368.663 46.6178 368.663 47.5918C368.663 49.6061 369.615 51.2441 371.519 52.5059C373.201 53.6348 374.905 54.1992 376.632 54.1992C376.964 54.1992 377.418 54.1549 377.993 54.0664V46.9941C377.396 46.9941 376.864 46.8392 376.4 46.5293C375.735 45.998 375.403 44.9798 375.403 43.4746C375.403 41.3053 376.267 39.6452 377.993 38.4941ZM378.259 32.6504L392.138 26.4082L392.403 44.9688C392.58 46.1198 392.669 47.4258 392.669 48.8867C392.669 50.1706 392.625 51.1224 392.536 51.7422L392.935 72.0957L377.993 72.8926V70.8672C375.558 71.8633 373.101 72.3613 370.622 72.3613C368.719 72.3613 366.926 72.0736 365.243 71.498C363.583 70.9225 362.144 70.1478 360.927 69.1738C358.957 67.5358 357.418 65.3333 356.312 62.5664C355.205 59.7773 354.651 56.8333 354.651 53.7344C354.651 48.3997 356.19 44.0944 359.267 40.8184C361.923 38.0293 364.657 35.9154 367.468 34.4766C370.301 33.0378 373.19 32.3184 376.134 32.3184C376.953 32.3184 377.573 32.3405 377.993 32.3848L378.259 32.6504Z" stroke="#3664AE" stroke-width="8" mask="url(#path-1-outside-1_1267_8)"/>
<path d="M402.989 12.7949L417.498 6.25391L417.266 28.5664L428.09 28.832V41.6152L416.867 41.748C416.469 44.8913 416.27 47.8464 416.27 50.6133C416.27 52.9154 416.403 54.819 416.668 56.3242C416.89 57.5638 417.443 58.5156 418.328 59.1797C419.214 59.8438 420.243 60.1758 421.416 60.1758C422.722 60.1758 423.862 59.7884 424.836 59.0137C425.832 58.2389 426.33 57.1764 426.33 55.8262C426.33 55.627 426.286 55.2396 426.198 54.6641L437.055 47.5918C437.52 48.4551 438.095 49.9049 438.782 51.9414C439.49 53.9779 439.844 56.2025 439.844 58.6152C439.844 61.515 439.08 64.138 437.553 66.4844C436.026 68.8307 433.414 70.6126 429.717 71.8301C427.127 72.6712 424.681 73.0918 422.379 73.0918C418.904 73.0918 415.838 72.3281 413.182 70.8008C410.548 69.2734 408.356 67.4362 406.608 65.2891C405.789 64.293 405.147 62.6439 404.682 60.3418C404.239 58.0397 403.951 55.638 403.819 53.1367C403.686 50.6354 403.619 48.1341 403.619 45.6328V41.8809L393.825 42.1797L391.367 27.2051L403.752 28.0352L402.989 12.7949Z" stroke="#3664AE" stroke-width="8" mask="url(#path-1-outside-1_1267_8)"/>
<path d="M42.0573 113.24C44.7357 112.355 47.2481 111.536 49.5944 110.783C51.9629 110.031 54.4532 109.322 57.0651 108.658C59.6771 107.972 62.1784 107.43 64.569 107.031C66.4063 106.721 68.2878 106.566 70.2136 106.566C73.4232 106.566 75.5261 106.655 76.5222 106.832C78.0274 107.12 79.444 107.585 80.7722 108.227C82.1224 108.868 83.3177 109.732 84.3581 110.816C85.4206 111.879 86.2839 113.141 86.948 114.602C87.2136 115.199 87.3464 115.83 87.3464 116.494C87.3464 118.973 85.9851 122.028 83.2624 125.658C80.5619 129.288 77.8392 132.454 75.0944 135.154C72.3718 137.855 70.3353 139.792 68.9851 140.965L74.9616 161.916L66.2624 168.191L51.0222 124.662C50.9779 124.662 50.7676 124.872 50.3913 125.293C50.015 125.714 49.517 126.267 48.8972 126.953C48.2995 127.617 47.9232 128.027 47.7683 128.182C47.7019 128.182 47.4805 127.706 47.1042 126.754C46.75 125.802 46.2631 124.485 45.6433 122.803C45.0456 121.098 44.3705 119.217 43.6179 117.158C42.8431 115.077 42.323 113.771 42.0573 113.24ZM63.5397 122.471L66.2624 132.266C67.6348 130.871 69.3392 128.967 71.3757 126.555C73.4121 124.142 74.4304 122.393 74.4304 121.309C74.4304 120.888 74.2533 120.645 73.8991 120.578C72.903 120.357 71.918 120.246 70.944 120.246C68.0222 120.246 65.5541 120.988 63.5397 122.471Z" stroke="#3664AE" stroke-width="8" mask="url(#path-1-outside-1_1267_8)"/>
<path d="M119.082 130.041C120.654 130.882 121.926 132.022 122.9 133.461C123.896 134.878 124.616 136.482 125.059 138.275C125.523 140.046 125.756 141.895 125.756 143.82C125.756 145.414 125.623 146.952 125.357 148.436C125.114 149.919 124.771 151.28 124.328 152.52C123.885 153.759 123.365 154.811 122.767 155.674C121.373 157.755 119.879 159.548 118.285 161.053C116.691 162.558 115.064 163.775 113.404 164.705C111.744 165.613 110.095 166.277 108.457 166.697C106.841 167.14 105.236 167.361 103.642 167.361C101.761 167.361 99.968 167.062 98.2636 166.465C96.5813 165.889 95.1425 165.126 93.9472 164.174C91.9771 162.536 90.4387 160.333 89.3319 157.566C88.2252 154.777 87.6718 151.833 87.6718 148.734C87.6718 143.4 89.2102 139.094 92.287 135.818C94.9211 133.007 97.6438 130.893 100.455 129.477C103.266 128.038 106.144 127.318 109.088 127.318C110.814 127.318 112.475 127.54 114.068 127.982C115.662 128.403 117.333 129.089 119.082 130.041ZM117.123 135.619C116.747 137.301 115.928 138.785 114.666 140.068C113.426 141.352 112.209 141.994 111.014 141.994C110.416 141.994 109.885 141.839 109.42 141.529C108.756 140.998 108.424 140.068 108.424 138.74C108.424 137.722 108.756 136.715 109.42 135.719C110.106 134.723 111.18 133.937 112.641 133.361C111.18 133.361 109.763 133.638 108.391 134.191C107.04 134.745 105.878 135.464 104.904 136.35C103.93 137.213 103.144 138.198 102.547 139.305C101.971 140.389 101.684 141.485 101.684 142.592C101.684 144.65 102.635 146.288 104.539 147.506C106.31 148.635 107.992 149.199 109.586 149.199C111.157 149.199 112.552 148.679 113.769 147.639C114.987 146.576 115.917 145.226 116.559 143.588C117.2 141.928 117.521 140.29 117.521 138.674C117.521 137.567 117.389 136.549 117.123 135.619Z" stroke="#3664AE" stroke-width="8" mask="url(#path-1-outside-1_1267_8)"/>
<path d="M127.044 110.518L143.911 103.445L146.368 141.795L160.247 134.191L174.657 136.35L155.864 150.76L173.562 164.107L174.358 177.422L148.261 158.662L149.091 174.965L133.286 175.264L130.298 117.59L125.417 118.686L127.044 110.518Z" stroke="#3664AE" stroke-width="8" mask="url(#path-1-outside-1_1267_8)"/>
<path d="M204.567 147.639L212.569 157.301C211.927 159.16 210.399 160.865 207.987 162.414C205.596 163.964 202.741 165.181 199.42 166.066C196.122 166.974 192.824 167.428 189.526 167.428C186.604 167.428 183.992 167.04 181.69 166.266C179.41 165.491 177.65 164.318 176.41 162.746C174.263 160.046 173.19 156.592 173.19 152.387C173.19 149.066 173.787 145.801 174.983 142.592C176.2 139.36 177.484 137.102 178.834 135.818C180.45 134.291 182.199 133.018 184.08 132C185.984 130.982 187.954 130.218 189.991 129.709C192.027 129.2 194.119 128.945 196.266 128.945C199.077 128.945 201.744 129.399 204.268 130.307C206.813 131.192 209.038 132.487 210.942 134.191L192.713 155.939C194.329 155.939 195.856 155.607 197.295 154.943C198.756 154.257 200.095 153.294 201.313 152.055C202.53 150.793 203.615 149.321 204.567 147.639ZM195.369 139.902C194.285 139.349 193.178 139.072 192.049 139.072C190.854 139.072 189.692 139.316 188.563 139.803C187.456 140.29 186.67 140.865 186.205 141.529C184.833 143.3 184.147 145.248 184.147 147.373C184.147 148.148 184.224 148.889 184.379 149.598C184.534 150.306 184.8 151.28 185.176 152.52L195.369 139.902ZM178.303 115.963L196 106.168L203.604 117.855L182.121 121.939L178.303 115.963Z" stroke="#3664AE" stroke-width="8" mask="url(#path-1-outside-1_1267_8)"/>
<path d="M244.802 127.916C250.535 126.101 254.796 125.193 257.585 125.193C259.799 125.193 261.703 125.647 263.296 126.555C265.266 127.684 267.391 129.609 269.671 132.332C271.951 135.055 273.368 137.578 273.921 139.902C275.095 144.617 275.681 148.734 275.681 152.254C275.681 154.113 275.559 156.072 275.316 158.131C275.072 160.167 274.696 162.79 274.187 166L260.308 166.83C260.352 165.723 260.375 164.13 260.375 162.049C260.375 153.372 259.179 145.99 256.789 139.902C256.346 138.818 255.826 137.965 255.228 137.346C254.63 136.726 254.099 136.416 253.634 136.416C253.147 136.416 252.904 136.759 252.904 137.445C252.904 137.844 252.948 138.187 253.037 138.475C253.192 138.829 253.347 139.305 253.501 139.902C254.697 144.706 255.294 148.823 255.294 152.254C255.294 153.936 255.184 155.707 254.962 157.566C254.741 159.404 254.354 162.215 253.8 166L239.921 166.83C239.966 165.723 239.988 164.13 239.988 162.049C239.988 153.35 238.781 145.967 236.369 139.902C236.081 139.194 235.86 138.452 235.705 137.678C235.55 136.881 235.439 136.482 235.373 136.482C235.284 136.482 235.029 137.003 234.609 138.043C234.188 139.083 233.735 140.157 233.248 141.264C232.916 142.038 232.639 142.924 232.417 143.92C232.218 144.916 232.063 146.034 231.953 147.273C231.864 148.513 231.82 149.974 231.82 151.656C231.82 155.065 232.019 159.393 232.417 164.639L216.115 166.531C215.849 164.583 215.606 162.646 215.384 160.721C215.163 158.795 214.986 157.013 214.853 155.375C214.742 153.715 214.687 151.933 214.687 150.029C214.687 149.21 214.731 148.026 214.82 146.477L214.222 127.119L227.271 125.459L229.164 127.65C232.661 126.521 235.516 125.957 237.73 125.957C240.187 125.957 242.544 126.61 244.802 127.916Z" stroke="#3664AE" stroke-width="8" mask="url(#path-1-outside-1_1267_8)"/>
<path d="M309.509 130.041C311.08 130.882 312.353 132.022 313.327 133.461C314.323 134.878 315.042 136.482 315.485 138.275C315.95 140.046 316.182 141.895 316.182 143.82C316.182 145.414 316.05 146.952 315.784 148.436C315.54 149.919 315.197 151.28 314.755 152.52C314.312 153.759 313.792 154.811 313.194 155.674C311.8 157.755 310.305 159.548 308.712 161.053C307.118 162.558 305.491 163.775 303.831 164.705C302.171 165.613 300.522 166.277 298.884 166.697C297.268 167.14 295.663 167.361 294.069 167.361C292.188 167.361 290.395 167.062 288.69 166.465C287.008 165.889 285.569 165.126 284.374 164.174C282.404 162.536 280.865 160.333 279.759 157.566C278.652 154.777 278.098 151.833 278.098 148.734C278.098 143.4 279.637 139.094 282.714 135.818C285.348 133.007 288.07 130.893 290.882 129.477C293.693 128.038 296.57 127.318 299.514 127.318C301.241 127.318 302.901 127.54 304.495 127.982C306.089 128.403 307.76 129.089 309.509 130.041ZM307.55 135.619C307.173 137.301 306.354 138.785 305.092 140.068C303.853 141.352 302.635 141.994 301.44 141.994C300.842 141.994 300.311 141.839 299.846 141.529C299.182 140.998 298.85 140.068 298.85 138.74C298.85 137.722 299.182 136.715 299.846 135.719C300.533 134.723 301.606 133.937 303.067 133.361C301.606 133.361 300.19 133.638 298.817 134.191C297.467 134.745 296.305 135.464 295.331 136.35C294.357 137.213 293.571 138.198 292.973 139.305C292.398 140.389 292.11 141.485 292.11 142.592C292.11 144.65 293.062 146.288 294.966 147.506C296.736 148.635 298.419 149.199 300.012 149.199C301.584 149.199 302.979 148.679 304.196 147.639C305.413 146.576 306.343 145.226 306.985 143.588C307.627 141.928 307.948 140.29 307.948 138.674C307.948 137.567 307.815 136.549 307.55 135.619Z" stroke="#3664AE" stroke-width="8" mask="url(#path-1-outside-1_1267_8)"/>
<path d="M334.603 127.65C337.06 126.831 339.174 126.212 340.945 125.791C342.716 125.348 344.409 125.127 346.025 125.127C348.195 125.127 350.098 125.603 351.736 126.555C353.706 127.684 355.831 129.609 358.111 132.332C360.391 135.055 361.808 137.578 362.361 139.902C363.534 144.617 364.121 148.734 364.121 152.254C364.121 154.113 363.999 156.072 363.756 158.131C363.512 160.167 363.136 162.79 362.627 166L348.748 166.83C348.792 165.723 348.814 164.13 348.814 162.049C348.814 153.372 347.619 145.99 345.228 139.902C344.299 137.622 343.391 136.482 342.506 136.482C341.355 136.482 340.082 138.076 338.687 141.264C338.355 142.038 338.079 142.924 337.857 143.92C337.658 144.916 337.503 146.034 337.392 147.273C337.304 148.513 337.26 149.974 337.26 151.656C337.26 155.065 337.459 159.393 337.857 164.639L321.555 166.531C321.289 164.583 321.045 162.646 320.824 160.721C320.603 158.795 320.426 157.013 320.293 155.375C320.182 153.715 320.127 151.933 320.127 150.029C320.127 149.21 320.171 148.026 320.26 146.477L319.662 127.119L332.711 125.459L334.603 127.65Z" stroke="#3664AE" stroke-width="8" mask="url(#path-1-outside-1_1267_8)"/>
<path d="M378.292 136.549C380.417 136.482 382.586 135.852 384.8 134.656C387.036 133.461 389.105 131.989 391.009 130.24C392.913 128.469 394.451 126.743 395.624 125.061C396.819 123.378 397.417 122.128 397.417 121.309C397.417 120.888 397.262 120.645 396.952 120.578C396.399 120.445 395.779 120.379 395.093 120.379C393.898 120.379 392.082 120.622 389.648 121.109C387.235 121.596 385.763 121.873 385.232 121.939C383.859 122.094 382.077 122.648 379.886 123.6C377.694 124.529 375.68 125.481 373.843 126.455C372.028 127.407 371.021 127.982 370.821 128.182C370.755 128.182 370.534 127.706 370.157 126.754C369.803 125.802 369.316 124.485 368.696 122.803C368.099 121.098 367.424 119.217 366.671 117.158C365.896 115.077 365.376 113.771 365.11 113.24C367.789 112.355 370.301 111.536 372.648 110.783C375.016 110.031 377.506 109.322 380.118 108.658C382.73 107.972 385.22 107.43 387.589 107.031C389.98 106.633 392.326 106.434 394.628 106.434C396.421 106.434 398.07 106.577 399.575 106.865C401.08 107.131 402.497 107.585 403.825 108.227C405.176 108.868 406.371 109.732 407.411 110.816C408.474 111.879 409.337 113.141 410.001 114.602C410.222 115.044 410.333 115.631 410.333 116.361C410.333 119.084 408.573 122.681 405.054 127.152C401.534 131.602 397.439 135.752 392.769 139.604C388.098 143.433 384.435 145.746 381.778 146.543L378.292 136.549ZM386.858 152.686C388.408 152.686 389.758 152.951 390.909 153.482C392.082 153.992 393.023 154.6 393.732 155.309C394.44 156.017 394.938 156.681 395.226 157.301C395.513 157.876 395.657 158.529 395.657 159.26C395.657 160.344 395.425 161.451 394.96 162.58C394.495 163.687 393.931 164.639 393.267 165.436C392.603 166.232 391.972 166.697 391.374 166.83C390.179 167.007 389.316 167.096 388.784 167.096C386.615 167.096 384.866 166.531 383.538 165.402C382.21 164.273 381.413 162.702 381.148 160.688C381.148 158.806 381.601 157.046 382.509 155.408C383.439 153.77 384.888 152.863 386.858 152.686Z" stroke="#3664AE" stroke-width="8" mask="url(#path-1-outside-1_1267_8)"/>
</g>
<defs>
<filter id="filter0_d_1267_8" x="0.812988" y="0.0336914" width="447.031" height="189.546" filterUnits="userSpaceOnUse" color-interpolation-filters="sRGB">
<feFlood flood-opacity="0" result="BackgroundImageFix"/>
<feColorMatrix in="SourceAlpha" type="matrix" values="0 0 0 0 0 0 0 0 0 0 0 0 0 0 0 0 0 0 127 0" result="hardAlpha"/>
<feOffset dx="4" dy="4"/>
<feComposite in2="hardAlpha" operator="out"/>
<feColorMatrix type="matrix" values="0 0 0 0 0 0 0 0 0 0 0 0 0 0 0 0 0 0 0.3 0"/>
<feBlend mode="normal" in2="BackgroundImageFix" result="effect1_dropShadow_1267_8"/>
<feBlend mode="normal" in="SourceGraphic" in2="effect1_dropShadow_1267_8" result="shape"/>
</filter>
</defs>
</svg>
