<svg width="525" height="66" viewBox="0 0 525 66" fill="none" xmlns="http://www.w3.org/2000/svg"><g filter="url(#filter0_d)"><mask id="path-1-outside-1" maskUnits="userSpaceOnUse" x="0.0566406" y="-0.0380859" width="521" height="62" fill="black"><rect fill="white" x="0.0566406" y="-0.0380859" width="521" height="62"/><path d="M34.7446 47.9619L24.915 48.6226L22.2925 44.3584L19.9902 50.2642L13.584 50.4243L6.05664 15.3301L17.688 16.4712L19.8301 28.4429L22.1123 24.0186L25.2354 29.604L26.877 11.0659L38.188 10.2451L34.7446 47.9619Z"/><path d="M50.8363 22.8774C53.2253 22.09 55.2873 21.6963 57.0224 21.6963C58.6106 21.6963 59.9919 22.0366 61.1664 22.7173C61.8738 23.131 62.6679 23.7583 63.5487 24.5991C64.4296 25.4266 65.2037 26.3408 65.871 27.3418C66.5517 28.3428 67.0054 29.3171 67.2323 30.2646C67.9397 33.1074 68.2934 35.5898 68.2934 37.7119C68.2934 38.833 68.22 40.0142 68.0731 41.2554C67.9263 42.4832 67.6994 44.0648 67.3925 46L59.0243 46.5005C59.051 45.8332 59.0644 44.8722 59.0644 43.6177C59.0644 38.3859 58.3437 33.9349 56.9022 30.2646C56.3417 28.89 55.7945 28.2026 55.2606 28.2026C54.5666 28.2026 53.7992 29.1636 52.9584 31.0854C52.7582 31.5526 52.5914 32.0864 52.4579 32.687C52.3378 33.2876 52.2444 33.9616 52.1776 34.709C52.1242 35.4564 52.0976 36.3372 52.0976 37.3516C52.0976 39.4069 52.2177 42.0161 52.4579 45.1792L42.6283 46.3203C42.5215 45.5462 42.4548 44.6387 42.4281 43.5977C42.3881 42.5566 42.3614 41.4823 42.348 40.3745C42.3214 39.2668 42.2746 38.2591 42.2079 37.3516C42.1545 36.4307 42.0344 35.3896 41.8476 34.2285L41.307 8.12305L49.515 7.12207L50.8363 22.8774Z"/><path d="M88.6893 24.3188C89.6368 24.826 90.4043 25.5133 90.9915 26.3809C91.5921 27.235 92.0258 28.2026 92.2928 29.2837C92.573 30.3514 92.7132 31.4658 92.7132 32.627C92.7132 33.5879 92.6331 34.5155 92.4729 35.4097C92.3261 36.3039 92.1193 37.1247 91.8523 37.8721C91.5854 38.6195 91.2718 39.2534 90.9114 39.7739C90.0706 41.0285 89.1697 42.1095 88.2088 43.0171C87.2478 43.9246 86.2669 44.6587 85.2659 45.2192C84.2649 45.7664 83.2706 46.1668 82.283 46.4204C81.3087 46.6873 80.3411 46.8208 79.3802 46.8208C78.2457 46.8208 77.1647 46.6406 76.137 46.2803C75.1227 45.9333 74.2552 45.4728 73.5345 44.8989C72.3466 43.9113 71.4191 42.5833 70.7518 40.915C70.0844 39.2334 69.7508 37.4583 69.7508 35.5898C69.7508 32.3734 70.6783 29.7775 72.5335 27.8022C74.1217 26.1073 75.7633 24.8327 77.4583 23.9785C79.1533 23.111 80.8883 22.6772 82.6634 22.6772C83.7044 22.6772 84.7054 22.8107 85.6663 23.0776C86.6272 23.3312 87.6349 23.745 88.6893 24.3188ZM87.5081 27.6821C87.2812 28.6965 86.7874 29.5907 86.0267 30.3647C85.2793 31.1388 84.5452 31.5259 83.8245 31.5259C83.4642 31.5259 83.1438 31.4325 82.8636 31.2456C82.4632 30.9253 82.263 30.3647 82.263 29.564C82.263 28.95 82.4632 28.3428 82.8636 27.7422C83.2773 27.1416 83.9246 26.6678 84.8055 26.3208C83.9246 26.3208 83.0704 26.4876 82.243 26.8213C81.4288 27.1549 80.7282 27.5887 80.1409 28.1226C79.5537 28.6431 79.0799 29.237 78.7195 29.9043C78.3725 30.5583 78.199 31.2189 78.199 31.8862C78.199 33.1274 78.7729 34.1151 79.9207 34.8491C80.9884 35.5298 82.0027 35.8701 82.9637 35.8701C83.9113 35.8701 84.7521 35.5565 85.4861 34.9292C86.2202 34.2886 86.7807 33.4744 87.1678 32.4868C87.5548 31.4858 87.7483 30.4982 87.7483 29.5239C87.7483 28.8566 87.6683 28.2427 87.5081 27.6821Z"/><path d="M103.039 23.5781L98.7751 22.9976L95.5319 10.2051L103.86 11.3862L103.039 23.5781Z"/><path d="M129.901 30.7451C129.501 30.5983 128.527 30.2913 126.979 29.8242C125.444 29.3438 124.069 28.93 122.855 28.583C121.653 28.236 120.325 27.9023 118.871 27.582C117.416 27.2617 116.282 27.1016 115.467 27.1016C115.04 27.1016 114.713 27.1683 114.486 27.3018C113.832 27.7956 113.505 28.2493 113.505 28.6631C113.505 29.3171 114.159 29.8843 115.467 30.3647C116.775 30.8319 118.364 31.1789 120.232 31.4058C122.795 31.686 124.863 32.2866 126.438 33.2075C128.026 34.1284 129.174 35.2028 129.881 36.4307C130.589 37.6452 130.942 38.8931 130.942 40.1743C130.942 41.0819 130.762 41.9294 130.402 42.7168C128.854 46 125.884 47.6416 121.493 47.6416C120.292 47.6416 118.937 47.5081 117.429 47.2412C115.921 46.9876 114.473 46.6673 113.085 46.2803C111.71 45.9066 110.242 45.4661 108.681 44.959C107.119 44.4518 105.664 43.978 104.317 43.5376C104.664 42.8169 105.104 41.9494 105.638 40.9351C106.172 39.9074 106.692 38.9064 107.199 37.9321C107.693 36.9578 107.94 36.424 107.94 36.3306C108.327 36.6909 108.808 36.9845 109.381 37.2114C109.969 37.425 110.816 37.6852 111.924 37.9922C113.045 38.2858 113.899 38.5527 114.486 38.793C115.781 39.2734 117.122 39.5137 118.51 39.5137C119.365 39.5137 120.179 39.4269 120.953 39.2534C121.727 39.0666 122.141 38.9131 122.194 38.793C122.194 38.446 121.6 38.1056 120.412 37.772C119.238 37.425 117.923 37.158 116.468 36.9712C114.813 36.7843 113.145 36.384 111.463 35.77C109.795 35.1427 108.374 34.2285 107.199 33.0273C106.025 31.8262 105.438 30.3447 105.438 28.583C105.438 27.235 105.778 25.827 106.459 24.3589C107.206 22.7173 108.327 21.5295 109.822 20.7954C111.317 20.048 113.105 19.6743 115.187 19.6743C117.589 19.6743 120.065 20.0146 122.614 20.6953C125.164 21.376 128.634 22.4303 133.025 23.8584C132.931 24.0586 132.564 24.9128 131.923 26.4209C131.283 27.9157 130.802 29.0101 130.482 29.7041C130.162 30.3981 129.968 30.7451 129.901 30.7451Z"/><path d="M162.445 10.9058L171.194 6.96191L171.054 20.415L177.58 20.5752V28.2827L170.813 28.3628C170.573 30.258 170.453 32.0397 170.453 33.708C170.453 35.096 170.533 36.2438 170.693 37.1514C170.827 37.8988 171.16 38.4727 171.694 38.873C172.228 39.2734 172.849 39.4736 173.556 39.4736C174.343 39.4736 175.031 39.2401 175.618 38.7729C176.219 38.3058 176.519 37.6652 176.519 36.8511C176.519 36.731 176.492 36.4974 176.439 36.1504L182.985 31.8862C183.266 32.4067 183.613 33.2809 184.026 34.5088C184.453 35.7367 184.667 37.078 184.667 38.5327C184.667 40.2811 184.206 41.8626 183.286 43.2773C182.365 44.6921 180.79 45.7664 178.561 46.5005C176.999 47.0076 175.525 47.2612 174.137 47.2612C172.041 47.2612 170.193 46.8008 168.591 45.8799C167.003 44.959 165.682 43.8512 164.627 42.5566C164.134 41.9561 163.746 40.9618 163.466 39.5737C163.199 38.1857 163.026 36.7376 162.946 35.2295C162.866 33.7214 162.826 32.2132 162.826 30.7051V28.4429L156.92 28.623L155.438 19.5942L162.906 20.0947L162.445 10.9058Z"/><path d="M197.435 22.8774C199.824 22.09 201.886 21.6963 203.621 21.6963C205.21 21.6963 206.591 22.0366 207.765 22.7173C208.473 23.131 209.267 23.7583 210.148 24.5991C211.029 25.4266 211.803 26.3408 212.47 27.3418C213.151 28.3428 213.604 29.3171 213.831 30.2646C214.539 33.1074 214.892 35.5898 214.892 37.7119C214.892 38.833 214.819 40.0142 214.672 41.2554C214.525 42.4832 214.298 44.0648 213.992 46L205.623 46.5005C205.65 45.8332 205.663 44.8722 205.663 43.6177C205.663 38.3859 204.943 33.9349 203.501 30.2646C202.941 28.89 202.394 28.2026 201.86 28.2026C201.166 28.2026 200.398 29.1636 199.557 31.0854C199.357 31.5526 199.19 32.0864 199.057 32.687C198.937 33.2876 198.843 33.9616 198.777 34.709C198.723 35.4564 198.697 36.3372 198.697 37.3516C198.697 39.4069 198.817 42.0161 199.057 45.1792L189.227 46.3203C189.121 45.5462 189.054 44.6387 189.027 43.5977C188.987 42.5566 188.96 41.4823 188.947 40.3745C188.92 39.2668 188.874 38.2591 188.807 37.3516C188.754 36.4307 188.633 35.3896 188.447 34.2285L187.906 8.12305L196.114 7.12207L197.435 22.8774Z"/><path d="M230.424 26.4009C229.689 26.4943 228.962 26.7279 228.241 27.1016C227.534 27.4753 226.927 27.9157 226.42 28.4229C225.912 28.93 225.512 29.4906 225.218 30.1045C224.938 30.7051 224.798 31.299 224.798 31.8862C224.798 33.1007 225.372 34.0884 226.52 34.8491C227.534 35.5298 228.562 35.8701 229.603 35.8701C229.803 35.8701 230.077 35.8434 230.424 35.79V31.5259C230.063 31.5259 229.743 31.4325 229.463 31.2456C229.062 30.9253 228.862 30.3114 228.862 29.4038C228.862 28.0959 229.383 27.0949 230.424 26.4009ZM230.584 22.8774L238.952 19.1138L239.112 30.3047C239.219 30.9987 239.272 31.7861 239.272 32.667C239.272 33.4411 239.245 34.015 239.192 34.3887L239.432 46.6606L230.424 47.1411V45.9199C228.955 46.5205 227.474 46.8208 225.979 46.8208C224.831 46.8208 223.75 46.6473 222.736 46.3003C221.735 45.9533 220.868 45.4862 220.133 44.8989C218.946 43.9113 218.018 42.5833 217.351 40.915C216.683 39.2334 216.35 37.4583 216.35 35.5898C216.35 32.3734 217.277 29.7775 219.133 27.8022C220.734 26.1206 222.382 24.846 224.077 23.9785C225.786 23.111 227.527 22.6772 229.302 22.6772C229.796 22.6772 230.17 22.6906 230.424 22.7173L230.584 22.8774Z"/><path d="M245.494 10.9058L254.243 6.96191L254.103 20.415L260.629 20.5752V28.2827L253.862 28.3628C253.622 30.258 253.502 32.0397 253.502 33.708C253.502 35.096 253.582 36.2438 253.742 37.1514C253.876 37.8988 254.209 38.4727 254.743 38.873C255.277 39.2734 255.898 39.4736 256.605 39.4736C257.393 39.4736 258.08 39.2401 258.667 38.7729C259.268 38.3058 259.568 37.6652 259.568 36.8511C259.568 36.731 259.541 36.4974 259.488 36.1504L266.034 31.8862C266.315 32.4067 266.662 33.2809 267.075 34.5088C267.502 35.7367 267.716 37.078 267.716 38.5327C267.716 40.2811 267.255 41.8626 266.335 43.2773C265.414 44.6921 263.839 45.7664 261.61 46.5005C260.048 47.0076 258.574 47.2612 257.186 47.2612C255.09 47.2612 253.242 46.8008 251.64 45.8799C250.052 44.959 248.731 43.8512 247.676 42.5566C247.183 41.9561 246.796 40.9618 246.515 39.5737C246.248 38.1857 246.075 36.7376 245.995 35.2295C245.915 33.7214 245.875 32.2132 245.875 30.7051V28.4429L239.969 28.623L238.487 19.5942L245.955 20.0947L245.494 10.9058Z"/><path d="M294.414 14.189C296.029 13.6551 297.544 13.1613 298.958 12.7075C300.386 12.2537 301.888 11.8267 303.463 11.4263C305.038 11.0125 306.546 10.6855 307.987 10.4453C309.095 10.2585 310.229 10.165 311.391 10.165C313.326 10.165 314.594 10.2184 315.194 10.3252C316.102 10.4987 316.956 10.779 317.757 11.166C318.571 11.5531 319.292 12.0736 319.919 12.7275C320.559 13.3682 321.08 14.1289 321.48 15.0098C321.641 15.3701 321.721 15.7505 321.721 16.1509C321.721 17.6457 320.9 19.4875 319.258 21.6763C317.63 23.8651 315.988 25.7736 314.333 27.4019C312.692 29.0301 311.464 30.1979 310.65 30.9053L314.253 43.5376L309.008 47.3213L299.819 21.0757C299.793 21.0757 299.666 21.2025 299.439 21.4561C299.212 21.7096 298.912 22.0433 298.538 22.457C298.178 22.8574 297.951 23.1043 297.857 23.1978C297.817 23.1978 297.684 22.9108 297.457 22.3369C297.243 21.763 296.95 20.9689 296.576 19.9546C296.216 18.9269 295.809 17.7925 295.355 16.5513C294.888 15.2967 294.574 14.5093 294.414 14.189ZM307.367 19.7544L309.008 25.6602C309.836 24.8193 310.863 23.6715 312.091 22.2168C313.319 20.762 313.933 19.7077 313.933 19.0537C313.933 18.8001 313.826 18.6533 313.613 18.6133C313.012 18.4798 312.418 18.4131 311.831 18.4131C310.069 18.4131 308.581 18.8602 307.367 19.7544Z"/><path d="M340.855 24.3188C341.803 24.826 342.57 25.5133 343.158 26.3809C343.758 27.235 344.192 28.2026 344.459 29.2837C344.739 30.3514 344.879 31.4658 344.879 32.627C344.879 33.5879 344.799 34.5155 344.639 35.4097C344.492 36.3039 344.285 37.1247 344.018 37.8721C343.751 38.6195 343.438 39.2534 343.077 39.7739C342.237 41.0285 341.336 42.1095 340.375 43.0171C339.414 43.9246 338.433 44.6587 337.432 45.2192C336.431 45.7664 335.437 46.1668 334.449 46.4204C333.475 46.6873 332.507 46.8208 331.546 46.8208C330.412 46.8208 329.331 46.6406 328.303 46.2803C327.289 45.9333 326.421 45.4728 325.701 44.8989C324.513 43.9113 323.585 42.5833 322.918 40.915C322.25 39.2334 321.917 37.4583 321.917 35.5898C321.917 32.3734 322.844 29.7775 324.7 27.8022C326.288 26.1073 327.929 24.8327 329.624 23.9785C331.319 23.111 333.054 22.6772 334.829 22.6772C335.87 22.6772 336.871 22.8107 337.832 23.0776C338.793 23.3312 339.801 23.745 340.855 24.3188ZM339.674 27.6821C339.447 28.6965 338.953 29.5907 338.193 30.3647C337.445 31.1388 336.711 31.5259 335.991 31.5259C335.63 31.5259 335.31 31.4325 335.03 31.2456C334.629 30.9253 334.429 30.3647 334.429 29.564C334.429 28.95 334.629 28.3428 335.03 27.7422C335.443 27.1416 336.091 26.6678 336.971 26.3208C336.091 26.3208 335.236 26.4876 334.409 26.8213C333.595 27.1549 332.894 27.5887 332.307 28.1226C331.72 28.6431 331.246 29.237 330.886 29.9043C330.539 30.5583 330.365 31.2189 330.365 31.8862C330.365 33.1274 330.939 34.1151 332.087 34.8491C333.154 35.5298 334.169 35.8701 335.13 35.8701C336.077 35.8701 336.918 35.5565 337.652 34.9292C338.386 34.2886 338.947 33.4744 339.334 32.4868C339.721 31.4858 339.914 30.4982 339.914 29.5239C339.914 28.8566 339.834 28.2427 339.674 27.6821Z"/><path d="M345.656 12.5474L355.826 8.2832L357.307 31.4058L365.675 26.8213L374.364 28.1226L363.033 36.811L373.703 44.8589L374.184 52.8867L358.448 41.5757L358.949 51.4053L349.42 51.5854L347.618 16.8115L344.675 17.4722L345.656 12.5474Z"/><path d="M392.398 34.9292L397.222 40.7549C396.835 41.876 395.914 42.9036 394.46 43.8379C393.018 44.7721 391.296 45.5062 389.295 46.04C387.306 46.5872 385.317 46.8608 383.329 46.8608C381.567 46.8608 379.992 46.6273 378.604 46.1602C377.229 45.693 376.168 44.9857 375.421 44.0381C374.126 42.4098 373.479 40.3278 373.479 37.792C373.479 35.79 373.839 33.8215 374.56 31.8862C375.294 29.9377 376.068 28.5763 376.882 27.8022C377.857 26.8813 378.911 26.1139 380.046 25.5C381.193 24.8861 382.381 24.4256 383.609 24.1187C384.837 23.8117 386.098 23.6582 387.393 23.6582C389.088 23.6582 390.696 23.9318 392.217 24.479C393.752 25.0129 395.094 25.7936 396.241 26.8213L385.251 39.9341C386.225 39.9341 387.146 39.7339 388.013 39.3335C388.894 38.9198 389.702 38.3392 390.436 37.5918C391.17 36.8311 391.824 35.9435 392.398 34.9292ZM386.852 30.2646C386.198 29.931 385.531 29.7642 384.85 29.7642C384.129 29.7642 383.429 29.911 382.748 30.2046C382.081 30.4982 381.607 30.8452 381.327 31.2456C380.499 32.3133 380.086 33.4878 380.086 34.769C380.086 35.2362 380.132 35.6833 380.226 36.1104C380.319 36.5374 380.479 37.1247 380.706 37.8721L386.852 30.2646ZM376.562 15.8306L387.233 9.9248L391.817 16.9717L378.864 19.4341L376.562 15.8306Z"/><path d="M416.657 23.0376C420.114 21.9432 422.683 21.396 424.365 21.396C425.699 21.396 426.847 21.6696 427.808 22.2168C428.996 22.8975 430.277 24.0586 431.652 25.7002C433.027 27.3418 433.881 28.8633 434.214 30.2646C434.922 33.1074 435.275 35.5898 435.275 37.7119C435.275 38.833 435.202 40.0142 435.055 41.2554C434.908 42.4832 434.681 44.0648 434.375 46L426.006 46.5005C426.033 45.8332 426.046 44.8722 426.046 43.6177C426.046 38.3859 425.326 33.9349 423.884 30.2646C423.617 29.6107 423.304 29.0968 422.943 28.7231C422.583 28.3494 422.263 28.1626 421.982 28.1626C421.689 28.1626 421.542 28.3695 421.542 28.7832C421.542 29.0234 421.569 29.2303 421.622 29.4038C421.715 29.6174 421.809 29.9043 421.902 30.2646C422.623 33.1608 422.983 35.6432 422.983 37.7119C422.983 38.7262 422.917 39.7939 422.783 40.915C422.65 42.0228 422.416 43.7178 422.083 46L413.714 46.5005C413.741 45.8332 413.754 44.8722 413.754 43.6177C413.754 38.3726 413.027 33.9215 411.572 30.2646C411.399 29.8376 411.265 29.3905 411.172 28.9233C411.078 28.4429 411.012 28.2026 410.972 28.2026C410.918 28.2026 410.765 28.5163 410.511 29.1436C410.258 29.7708 409.984 30.4181 409.69 31.0854C409.49 31.5526 409.323 32.0864 409.19 32.687C409.07 33.2876 408.976 33.9616 408.91 34.709C408.856 35.4564 408.83 36.3372 408.83 37.3516C408.83 39.4069 408.95 42.0161 409.19 45.1792L399.36 46.3203C399.2 45.1458 399.053 43.978 398.92 42.8169C398.786 41.6558 398.68 40.5814 398.6 39.5938C398.533 38.5928 398.5 37.5184 398.5 36.3706C398.5 35.8768 398.526 35.1628 398.58 34.2285L398.219 22.5571L406.087 21.5562L407.228 22.8774C409.337 22.1968 411.058 21.8564 412.393 21.8564C413.875 21.8564 415.296 22.2502 416.657 23.0376Z"/><path d="M455.671 24.3188C456.619 24.826 457.386 25.5133 457.974 26.3809C458.574 27.235 459.008 28.2026 459.275 29.2837C459.555 30.3514 459.695 31.4658 459.695 32.627C459.695 33.5879 459.615 34.5155 459.455 35.4097C459.308 36.3039 459.101 37.1247 458.834 37.8721C458.567 38.6195 458.254 39.2534 457.893 39.7739C457.053 41.0285 456.152 42.1095 455.191 43.0171C454.23 43.9246 453.249 44.6587 452.248 45.2192C451.247 45.7664 450.253 46.1668 449.265 46.4204C448.291 46.6873 447.323 46.8208 446.362 46.8208C445.228 46.8208 444.147 46.6406 443.119 46.2803C442.105 45.9333 441.237 45.4728 440.517 44.8989C439.329 43.9113 438.401 42.5833 437.734 40.915C437.066 39.2334 436.733 37.4583 436.733 35.5898C436.733 32.3734 437.66 29.7775 439.516 27.8022C441.104 26.1073 442.745 24.8327 444.44 23.9785C446.135 23.111 447.87 22.6772 449.645 22.6772C450.686 22.6772 451.687 22.8107 452.648 23.0776C453.609 23.3312 454.617 23.745 455.671 24.3188ZM454.49 27.6821C454.263 28.6965 453.769 29.5907 453.009 30.3647C452.261 31.1388 451.527 31.5259 450.807 31.5259C450.446 31.5259 450.126 31.4325 449.846 31.2456C449.445 30.9253 449.245 30.3647 449.245 29.564C449.245 28.95 449.445 28.3428 449.846 27.7422C450.259 27.1416 450.907 26.6678 451.788 26.3208C450.907 26.3208 450.052 26.4876 449.225 26.8213C448.411 27.1549 447.71 27.5887 447.123 28.1226C446.536 28.6431 446.062 29.237 445.702 29.9043C445.355 30.5583 445.181 31.2189 445.181 31.8862C445.181 33.1274 445.755 34.1151 446.903 34.8491C447.97 35.5298 448.985 35.8701 449.946 35.8701C450.893 35.8701 451.734 35.5565 452.468 34.9292C453.202 34.2886 453.763 33.4744 454.15 32.4868C454.537 31.4858 454.73 30.4982 454.73 29.5239C454.73 28.8566 454.65 28.2427 454.49 27.6821Z"/><path d="M470.802 22.8774C472.284 22.3836 473.558 22.0099 474.626 21.7563C475.694 21.4894 476.714 21.356 477.689 21.356C478.997 21.356 480.145 21.6429 481.132 22.2168C482.32 22.8975 483.601 24.0586 484.976 25.7002C486.351 27.3418 487.205 28.8633 487.538 30.2646C488.246 33.1074 488.599 35.5898 488.599 37.7119C488.599 38.833 488.526 40.0142 488.379 41.2554C488.232 42.4832 488.006 44.0648 487.699 46L479.33 46.5005C479.357 45.8332 479.37 44.8722 479.37 43.6177C479.37 38.3859 478.65 33.9349 477.208 30.2646C476.648 28.89 476.101 28.2026 475.567 28.2026C474.873 28.2026 474.105 29.1636 473.264 31.0854C473.064 31.5526 472.897 32.0864 472.764 32.687C472.644 33.2876 472.55 33.9616 472.484 34.709C472.43 35.4564 472.404 36.3372 472.404 37.3516C472.404 39.4069 472.524 42.0161 472.764 45.1792L462.934 46.3203C462.774 45.1458 462.627 43.978 462.494 42.8169C462.36 41.6558 462.254 40.5814 462.174 39.5938C462.107 38.5928 462.074 37.5184 462.074 36.3706C462.074 35.8768 462.1 35.1628 462.154 34.2285L461.793 22.5571L469.661 21.5562L470.802 22.8774Z"/><path d="M497.144 28.2427C498.425 28.2026 499.733 27.8223 501.068 27.1016C502.416 26.3809 503.663 25.4933 504.811 24.439C505.959 23.3713 506.887 22.3302 507.594 21.3159C508.315 20.3016 508.675 19.5475 508.675 19.0537C508.675 18.8001 508.582 18.6533 508.395 18.6133C508.061 18.5332 507.687 18.4932 507.274 18.4932C506.553 18.4932 505.459 18.64 503.99 18.9336C502.536 19.2272 501.648 19.394 501.328 19.4341C500.5 19.5275 499.426 19.8612 498.105 20.4351C496.783 20.9956 495.569 21.5695 494.461 22.1567C493.367 22.7306 492.759 23.0776 492.639 23.1978C492.599 23.1978 492.466 22.9108 492.239 22.3369C492.025 21.763 491.732 20.9689 491.358 19.9546C490.998 18.9269 490.591 17.7925 490.137 16.5513C489.67 15.2967 489.356 14.5093 489.196 14.189C490.811 13.6551 492.326 13.1613 493.74 12.7075C495.168 12.2537 496.67 11.8267 498.245 11.4263C499.82 11.0125 501.321 10.6855 502.749 10.4453C504.191 10.2051 505.605 10.085 506.993 10.085C508.074 10.085 509.069 10.1717 509.976 10.3452C510.884 10.5054 511.738 10.779 512.539 11.166C513.353 11.5531 514.074 12.0736 514.701 12.7275C515.341 13.3682 515.862 14.1289 516.262 15.0098C516.396 15.2767 516.463 15.6304 516.463 16.0708C516.463 17.7124 515.402 19.8812 513.279 22.5771C511.157 25.2598 508.688 27.7622 505.872 30.0845C503.056 32.3934 500.847 33.7881 499.246 34.2686L497.144 28.2427ZM502.309 37.9722C503.243 37.9722 504.057 38.1323 504.751 38.4526C505.459 38.7596 506.026 39.1266 506.453 39.5537C506.88 39.9808 507.18 40.3812 507.354 40.7549C507.527 41.1019 507.614 41.4956 507.614 41.936C507.614 42.59 507.474 43.2573 507.194 43.938C506.913 44.6053 506.573 45.1792 506.173 45.6597C505.772 46.1401 505.392 46.4204 505.031 46.5005C504.311 46.6073 503.79 46.6606 503.47 46.6606C502.162 46.6606 501.108 46.3203 500.307 45.6396C499.506 44.959 499.026 44.0114 498.865 42.7969C498.865 41.6624 499.139 40.6014 499.686 39.6138C500.247 38.6261 501.121 38.0789 502.309 37.9722Z"/></mask><path d="M34.7446 47.9619L24.915 48.6226L22.2925 44.3584L19.9902 50.2642L13.584 50.4243L6.05664 15.3301L17.688 16.4712L19.8301 28.4429L22.1123 24.0186L25.2354 29.604L26.877 11.0659L38.188 10.2451L34.7446 47.9619Z" fill="#FFCB08"/><path d="M50.8363 22.8774C53.2253 22.09 55.2873 21.6963 57.0224 21.6963C58.6106 21.6963 59.9919 22.0366 61.1664 22.7173C61.8738 23.131 62.6679 23.7583 63.5487 24.5991C64.4296 25.4266 65.2037 26.3408 65.871 27.3418C66.5517 28.3428 67.0054 29.3171 67.2323 30.2646C67.9397 33.1074 68.2934 35.5898 68.2934 37.7119C68.2934 38.833 68.22 40.0142 68.0731 41.2554C67.9263 42.4832 67.6994 44.0648 67.3925 46L59.0243 46.5005C59.051 45.8332 59.0644 44.8722 59.0644 43.6177C59.0644 38.3859 58.3437 33.9349 56.9022 30.2646C56.3417 28.89 55.7945 28.2026 55.2606 28.2026C54.5666 28.2026 53.7992 29.1636 52.9584 31.0854C52.7582 31.5526 52.5914 32.0864 52.4579 32.687C52.3378 33.2876 52.2444 33.9616 52.1776 34.709C52.1242 35.4564 52.0976 36.3372 52.0976 37.3516C52.0976 39.4069 52.2177 42.0161 52.4579 45.1792L42.6283 46.3203C42.5215 45.5462 42.4548 44.6387 42.4281 43.5977C42.3881 42.5566 42.3614 41.4823 42.348 40.3745C42.3214 39.2668 42.2746 38.2591 42.2079 37.3516C42.1545 36.4307 42.0344 35.3896 41.8476 34.2285L41.307 8.12305L49.515 7.12207L50.8363 22.8774Z" fill="#FFCB08"/><path d="M88.6893 24.3188C89.6368 24.826 90.4043 25.5133 90.9915 26.3809C91.5921 27.235 92.0258 28.2026 92.2928 29.2837C92.573 30.3514 92.7132 31.4658 92.7132 32.627C92.7132 33.5879 92.6331 34.5155 92.4729 35.4097C92.3261 36.3039 92.1193 37.1247 91.8523 37.8721C91.5854 38.6195 91.2718 39.2534 90.9114 39.7739C90.0706 41.0285 89.1697 42.1095 88.2088 43.0171C87.2478 43.9246 86.2669 44.6587 85.2659 45.2192C84.2649 45.7664 83.2706 46.1668 82.283 46.4204C81.3087 46.6873 80.3411 46.8208 79.3802 46.8208C78.2457 46.8208 77.1647 46.6406 76.137 46.2803C75.1227 45.9333 74.2552 45.4728 73.5345 44.8989C72.3466 43.9113 71.4191 42.5833 70.7518 40.915C70.0844 39.2334 69.7508 37.4583 69.7508 35.5898C69.7508 32.3734 70.6783 29.7775 72.5335 27.8022C74.1217 26.1073 75.7633 24.8327 77.4583 23.9785C79.1533 23.111 80.8883 22.6772 82.6634 22.6772C83.7044 22.6772 84.7054 22.8107 85.6663 23.0776C86.6272 23.3312 87.6349 23.745 88.6893 24.3188ZM87.5081 27.6821C87.2812 28.6965 86.7874 29.5907 86.0267 30.3647C85.2793 31.1388 84.5452 31.5259 83.8245 31.5259C83.4642 31.5259 83.1438 31.4325 82.8636 31.2456C82.4632 30.9253 82.263 30.3647 82.263 29.564C82.263 28.95 82.4632 28.3428 82.8636 27.7422C83.2773 27.1416 83.9246 26.6678 84.8055 26.3208C83.9246 26.3208 83.0704 26.4876 82.243 26.8213C81.4288 27.1549 80.7282 27.5887 80.1409 28.1226C79.5537 28.6431 79.0799 29.237 78.7195 29.9043C78.3725 30.5583 78.199 31.2189 78.199 31.8862C78.199 33.1274 78.7729 34.1151 79.9207 34.8491C80.9884 35.5298 82.0027 35.8701 82.9637 35.8701C83.9113 35.8701 84.7521 35.5565 85.4861 34.9292C86.2202 34.2886 86.7807 33.4744 87.1678 32.4868C87.5548 31.4858 87.7483 30.4982 87.7483 29.5239C87.7483 28.8566 87.6683 28.2427 87.5081 27.6821Z" fill="#FFCB08"/><path d="M103.039 23.5781L98.7751 22.9976L95.5319 10.2051L103.86 11.3862L103.039 23.5781Z" fill="#FFCB08"/><path d="M129.901 30.7451C129.501 30.5983 128.527 30.2913 126.979 29.8242C125.444 29.3438 124.069 28.93 122.855 28.583C121.653 28.236 120.325 27.9023 118.871 27.582C117.416 27.2617 116.282 27.1016 115.467 27.1016C115.04 27.1016 114.713 27.1683 114.486 27.3018C113.832 27.7956 113.505 28.2493 113.505 28.6631C113.505 29.3171 114.159 29.8843 115.467 30.3647C116.775 30.8319 118.364 31.1789 120.232 31.4058C122.795 31.686 124.863 32.2866 126.438 33.2075C128.026 34.1284 129.174 35.2028 129.881 36.4307C130.589 37.6452 130.942 38.8931 130.942 40.1743C130.942 41.0819 130.762 41.9294 130.402 42.7168C128.854 46 125.884 47.6416 121.493 47.6416C120.292 47.6416 118.937 47.5081 117.429 47.2412C115.921 46.9876 114.473 46.6673 113.085 46.2803C111.71 45.9066 110.242 45.4661 108.681 44.959C107.119 44.4518 105.664 43.978 104.317 43.5376C104.664 42.8169 105.104 41.9494 105.638 40.9351C106.172 39.9074 106.692 38.9064 107.199 37.9321C107.693 36.9578 107.94 36.424 107.94 36.3306C108.327 36.6909 108.808 36.9845 109.381 37.2114C109.969 37.425 110.816 37.6852 111.924 37.9922C113.045 38.2858 113.899 38.5527 114.486 38.793C115.781 39.2734 117.122 39.5137 118.51 39.5137C119.365 39.5137 120.179 39.4269 120.953 39.2534C121.727 39.0666 122.141 38.9131 122.194 38.793C122.194 38.446 121.6 38.1056 120.412 37.772C119.238 37.425 117.923 37.158 116.468 36.9712C114.813 36.7843 113.145 36.384 111.463 35.77C109.795 35.1427 108.374 34.2285 107.199 33.0273C106.025 31.8262 105.438 30.3447 105.438 28.583C105.438 27.235 105.778 25.827 106.459 24.3589C107.206 22.7173 108.327 21.5295 109.822 20.7954C111.317 20.048 113.105 19.6743 115.187 19.6743C117.589 19.6743 120.065 20.0146 122.614 20.6953C125.164 21.376 128.634 22.4303 133.025 23.8584C132.931 24.0586 132.564 24.9128 131.923 26.4209C131.283 27.9157 130.802 29.0101 130.482 29.7041C130.162 30.3981 129.968 30.7451 129.901 30.7451Z" fill="#FFCB08"/><path d="M162.445 10.9058L171.194 6.96191L171.054 20.415L177.58 20.5752V28.2827L170.813 28.3628C170.573 30.258 170.453 32.0397 170.453 33.708C170.453 35.096 170.533 36.2438 170.693 37.1514C170.827 37.8988 171.16 38.4727 171.694 38.873C172.228 39.2734 172.849 39.4736 173.556 39.4736C174.343 39.4736 175.031 39.2401 175.618 38.7729C176.219 38.3058 176.519 37.6652 176.519 36.8511C176.519 36.731 176.492 36.4974 176.439 36.1504L182.985 31.8862C183.266 32.4067 183.613 33.2809 184.026 34.5088C184.453 35.7367 184.667 37.078 184.667 38.5327C184.667 40.2811 184.206 41.8626 183.286 43.2773C182.365 44.6921 180.79 45.7664 178.561 46.5005C176.999 47.0076 175.525 47.2612 174.137 47.2612C172.041 47.2612 170.193 46.8008 168.591 45.8799C167.003 44.959 165.682 43.8512 164.627 42.5566C164.134 41.9561 163.746 40.9618 163.466 39.5737C163.199 38.1857 163.026 36.7376 162.946 35.2295C162.866 33.7214 162.826 32.2132 162.826 30.7051V28.4429L156.92 28.623L155.438 19.5942L162.906 20.0947L162.445 10.9058Z" fill="#FFCB08"/><path d="M197.435 22.8774C199.824 22.09 201.886 21.6963 203.621 21.6963C205.21 21.6963 206.591 22.0366 207.765 22.7173C208.473 23.131 209.267 23.7583 210.148 24.5991C211.029 25.4266 211.803 26.3408 212.47 27.3418C213.151 28.3428 213.604 29.3171 213.831 30.2646C214.539 33.1074 214.892 35.5898 214.892 37.7119C214.892 38.833 214.819 40.0142 214.672 41.2554C214.525 42.4832 214.298 44.0648 213.992 46L205.623 46.5005C205.65 45.8332 205.663 44.8722 205.663 43.6177C205.663 38.3859 204.943 33.9349 203.501 30.2646C202.941 28.89 202.394 28.2026 201.86 28.2026C201.166 28.2026 200.398 29.1636 199.557 31.0854C199.357 31.5526 199.19 32.0864 199.057 32.687C198.937 33.2876 198.843 33.9616 198.777 34.709C198.723 35.4564 198.697 36.3372 198.697 37.3516C198.697 39.4069 198.817 42.0161 199.057 45.1792L189.227 46.3203C189.121 45.5462 189.054 44.6387 189.027 43.5977C188.987 42.5566 188.96 41.4823 188.947 40.3745C188.92 39.2668 188.874 38.2591 188.807 37.3516C188.754 36.4307 188.633 35.3896 188.447 34.2285L187.906 8.12305L196.114 7.12207L197.435 22.8774Z" fill="#FFCB08"/><path d="M230.424 26.4009C229.689 26.4943 228.962 26.7279 228.241 27.1016C227.534 27.4753 226.927 27.9157 226.42 28.4229C225.912 28.93 225.512 29.4906 225.218 30.1045C224.938 30.7051 224.798 31.299 224.798 31.8862C224.798 33.1007 225.372 34.0884 226.52 34.8491C227.534 35.5298 228.562 35.8701 229.603 35.8701C229.803 35.8701 230.077 35.8434 230.424 35.79V31.5259C230.063 31.5259 229.743 31.4325 229.463 31.2456C229.062 30.9253 228.862 30.3114 228.862 29.4038C228.862 28.0959 229.383 27.0949 230.424 26.4009ZM230.584 22.8774L238.952 19.1138L239.112 30.3047C239.219 30.9987 239.272 31.7861 239.272 32.667C239.272 33.4411 239.245 34.015 239.192 34.3887L239.432 46.6606L230.424 47.1411V45.9199C228.955 46.5205 227.474 46.8208 225.979 46.8208C224.831 46.8208 223.75 46.6473 222.736 46.3003C221.735 45.9533 220.868 45.4862 220.133 44.8989C218.946 43.9113 218.018 42.5833 217.351 40.915C216.683 39.2334 216.35 37.4583 216.35 35.5898C216.35 32.3734 217.277 29.7775 219.133 27.8022C220.734 26.1206 222.382 24.846 224.077 23.9785C225.786 23.111 227.527 22.6772 229.302 22.6772C229.796 22.6772 230.17 22.6906 230.424 22.7173L230.584 22.8774Z" fill="#FFCB08"/><path d="M245.494 10.9058L254.243 6.96191L254.103 20.415L260.629 20.5752V28.2827L253.862 28.3628C253.622 30.258 253.502 32.0397 253.502 33.708C253.502 35.096 253.582 36.2438 253.742 37.1514C253.876 37.8988 254.209 38.4727 254.743 38.873C255.277 39.2734 255.898 39.4736 256.605 39.4736C257.393 39.4736 258.08 39.2401 258.667 38.7729C259.268 38.3058 259.568 37.6652 259.568 36.8511C259.568 36.731 259.541 36.4974 259.488 36.1504L266.034 31.8862C266.315 32.4067 266.662 33.2809 267.075 34.5088C267.502 35.7367 267.716 37.078 267.716 38.5327C267.716 40.2811 267.255 41.8626 266.335 43.2773C265.414 44.6921 263.839 45.7664 261.61 46.5005C260.048 47.0076 258.574 47.2612 257.186 47.2612C255.09 47.2612 253.242 46.8008 251.64 45.8799C250.052 44.959 248.731 43.8512 247.676 42.5566C247.183 41.9561 246.796 40.9618 246.515 39.5737C246.248 38.1857 246.075 36.7376 245.995 35.2295C245.915 33.7214 245.875 32.2132 245.875 30.7051V28.4429L239.969 28.623L238.487 19.5942L245.955 20.0947L245.494 10.9058Z" fill="#FFCB08"/><path d="M294.414 14.189C296.029 13.6551 297.544 13.1613 298.958 12.7075C300.386 12.2537 301.888 11.8267 303.463 11.4263C305.038 11.0125 306.546 10.6855 307.987 10.4453C309.095 10.2585 310.229 10.165 311.391 10.165C313.326 10.165 314.594 10.2184 315.194 10.3252C316.102 10.4987 316.956 10.779 317.757 11.166C318.571 11.5531 319.292 12.0736 319.919 12.7275C320.559 13.3682 321.08 14.1289 321.48 15.0098C321.641 15.3701 321.721 15.7505 321.721 16.1509C321.721 17.6457 320.9 19.4875 319.258 21.6763C317.63 23.8651 315.988 25.7736 314.333 27.4019C312.692 29.0301 311.464 30.1979 310.65 30.9053L314.253 43.5376L309.008 47.3213L299.819 21.0757C299.793 21.0757 299.666 21.2025 299.439 21.4561C299.212 21.7096 298.912 22.0433 298.538 22.457C298.178 22.8574 297.951 23.1043 297.857 23.1978C297.817 23.1978 297.684 22.9108 297.457 22.3369C297.243 21.763 296.95 20.9689 296.576 19.9546C296.216 18.9269 295.809 17.7925 295.355 16.5513C294.888 15.2967 294.574 14.5093 294.414 14.189ZM307.367 19.7544L309.008 25.6602C309.836 24.8193 310.863 23.6715 312.091 22.2168C313.319 20.762 313.933 19.7077 313.933 19.0537C313.933 18.8001 313.826 18.6533 313.613 18.6133C313.012 18.4798 312.418 18.4131 311.831 18.4131C310.069 18.4131 308.581 18.8602 307.367 19.7544Z" fill="#FFCB08"/><path d="M340.855 24.3188C341.803 24.826 342.57 25.5133 343.158 26.3809C343.758 27.235 344.192 28.2026 344.459 29.2837C344.739 30.3514 344.879 31.4658 344.879 32.627C344.879 33.5879 344.799 34.5155 344.639 35.4097C344.492 36.3039 344.285 37.1247 344.018 37.8721C343.751 38.6195 343.438 39.2534 343.077 39.7739C342.237 41.0285 341.336 42.1095 340.375 43.0171C339.414 43.9246 338.433 44.6587 337.432 45.2192C336.431 45.7664 335.437 46.1668 334.449 46.4204C333.475 46.6873 332.507 46.8208 331.546 46.8208C330.412 46.8208 329.331 46.6406 328.303 46.2803C327.289 45.9333 326.421 45.4728 325.701 44.8989C324.513 43.9113 323.585 42.5833 322.918 40.915C322.25 39.2334 321.917 37.4583 321.917 35.5898C321.917 32.3734 322.844 29.7775 324.7 27.8022C326.288 26.1073 327.929 24.8327 329.624 23.9785C331.319 23.111 333.054 22.6772 334.829 22.6772C335.87 22.6772 336.871 22.8107 337.832 23.0776C338.793 23.3312 339.801 23.745 340.855 24.3188ZM339.674 27.6821C339.447 28.6965 338.953 29.5907 338.193 30.3647C337.445 31.1388 336.711 31.5259 335.991 31.5259C335.63 31.5259 335.31 31.4325 335.03 31.2456C334.629 30.9253 334.429 30.3647 334.429 29.564C334.429 28.95 334.629 28.3428 335.03 27.7422C335.443 27.1416 336.091 26.6678 336.971 26.3208C336.091 26.3208 335.236 26.4876 334.409 26.8213C333.595 27.1549 332.894 27.5887 332.307 28.1226C331.72 28.6431 331.246 29.237 330.886 29.9043C330.539 30.5583 330.365 31.2189 330.365 31.8862C330.365 33.1274 330.939 34.1151 332.087 34.8491C333.154 35.5298 334.169 35.8701 335.13 35.8701C336.077 35.8701 336.918 35.5565 337.652 34.9292C338.386 34.2886 338.947 33.4744 339.334 32.4868C339.721 31.4858 339.914 30.4982 339.914 29.5239C339.914 28.8566 339.834 28.2427 339.674 27.6821Z" fill="#FFCB08"/><path d="M345.656 12.5474L355.826 8.2832L357.307 31.4058L365.675 26.8213L374.364 28.1226L363.033 36.811L373.703 44.8589L374.184 52.8867L358.448 41.5757L358.949 51.4053L349.42 51.5854L347.618 16.8115L344.675 17.4722L345.656 12.5474Z" fill="#FFCB08"/><path d="M392.398 34.9292L397.222 40.7549C396.835 41.876 395.914 42.9036 394.46 43.8379C393.018 44.7721 391.296 45.5062 389.295 46.04C387.306 46.5872 385.317 46.8608 383.329 46.8608C381.567 46.8608 379.992 46.6273 378.604 46.1602C377.229 45.693 376.168 44.9857 375.421 44.0381C374.126 42.4098 373.479 40.3278 373.479 37.792C373.479 35.79 373.839 33.8215 374.56 31.8862C375.294 29.9377 376.068 28.5763 376.882 27.8022C377.857 26.8813 378.911 26.1139 380.046 25.5C381.193 24.8861 382.381 24.4256 383.609 24.1187C384.837 23.8117 386.098 23.6582 387.393 23.6582C389.088 23.6582 390.696 23.9318 392.217 24.479C393.752 25.0129 395.094 25.7936 396.241 26.8213L385.251 39.9341C386.225 39.9341 387.146 39.7339 388.013 39.3335C388.894 38.9198 389.702 38.3392 390.436 37.5918C391.17 36.8311 391.824 35.9435 392.398 34.9292ZM386.852 30.2646C386.198 29.931 385.531 29.7642 384.85 29.7642C384.129 29.7642 383.429 29.911 382.748 30.2046C382.081 30.4982 381.607 30.8452 381.327 31.2456C380.499 32.3133 380.086 33.4878 380.086 34.769C380.086 35.2362 380.132 35.6833 380.226 36.1104C380.319 36.5374 380.479 37.1247 380.706 37.8721L386.852 30.2646ZM376.562 15.8306L387.233 9.9248L391.817 16.9717L378.864 19.4341L376.562 15.8306Z" fill="#FFCB08"/><path d="M416.657 23.0376C420.114 21.9432 422.683 21.396 424.365 21.396C425.699 21.396 426.847 21.6696 427.808 22.2168C428.996 22.8975 430.277 24.0586 431.652 25.7002C433.027 27.3418 433.881 28.8633 434.214 30.2646C434.922 33.1074 435.275 35.5898 435.275 37.7119C435.275 38.833 435.202 40.0142 435.055 41.2554C434.908 42.4832 434.681 44.0648 434.375 46L426.006 46.5005C426.033 45.8332 426.046 44.8722 426.046 43.6177C426.046 38.3859 425.326 33.9349 423.884 30.2646C423.617 29.6107 423.304 29.0968 422.943 28.7231C422.583 28.3494 422.263 28.1626 421.982 28.1626C421.689 28.1626 421.542 28.3695 421.542 28.7832C421.542 29.0234 421.569 29.2303 421.622 29.4038C421.715 29.6174 421.809 29.9043 421.902 30.2646C422.623 33.1608 422.983 35.6432 422.983 37.7119C422.983 38.7262 422.917 39.7939 422.783 40.915C422.65 42.0228 422.416 43.7178 422.083 46L413.714 46.5005C413.741 45.8332 413.754 44.8722 413.754 43.6177C413.754 38.3726 413.027 33.9215 411.572 30.2646C411.399 29.8376 411.265 29.3905 411.172 28.9233C411.078 28.4429 411.012 28.2026 410.972 28.2026C410.918 28.2026 410.765 28.5163 410.511 29.1436C410.258 29.7708 409.984 30.4181 409.69 31.0854C409.49 31.5526 409.323 32.0864 409.19 32.687C409.07 33.2876 408.976 33.9616 408.91 34.709C408.856 35.4564 408.83 36.3372 408.83 37.3516C408.83 39.4069 408.95 42.0161 409.19 45.1792L399.36 46.3203C399.2 45.1458 399.053 43.978 398.92 42.8169C398.786 41.6558 398.68 40.5814 398.6 39.5938C398.533 38.5928 398.5 37.5184 398.5 36.3706C398.5 35.8768 398.526 35.1628 398.58 34.2285L398.219 22.5571L406.087 21.5562L407.228 22.8774C409.337 22.1968 411.058 21.8564 412.393 21.8564C413.875 21.8564 415.296 22.2502 416.657 23.0376Z" fill="#FFCB08"/><path d="M455.671 24.3188C456.619 24.826 457.386 25.5133 457.974 26.3809C458.574 27.235 459.008 28.2026 459.275 29.2837C459.555 30.3514 459.695 31.4658 459.695 32.627C459.695 33.5879 459.615 34.5155 459.455 35.4097C459.308 36.3039 459.101 37.1247 458.834 37.8721C458.567 38.6195 458.254 39.2534 457.893 39.7739C457.053 41.0285 456.152 42.1095 455.191 43.0171C454.23 43.9246 453.249 44.6587 452.248 45.2192C451.247 45.7664 450.253 46.1668 449.265 46.4204C448.291 46.6873 447.323 46.8208 446.362 46.8208C445.228 46.8208 444.147 46.6406 443.119 46.2803C442.105 45.9333 441.237 45.4728 440.517 44.8989C439.329 43.9113 438.401 42.5833 437.734 40.915C437.066 39.2334 436.733 37.4583 436.733 35.5898C436.733 32.3734 437.66 29.7775 439.516 27.8022C441.104 26.1073 442.745 24.8327 444.44 23.9785C446.135 23.111 447.87 22.6772 449.645 22.6772C450.686 22.6772 451.687 22.8107 452.648 23.0776C453.609 23.3312 454.617 23.745 455.671 24.3188ZM454.49 27.6821C454.263 28.6965 453.769 29.5907 453.009 30.3647C452.261 31.1388 451.527 31.5259 450.807 31.5259C450.446 31.5259 450.126 31.4325 449.846 31.2456C449.445 30.9253 449.245 30.3647 449.245 29.564C449.245 28.95 449.445 28.3428 449.846 27.7422C450.259 27.1416 450.907 26.6678 451.788 26.3208C450.907 26.3208 450.052 26.4876 449.225 26.8213C448.411 27.1549 447.71 27.5887 447.123 28.1226C446.536 28.6431 446.062 29.237 445.702 29.9043C445.355 30.5583 445.181 31.2189 445.181 31.8862C445.181 33.1274 445.755 34.1151 446.903 34.8491C447.97 35.5298 448.985 35.8701 449.946 35.8701C450.893 35.8701 451.734 35.5565 452.468 34.9292C453.202 34.2886 453.763 33.4744 454.15 32.4868C454.537 31.4858 454.73 30.4982 454.73 29.5239C454.73 28.8566 454.65 28.2427 454.49 27.6821Z" fill="#FFCB08"/><path d="M470.802 22.8774C472.284 22.3836 473.558 22.0099 474.626 21.7563C475.694 21.4894 476.714 21.356 477.689 21.356C478.997 21.356 480.145 21.6429 481.132 22.2168C482.32 22.8975 483.601 24.0586 484.976 25.7002C486.351 27.3418 487.205 28.8633 487.538 30.2646C488.246 33.1074 488.599 35.5898 488.599 37.7119C488.599 38.833 488.526 40.0142 488.379 41.2554C488.232 42.4832 488.006 44.0648 487.699 46L479.33 46.5005C479.357 45.8332 479.37 44.8722 479.37 43.6177C479.37 38.3859 478.65 33.9349 477.208 30.2646C476.648 28.89 476.101 28.2026 475.567 28.2026C474.873 28.2026 474.105 29.1636 473.264 31.0854C473.064 31.5526 472.897 32.0864 472.764 32.687C472.644 33.2876 472.55 33.9616 472.484 34.709C472.43 35.4564 472.404 36.3372 472.404 37.3516C472.404 39.4069 472.524 42.0161 472.764 45.1792L462.934 46.3203C462.774 45.1458 462.627 43.978 462.494 42.8169C462.36 41.6558 462.254 40.5814 462.174 39.5938C462.107 38.5928 462.074 37.5184 462.074 36.3706C462.074 35.8768 462.1 35.1628 462.154 34.2285L461.793 22.5571L469.661 21.5562L470.802 22.8774Z" fill="#FFCB08"/><path d="M497.144 28.2427C498.425 28.2026 499.733 27.8223 501.068 27.1016C502.416 26.3809 503.663 25.4933 504.811 24.439C505.959 23.3713 506.887 22.3302 507.594 21.3159C508.315 20.3016 508.675 19.5475 508.675 19.0537C508.675 18.8001 508.582 18.6533 508.395 18.6133C508.061 18.5332 507.687 18.4932 507.274 18.4932C506.553 18.4932 505.459 18.64 503.99 18.9336C502.536 19.2272 501.648 19.394 501.328 19.4341C500.5 19.5275 499.426 19.8612 498.105 20.4351C496.783 20.9956 495.569 21.5695 494.461 22.1567C493.367 22.7306 492.759 23.0776 492.639 23.1978C492.599 23.1978 492.466 22.9108 492.239 22.3369C492.025 21.763 491.732 20.9689 491.358 19.9546C490.998 18.9269 490.591 17.7925 490.137 16.5513C489.67 15.2967 489.356 14.5093 489.196 14.189C490.811 13.6551 492.326 13.1613 493.74 12.7075C495.168 12.2537 496.67 11.8267 498.245 11.4263C499.82 11.0125 501.321 10.6855 502.749 10.4453C504.191 10.2051 505.605 10.085 506.993 10.085C508.074 10.085 509.069 10.1717 509.976 10.3452C510.884 10.5054 511.738 10.779 512.539 11.166C513.353 11.5531 514.074 12.0736 514.701 12.7275C515.341 13.3682 515.862 14.1289 516.262 15.0098C516.396 15.2767 516.463 15.6304 516.463 16.0708C516.463 17.7124 515.402 19.8812 513.279 22.5771C511.157 25.2598 508.688 27.7622 505.872 30.0845C503.056 32.3934 500.847 33.7881 499.246 34.2686L497.144 28.2427ZM502.309 37.9722C503.243 37.9722 504.057 38.1323 504.751 38.4526C505.459 38.7596 506.026 39.1266 506.453 39.5537C506.88 39.9808 507.18 40.3812 507.354 40.7549C507.527 41.1019 507.614 41.4956 507.614 41.936C507.614 42.59 507.474 43.2573 507.194 43.938C506.913 44.6053 506.573 45.1792 506.173 45.6597C505.772 46.1401 505.392 46.4204 505.031 46.5005C504.311 46.6073 503.79 46.6606 503.47 46.6606C502.162 46.6606 501.108 46.3203 500.307 45.6396C499.506 44.959 499.026 44.0114 498.865 42.7969C498.865 41.6624 499.139 40.6014 499.686 39.6138C500.247 38.6261 501.121 38.0789 502.309 37.9722Z" fill="#FFCB08"/><path d="M34.7446 47.9619L24.915 48.6226L22.2925 44.3584L19.9902 50.2642L13.584 50.4243L6.05664 15.3301L17.688 16.4712L19.8301 28.4429L22.1123 24.0186L25.2354 29.604L26.877 11.0659L38.188 10.2451L34.7446 47.9619Z" stroke="#3664AE" stroke-width="8" mask="url(#path-1-outside-1)"/><path d="M50.8363 22.8774C53.2253 22.09 55.2873 21.6963 57.0224 21.6963C58.6106 21.6963 59.9919 22.0366 61.1664 22.7173C61.8738 23.131 62.6679 23.7583 63.5487 24.5991C64.4296 25.4266 65.2037 26.3408 65.871 27.3418C66.5517 28.3428 67.0054 29.3171 67.2323 30.2646C67.9397 33.1074 68.2934 35.5898 68.2934 37.7119C68.2934 38.833 68.22 40.0142 68.0731 41.2554C67.9263 42.4832 67.6994 44.0648 67.3925 46L59.0243 46.5005C59.051 45.8332 59.0644 44.8722 59.0644 43.6177C59.0644 38.3859 58.3437 33.9349 56.9022 30.2646C56.3417 28.89 55.7945 28.2026 55.2606 28.2026C54.5666 28.2026 53.7992 29.1636 52.9584 31.0854C52.7582 31.5526 52.5914 32.0864 52.4579 32.687C52.3378 33.2876 52.2444 33.9616 52.1776 34.709C52.1242 35.4564 52.0976 36.3372 52.0976 37.3516C52.0976 39.4069 52.2177 42.0161 52.4579 45.1792L42.6283 46.3203C42.5215 45.5462 42.4548 44.6387 42.4281 43.5977C42.3881 42.5566 42.3614 41.4823 42.348 40.3745C42.3214 39.2668 42.2746 38.2591 42.2079 37.3516C42.1545 36.4307 42.0344 35.3896 41.8476 34.2285L41.307 8.12305L49.515 7.12207L50.8363 22.8774Z" stroke="#3664AE" stroke-width="8" mask="url(#path-1-outside-1)"/><path d="M88.6893 24.3188C89.6368 24.826 90.4043 25.5133 90.9915 26.3809C91.5921 27.235 92.0258 28.2026 92.2928 29.2837C92.573 30.3514 92.7132 31.4658 92.7132 32.627C92.7132 33.5879 92.6331 34.5155 92.4729 35.4097C92.3261 36.3039 92.1193 37.1247 91.8523 37.8721C91.5854 38.6195 91.2718 39.2534 90.9114 39.7739C90.0706 41.0285 89.1697 42.1095 88.2088 43.0171C87.2478 43.9246 86.2669 44.6587 85.2659 45.2192C84.2649 45.7664 83.2706 46.1668 82.283 46.4204C81.3087 46.6873 80.3411 46.8208 79.3802 46.8208C78.2457 46.8208 77.1647 46.6406 76.137 46.2803C75.1227 45.9333 74.2552 45.4728 73.5345 44.8989C72.3466 43.9113 71.4191 42.5833 70.7518 40.915C70.0844 39.2334 69.7508 37.4583 69.7508 35.5898C69.7508 32.3734 70.6783 29.7775 72.5335 27.8022C74.1217 26.1073 75.7633 24.8327 77.4583 23.9785C79.1533 23.111 80.8883 22.6772 82.6634 22.6772C83.7044 22.6772 84.7054 22.8107 85.6663 23.0776C86.6272 23.3312 87.6349 23.745 88.6893 24.3188ZM87.5081 27.6821C87.2812 28.6965 86.7874 29.5907 86.0267 30.3647C85.2793 31.1388 84.5452 31.5259 83.8245 31.5259C83.4642 31.5259 83.1438 31.4325 82.8636 31.2456C82.4632 30.9253 82.263 30.3647 82.263 29.564C82.263 28.95 82.4632 28.3428 82.8636 27.7422C83.2773 27.1416 83.9246 26.6678 84.8055 26.3208C83.9246 26.3208 83.0704 26.4876 82.243 26.8213C81.4288 27.1549 80.7282 27.5887 80.1409 28.1226C79.5537 28.6431 79.0799 29.237 78.7195 29.9043C78.3725 30.5583 78.199 31.2189 78.199 31.8862C78.199 33.1274 78.7729 34.1151 79.9207 34.8491C80.9884 35.5298 82.0027 35.8701 82.9637 35.8701C83.9113 35.8701 84.7521 35.5565 85.4861 34.9292C86.2202 34.2886 86.7807 33.4744 87.1678 32.4868C87.5548 31.4858 87.7483 30.4982 87.7483 29.5239C87.7483 28.8566 87.6683 28.2427 87.5081 27.6821Z" stroke="#3664AE" stroke-width="8" mask="url(#path-1-outside-1)"/><path d="M103.039 23.5781L98.7751 22.9976L95.5319 10.2051L103.86 11.3862L103.039 23.5781Z" stroke="#3664AE" stroke-width="8" mask="url(#path-1-outside-1)"/><path d="M129.901 30.7451C129.501 30.5983 128.527 30.2913 126.979 29.8242C125.444 29.3438 124.069 28.93 122.855 28.583C121.653 28.236 120.325 27.9023 118.871 27.582C117.416 27.2617 116.282 27.1016 115.467 27.1016C115.04 27.1016 114.713 27.1683 114.486 27.3018C113.832 27.7956 113.505 28.2493 113.505 28.6631C113.505 29.3171 114.159 29.8843 115.467 30.3647C116.775 30.8319 118.364 31.1789 120.232 31.4058C122.795 31.686 124.863 32.2866 126.438 33.2075C128.026 34.1284 129.174 35.2028 129.881 36.4307C130.589 37.6452 130.942 38.8931 130.942 40.1743C130.942 41.0819 130.762 41.9294 130.402 42.7168C128.854 46 125.884 47.6416 121.493 47.6416C120.292 47.6416 118.937 47.5081 117.429 47.2412C115.921 46.9876 114.473 46.6673 113.085 46.2803C111.71 45.9066 110.242 45.4661 108.681 44.959C107.119 44.4518 105.664 43.978 104.317 43.5376C104.664 42.8169 105.104 41.9494 105.638 40.9351C106.172 39.9074 106.692 38.9064 107.199 37.9321C107.693 36.9578 107.94 36.424 107.94 36.3306C108.327 36.6909 108.808 36.9845 109.381 37.2114C109.969 37.425 110.816 37.6852 111.924 37.9922C113.045 38.2858 113.899 38.5527 114.486 38.793C115.781 39.2734 117.122 39.5137 118.51 39.5137C119.365 39.5137 120.179 39.4269 120.953 39.2534C121.727 39.0666 122.141 38.9131 122.194 38.793C122.194 38.446 121.6 38.1056 120.412 37.772C119.238 37.425 117.923 37.158 116.468 36.9712C114.813 36.7843 113.145 36.384 111.463 35.77C109.795 35.1427 108.374 34.2285 107.199 33.0273C106.025 31.8262 105.438 30.3447 105.438 28.583C105.438 27.235 105.778 25.827 106.459 24.3589C107.206 22.7173 108.327 21.5295 109.822 20.7954C111.317 20.048 113.105 19.6743 115.187 19.6743C117.589 19.6743 120.065 20.0146 122.614 20.6953C125.164 21.376 128.634 22.4303 133.025 23.8584C132.931 24.0586 132.564 24.9128 131.923 26.4209C131.283 27.9157 130.802 29.0101 130.482 29.7041C130.162 30.3981 129.968 30.7451 129.901 30.7451Z" stroke="#3664AE" stroke-width="8" mask="url(#path-1-outside-1)"/><path d="M162.445 10.9058L171.194 6.96191L171.054 20.415L177.58 20.5752V28.2827L170.813 28.3628C170.573 30.258 170.453 32.0397 170.453 33.708C170.453 35.096 170.533 36.2438 170.693 37.1514C170.827 37.8988 171.16 38.4727 171.694 38.873C172.228 39.2734 172.849 39.4736 173.556 39.4736C174.343 39.4736 175.031 39.2401 175.618 38.7729C176.219 38.3058 176.519 37.6652 176.519 36.8511C176.519 36.731 176.492 36.4974 176.439 36.1504L182.985 31.8862C183.266 32.4067 183.613 33.2809 184.026 34.5088C184.453 35.7367 184.667 37.078 184.667 38.5327C184.667 40.2811 184.206 41.8626 183.286 43.2773C182.365 44.6921 180.79 45.7664 178.561 46.5005C176.999 47.0076 175.525 47.2612 174.137 47.2612C172.041 47.2612 170.193 46.8008 168.591 45.8799C167.003 44.959 165.682 43.8512 164.627 42.5566C164.134 41.9561 163.746 40.9618 163.466 39.5737C163.199 38.1857 163.026 36.7376 162.946 35.2295C162.866 33.7214 162.826 32.2132 162.826 30.7051V28.4429L156.92 28.623L155.438 19.5942L162.906 20.0947L162.445 10.9058Z" stroke="#3664AE" stroke-width="8" mask="url(#path-1-outside-1)"/><path d="M197.435 22.8774C199.824 22.09 201.886 21.6963 203.621 21.6963C205.21 21.6963 206.591 22.0366 207.765 22.7173C208.473 23.131 209.267 23.7583 210.148 24.5991C211.029 25.4266 211.803 26.3408 212.47 27.3418C213.151 28.3428 213.604 29.3171 213.831 30.2646C214.539 33.1074 214.892 35.5898 214.892 37.7119C214.892 38.833 214.819 40.0142 214.672 41.2554C214.525 42.4832 214.298 44.0648 213.992 46L205.623 46.5005C205.65 45.8332 205.663 44.8722 205.663 43.6177C205.663 38.3859 204.943 33.9349 203.501 30.2646C202.941 28.89 202.394 28.2026 201.86 28.2026C201.166 28.2026 200.398 29.1636 199.557 31.0854C199.357 31.5526 199.19 32.0864 199.057 32.687C198.937 33.2876 198.843 33.9616 198.777 34.709C198.723 35.4564 198.697 36.3372 198.697 37.3516C198.697 39.4069 198.817 42.0161 199.057 45.1792L189.227 46.3203C189.121 45.5462 189.054 44.6387 189.027 43.5977C188.987 42.5566 188.96 41.4823 188.947 40.3745C188.92 39.2668 188.874 38.2591 188.807 37.3516C188.754 36.4307 188.633 35.3896 188.447 34.2285L187.906 8.12305L196.114 7.12207L197.435 22.8774Z" stroke="#3664AE" stroke-width="8" mask="url(#path-1-outside-1)"/><path d="M230.424 26.4009C229.689 26.4943 228.962 26.7279 228.241 27.1016C227.534 27.4753 226.927 27.9157 226.42 28.4229C225.912 28.93 225.512 29.4906 225.218 30.1045C224.938 30.7051 224.798 31.299 224.798 31.8862C224.798 33.1007 225.372 34.0884 226.52 34.8491C227.534 35.5298 228.562 35.8701 229.603 35.8701C229.803 35.8701 230.077 35.8434 230.424 35.79V31.5259C230.063 31.5259 229.743 31.4325 229.463 31.2456C229.062 30.9253 228.862 30.3114 228.862 29.4038C228.862 28.0959 229.383 27.0949 230.424 26.4009ZM230.584 22.8774L238.952 19.1138L239.112 30.3047C239.219 30.9987 239.272 31.7861 239.272 32.667C239.272 33.4411 239.245 34.015 239.192 34.3887L239.432 46.6606L230.424 47.1411V45.9199C228.955 46.5205 227.474 46.8208 225.979 46.8208C224.831 46.8208 223.75 46.6473 222.736 46.3003C221.735 45.9533 220.868 45.4862 220.133 44.8989C218.946 43.9113 218.018 42.5833 217.351 40.915C216.683 39.2334 216.35 37.4583 216.35 35.5898C216.35 32.3734 217.277 29.7775 219.133 27.8022C220.734 26.1206 222.382 24.846 224.077 23.9785C225.786 23.111 227.527 22.6772 229.302 22.6772C229.796 22.6772 230.17 22.6906 230.424 22.7173L230.584 22.8774Z" stroke="#3664AE" stroke-width="8" mask="url(#path-1-outside-1)"/><path d="M245.494 10.9058L254.243 6.96191L254.103 20.415L260.629 20.5752V28.2827L253.862 28.3628C253.622 30.258 253.502 32.0397 253.502 33.708C253.502 35.096 253.582 36.2438 253.742 37.1514C253.876 37.8988 254.209 38.4727 254.743 38.873C255.277 39.2734 255.898 39.4736 256.605 39.4736C257.393 39.4736 258.08 39.2401 258.667 38.7729C259.268 38.3058 259.568 37.6652 259.568 36.8511C259.568 36.731 259.541 36.4974 259.488 36.1504L266.034 31.8862C266.315 32.4067 266.662 33.2809 267.075 34.5088C267.502 35.7367 267.716 37.078 267.716 38.5327C267.716 40.2811 267.255 41.8626 266.335 43.2773C265.414 44.6921 263.839 45.7664 261.61 46.5005C260.048 47.0076 258.574 47.2612 257.186 47.2612C255.09 47.2612 253.242 46.8008 251.64 45.8799C250.052 44.959 248.731 43.8512 247.676 42.5566C247.183 41.9561 246.796 40.9618 246.515 39.5737C246.248 38.1857 246.075 36.7376 245.995 35.2295C245.915 33.7214 245.875 32.2132 245.875 30.7051V28.4429L239.969 28.623L238.487 19.5942L245.955 20.0947L245.494 10.9058Z" stroke="#3664AE" stroke-width="8" mask="url(#path-1-outside-1)"/><path d="M294.414 14.189C296.029 13.6551 297.544 13.1613 298.958 12.7075C300.386 12.2537 301.888 11.8267 303.463 11.4263C305.038 11.0125 306.546 10.6855 307.987 10.4453C309.095 10.2585 310.229 10.165 311.391 10.165C313.326 10.165 314.594 10.2184 315.194 10.3252C316.102 10.4987 316.956 10.779 317.757 11.166C318.571 11.5531 319.292 12.0736 319.919 12.7275C320.559 13.3682 321.08 14.1289 321.48 15.0098C321.641 15.3701 321.721 15.7505 321.721 16.1509C321.721 17.6457 320.9 19.4875 319.258 21.6763C317.63 23.8651 315.988 25.7736 314.333 27.4019C312.692 29.0301 311.464 30.1979 310.65 30.9053L314.253 43.5376L309.008 47.3213L299.819 21.0757C299.793 21.0757 299.666 21.2025 299.439 21.4561C299.212 21.7096 298.912 22.0433 298.538 22.457C298.178 22.8574 297.951 23.1043 297.857 23.1978C297.817 23.1978 297.684 22.9108 297.457 22.3369C297.243 21.763 296.95 20.9689 296.576 19.9546C296.216 18.9269 295.809 17.7925 295.355 16.5513C294.888 15.2967 294.574 14.5093 294.414 14.189ZM307.367 19.7544L309.008 25.6602C309.836 24.8193 310.863 23.6715 312.091 22.2168C313.319 20.762 313.933 19.7077 313.933 19.0537C313.933 18.8001 313.826 18.6533 313.613 18.6133C313.012 18.4798 312.418 18.4131 311.831 18.4131C310.069 18.4131 308.581 18.8602 307.367 19.7544Z" stroke="#3664AE" stroke-width="8" mask="url(#path-1-outside-1)"/><path d="M340.855 24.3188C341.803 24.826 342.57 25.5133 343.158 26.3809C343.758 27.235 344.192 28.2026 344.459 29.2837C344.739 30.3514 344.879 31.4658 344.879 32.627C344.879 33.5879 344.799 34.5155 344.639 35.4097C344.492 36.3039 344.285 37.1247 344.018 37.8721C343.751 38.6195 343.438 39.2534 343.077 39.7739C342.237 41.0285 341.336 42.1095 340.375 43.0171C339.414 43.9246 338.433 44.6587 337.432 45.2192C336.431 45.7664 335.437 46.1668 334.449 46.4204C333.475 46.6873 332.507 46.8208 331.546 46.8208C330.412 46.8208 329.331 46.6406 328.303 46.2803C327.289 45.9333 326.421 45.4728 325.701 44.8989C324.513 43.9113 323.585 42.5833 322.918 40.915C322.25 39.2334 321.917 37.4583 321.917 35.5898C321.917 32.3734 322.844 29.7775 324.7 27.8022C326.288 26.1073 327.929 24.8327 329.624 23.9785C331.319 23.111 333.054 22.6772 334.829 22.6772C335.87 22.6772 336.871 22.8107 337.832 23.0776C338.793 23.3312 339.801 23.745 340.855 24.3188ZM339.674 27.6821C339.447 28.6965 338.953 29.5907 338.193 30.3647C337.445 31.1388 336.711 31.5259 335.991 31.5259C335.63 31.5259 335.31 31.4325 335.03 31.2456C334.629 30.9253 334.429 30.3647 334.429 29.564C334.429 28.95 334.629 28.3428 335.03 27.7422C335.443 27.1416 336.091 26.6678 336.971 26.3208C336.091 26.3208 335.236 26.4876 334.409 26.8213C333.595 27.1549 332.894 27.5887 332.307 28.1226C331.72 28.6431 331.246 29.237 330.886 29.9043C330.539 30.5583 330.365 31.2189 330.365 31.8862C330.365 33.1274 330.939 34.1151 332.087 34.8491C333.154 35.5298 334.169 35.8701 335.13 35.8701C336.077 35.8701 336.918 35.5565 337.652 34.9292C338.386 34.2886 338.947 33.4744 339.334 32.4868C339.721 31.4858 339.914 30.4982 339.914 29.5239C339.914 28.8566 339.834 28.2427 339.674 27.6821Z" stroke="#3664AE" stroke-width="8" mask="url(#path-1-outside-1)"/><path d="M345.656 12.5474L355.826 8.2832L357.307 31.4058L365.675 26.8213L374.364 28.1226L363.033 36.811L373.703 44.8589L374.184 52.8867L358.448 41.5757L358.949 51.4053L349.42 51.5854L347.618 16.8115L344.675 17.4722L345.656 12.5474Z" stroke="#3664AE" stroke-width="8" mask="url(#path-1-outside-1)"/><path d="M392.398 34.9292L397.222 40.7549C396.835 41.876 395.914 42.9036 394.46 43.8379C393.018 44.7721 391.296 45.5062 389.295 46.04C387.306 46.5872 385.317 46.8608 383.329 46.8608C381.567 46.8608 379.992 46.6273 378.604 46.1602C377.229 45.693 376.168 44.9857 375.421 44.0381C374.126 42.4098 373.479 40.3278 373.479 37.792C373.479 35.79 373.839 33.8215 374.56 31.8862C375.294 29.9377 376.068 28.5763 376.882 27.8022C377.857 26.8813 378.911 26.1139 380.046 25.5C381.193 24.8861 382.381 24.4256 383.609 24.1187C384.837 23.8117 386.098 23.6582 387.393 23.6582C389.088 23.6582 390.696 23.9318 392.217 24.479C393.752 25.0129 395.094 25.7936 396.241 26.8213L385.251 39.9341C386.225 39.9341 387.146 39.7339 388.013 39.3335C388.894 38.9198 389.702 38.3392 390.436 37.5918C391.17 36.8311 391.824 35.9435 392.398 34.9292ZM386.852 30.2646C386.198 29.931 385.531 29.7642 384.85 29.7642C384.129 29.7642 383.429 29.911 382.748 30.2046C382.081 30.4982 381.607 30.8452 381.327 31.2456C380.499 32.3133 380.086 33.4878 380.086 34.769C380.086 35.2362 380.132 35.6833 380.226 36.1104C380.319 36.5374 380.479 37.1247 380.706 37.8721L386.852 30.2646ZM376.562 15.8306L387.233 9.9248L391.817 16.9717L378.864 19.4341L376.562 15.8306Z" stroke="#3664AE" stroke-width="8" mask="url(#path-1-outside-1)"/><path d="M416.657 23.0376C420.114 21.9432 422.683 21.396 424.365 21.396C425.699 21.396 426.847 21.6696 427.808 22.2168C428.996 22.8975 430.277 24.0586 431.652 25.7002C433.027 27.3418 433.881 28.8633 434.214 30.2646C434.922 33.1074 435.275 35.5898 435.275 37.7119C435.275 38.833 435.202 40.0142 435.055 41.2554C434.908 42.4832 434.681 44.0648 434.375 46L426.006 46.5005C426.033 45.8332 426.046 44.8722 426.046 43.6177C426.046 38.3859 425.326 33.9349 423.884 30.2646C423.617 29.6107 423.304 29.0968 422.943 28.7231C422.583 28.3494 422.263 28.1626 421.982 28.1626C421.689 28.1626 421.542 28.3695 421.542 28.7832C421.542 29.0234 421.569 29.2303 421.622 29.4038C421.715 29.6174 421.809 29.9043 421.902 30.2646C422.623 33.1608 422.983 35.6432 422.983 37.7119C422.983 38.7262 422.917 39.7939 422.783 40.915C422.65 42.0228 422.416 43.7178 422.083 46L413.714 46.5005C413.741 45.8332 413.754 44.8722 413.754 43.6177C413.754 38.3726 413.027 33.9215 411.572 30.2646C411.399 29.8376 411.265 29.3905 411.172 28.9233C411.078 28.4429 411.012 28.2026 410.972 28.2026C410.918 28.2026 410.765 28.5163 410.511 29.1436C410.258 29.7708 409.984 30.4181 409.69 31.0854C409.49 31.5526 409.323 32.0864 409.19 32.687C409.07 33.2876 408.976 33.9616 408.91 34.709C408.856 35.4564 408.83 36.3372 408.83 37.3516C408.83 39.4069 408.95 42.0161 409.19 45.1792L399.36 46.3203C399.2 45.1458 399.053 43.978 398.92 42.8169C398.786 41.6558 398.68 40.5814 398.6 39.5938C398.533 38.5928 398.5 37.5184 398.5 36.3706C398.5 35.8768 398.526 35.1628 398.58 34.2285L398.219 22.5571L406.087 21.5562L407.228 22.8774C409.337 22.1968 411.058 21.8564 412.393 21.8564C413.875 21.8564 415.296 22.2502 416.657 23.0376Z" stroke="#3664AE" stroke-width="8" mask="url(#path-1-outside-1)"/><path d="M455.671 24.3188C456.619 24.826 457.386 25.5133 457.974 26.3809C458.574 27.235 459.008 28.2026 459.275 29.2837C459.555 30.3514 459.695 31.4658 459.695 32.627C459.695 33.5879 459.615 34.5155 459.455 35.4097C459.308 36.3039 459.101 37.1247 458.834 37.8721C458.567 38.6195 458.254 39.2534 457.893 39.7739C457.053 41.0285 456.152 42.1095 455.191 43.0171C454.23 43.9246 453.249 44.6587 452.248 45.2192C451.247 45.7664 450.253 46.1668 449.265 46.4204C448.291 46.6873 447.323 46.8208 446.362 46.8208C445.228 46.8208 444.147 46.6406 443.119 46.2803C442.105 45.9333 441.237 45.4728 440.517 44.8989C439.329 43.9113 438.401 42.5833 437.734 40.915C437.066 39.2334 436.733 37.4583 436.733 35.5898C436.733 32.3734 437.66 29.7775 439.516 27.8022C441.104 26.1073 442.745 24.8327 444.44 23.9785C446.135 23.111 447.87 22.6772 449.645 22.6772C450.686 22.6772 451.687 22.8107 452.648 23.0776C453.609 23.3312 454.617 23.745 455.671 24.3188ZM454.49 27.6821C454.263 28.6965 453.769 29.5907 453.009 30.3647C452.261 31.1388 451.527 31.5259 450.807 31.5259C450.446 31.5259 450.126 31.4325 449.846 31.2456C449.445 30.9253 449.245 30.3647 449.245 29.564C449.245 28.95 449.445 28.3428 449.846 27.7422C450.259 27.1416 450.907 26.6678 451.788 26.3208C450.907 26.3208 450.052 26.4876 449.225 26.8213C448.411 27.1549 447.71 27.5887 447.123 28.1226C446.536 28.6431 446.062 29.237 445.702 29.9043C445.355 30.5583 445.181 31.2189 445.181 31.8862C445.181 33.1274 445.755 34.1151 446.903 34.8491C447.97 35.5298 448.985 35.8701 449.946 35.8701C450.893 35.8701 451.734 35.5565 452.468 34.9292C453.202 34.2886 453.763 33.4744 454.15 32.4868C454.537 31.4858 454.73 30.4982 454.73 29.5239C454.73 28.8566 454.65 28.2427 454.49 27.6821Z" stroke="#3664AE" stroke-width="8" mask="url(#path-1-outside-1)"/><path d="M470.802 22.8774C472.284 22.3836 473.558 22.0099 474.626 21.7563C475.694 21.4894 476.714 21.356 477.689 21.356C478.997 21.356 480.145 21.6429 481.132 22.2168C482.32 22.8975 483.601 24.0586 484.976 25.7002C486.351 27.3418 487.205 28.8633 487.538 30.2646C488.246 33.1074 488.599 35.5898 488.599 37.7119C488.599 38.833 488.526 40.0142 488.379 41.2554C488.232 42.4832 488.006 44.0648 487.699 46L479.33 46.5005C479.357 45.8332 479.37 44.8722 479.37 43.6177C479.37 38.3859 478.65 33.9349 477.208 30.2646C476.648 28.89 476.101 28.2026 475.567 28.2026C474.873 28.2026 474.105 29.1636 473.264 31.0854C473.064 31.5526 472.897 32.0864 472.764 32.687C472.644 33.2876 472.55 33.9616 472.484 34.709C472.43 35.4564 472.404 36.3372 472.404 37.3516C472.404 39.4069 472.524 42.0161 472.764 45.1792L462.934 46.3203C462.774 45.1458 462.627 43.978 462.494 42.8169C462.36 41.6558 462.254 40.5814 462.174 39.5938C462.107 38.5928 462.074 37.5184 462.074 36.3706C462.074 35.8768 462.1 35.1628 462.154 34.2285L461.793 22.5571L469.661 21.5562L470.802 22.8774Z" stroke="#3664AE" stroke-width="8" mask="url(#path-1-outside-1)"/><path d="M497.144 28.2427C498.425 28.2026 499.733 27.8223 501.068 27.1016C502.416 26.3809 503.663 25.4933 504.811 24.439C505.959 23.3713 506.887 22.3302 507.594 21.3159C508.315 20.3016 508.675 19.5475 508.675 19.0537C508.675 18.8001 508.582 18.6533 508.395 18.6133C508.061 18.5332 507.687 18.4932 507.274 18.4932C506.553 18.4932 505.459 18.64 503.99 18.9336C502.536 19.2272 501.648 19.394 501.328 19.4341C500.5 19.5275 499.426 19.8612 498.105 20.4351C496.783 20.9956 495.569 21.5695 494.461 22.1567C493.367 22.7306 492.759 23.0776 492.639 23.1978C492.599 23.1978 492.466 22.9108 492.239 22.3369C492.025 21.763 491.732 20.9689 491.358 19.9546C490.998 18.9269 490.591 17.7925 490.137 16.5513C489.67 15.2967 489.356 14.5093 489.196 14.189C490.811 13.6551 492.326 13.1613 493.74 12.7075C495.168 12.2537 496.67 11.8267 498.245 11.4263C499.82 11.0125 501.321 10.6855 502.749 10.4453C504.191 10.2051 505.605 10.085 506.993 10.085C508.074 10.085 509.069 10.1717 509.976 10.3452C510.884 10.5054 511.738 10.779 512.539 11.166C513.353 11.5531 514.074 12.0736 514.701 12.7275C515.341 13.3682 515.862 14.1289 516.262 15.0098C516.396 15.2767 516.463 15.6304 516.463 16.0708C516.463 17.7124 515.402 19.8812 513.279 22.5771C511.157 25.2598 508.688 27.7622 505.872 30.0845C503.056 32.3934 500.847 33.7881 499.246 34.2686L497.144 28.2427ZM502.309 37.9722C503.243 37.9722 504.057 38.1323 504.751 38.4526C505.459 38.7596 506.026 39.1266 506.453 39.5537C506.88 39.9808 507.18 40.3812 507.354 40.7549C507.527 41.1019 507.614 41.4956 507.614 41.936C507.614 42.59 507.474 43.2573 507.194 43.938C506.913 44.6053 506.573 45.1792 506.173 45.6597C505.772 46.1401 505.392 46.4204 505.031 46.5005C504.311 46.6073 503.79 46.6606 503.47 46.6606C502.162 46.6606 501.108 46.3203 500.307 45.6396C499.506 44.959 499.026 44.0114 498.865 42.7969C498.865 41.6624 499.139 40.6014 499.686 39.6138C500.247 38.6261 501.121 38.0789 502.309 37.9722Z" stroke="#3664AE" stroke-width="8" mask="url(#path-1-outside-1)"/></g><defs><filter id="filter0_d" x="0.998047" y="0.741699" width="523.465" height="64.3026" filterUnits="userSpaceOnUse" color-interpolation-filters="sRGB"><feFlood flood-opacity="0" result="BackgroundImageFix"/><feColorMatrix in="SourceAlpha" type="matrix" values="0 0 0 0 0 0 0 0 0 0 0 0 0 0 0 0 0 0 127 0" result="hardAlpha"/><feOffset dx="4" dy="4"/><feComposite in2="hardAlpha" operator="out"/><feColorMatrix type="matrix" values="0 0 0 0 0 0 0 0 0 0 0 0 0 0 0 0 0 0 0.3 0"/><feBlend mode="normal" in2="BackgroundImageFix" result="effect1_dropShadow"/><feBlend mode="normal" in="SourceGraphic" in2="effect1_dropShadow" result="shape"/></filter></defs></svg>