<svg width="813" height="94" viewBox="0 0 813 94" fill="none" xmlns="http://www.w3.org/2000/svg">
<g filter="url(#filter0_d_1118_3)">
<mask id="path-1-outside-1_1118_3" maskUnits="userSpaceOnUse" x="-0.255859" y="0.0625" width="809" height="90" fill="black">
<rect fill="white" x="-0.255859" y="0.0625" width="809" height="90"/>
<path d="M51.5254 72.0625L36.1816 73.0938L32.0879 66.4375L28.4941 75.6562L18.4941 75.9062L6.74414 21.125L24.9004 22.9062L28.2441 41.5938L31.8066 34.6875L36.6816 43.4062L39.2441 14.4688L56.9004 13.1875L51.5254 72.0625Z"/>
<path d="M76.6441 32.9062C80.3733 31.6771 83.5921 31.0625 86.3004 31.0625C88.7796 31.0625 90.9358 31.5938 92.7691 32.6562C93.8733 33.3021 95.1129 34.2812 96.4879 35.5938C97.8629 36.8854 99.0712 38.3125 100.113 39.875C101.175 41.4375 101.884 42.9583 102.238 44.4375C103.342 48.875 103.894 52.75 103.894 56.0625C103.894 57.8125 103.78 59.6562 103.55 61.5938C103.321 63.5104 102.967 65.9792 102.488 69L89.4254 69.7812C89.4671 68.7396 89.4879 67.2396 89.4879 65.2812C89.4879 57.1146 88.3629 50.1667 86.1129 44.4375C85.2379 42.2917 84.3837 41.2188 83.5504 41.2188C82.4671 41.2188 81.2691 42.7188 79.9566 45.7188C79.6441 46.4479 79.3837 47.2812 79.1754 48.2188C78.9879 49.1562 78.8421 50.2083 78.7379 51.375C78.6546 52.5417 78.6129 53.9167 78.6129 55.5C78.6129 58.7083 78.8004 62.7812 79.1754 67.7188L63.8316 69.5C63.665 68.2917 63.5608 66.875 63.5191 65.25C63.4566 63.625 63.415 61.9479 63.3941 60.2188C63.3525 58.4896 63.2796 56.9167 63.1754 55.5C63.0921 54.0625 62.9046 52.4375 62.6129 50.625L61.7691 9.875L74.5816 8.3125L76.6441 32.9062Z"/>
<path d="M135.732 35.1562C137.211 35.9479 138.409 37.0208 139.325 38.375C140.263 39.7083 140.94 41.2188 141.357 42.9062C141.794 44.5729 142.013 46.3125 142.013 48.125C142.013 49.625 141.888 51.0729 141.638 52.4688C141.409 53.8646 141.086 55.1458 140.669 56.3125C140.252 57.4792 139.763 58.4688 139.2 59.2812C137.888 61.2396 136.482 62.9271 134.982 64.3438C133.482 65.7604 131.95 66.9062 130.388 67.7812C128.825 68.6354 127.273 69.2604 125.732 69.6562C124.211 70.0729 122.7 70.2812 121.2 70.2812C119.43 70.2812 117.742 70 116.138 69.4375C114.555 68.8958 113.2 68.1771 112.075 67.2812C110.221 65.7396 108.773 63.6667 107.732 61.0625C106.69 58.4375 106.169 55.6667 106.169 52.75C106.169 47.7292 107.617 43.6771 110.513 40.5938C112.992 37.9479 115.555 35.9583 118.2 34.625C120.846 33.2708 123.555 32.5938 126.325 32.5938C127.95 32.5938 129.513 32.8021 131.013 33.2188C132.513 33.6146 134.086 34.2604 135.732 35.1562ZM133.888 40.4062C133.534 41.9896 132.763 43.3854 131.575 44.5938C130.409 45.8021 129.263 46.4062 128.138 46.4062C127.575 46.4062 127.075 46.2604 126.638 45.9688C126.013 45.4688 125.7 44.5938 125.7 43.3438C125.7 42.3854 126.013 41.4375 126.638 40.5C127.284 39.5625 128.294 38.8229 129.669 38.2812C128.294 38.2812 126.961 38.5417 125.669 39.0625C124.398 39.5833 123.305 40.2604 122.388 41.0938C121.471 41.9062 120.732 42.8333 120.169 43.875C119.627 44.8958 119.357 45.9271 119.357 46.9688C119.357 48.9062 120.252 50.4479 122.044 51.5938C123.711 52.6562 125.294 53.1875 126.794 53.1875C128.273 53.1875 129.586 52.6979 130.732 51.7188C131.877 50.7188 132.752 49.4479 133.357 47.9062C133.961 46.3438 134.263 44.8021 134.263 43.2812C134.263 42.2396 134.138 41.2812 133.888 40.4062Z"/>
<path d="M158.132 34L151.475 33.0938L146.413 13.125L159.413 14.9688L158.132 34Z"/>
<path d="M200.063 45.1875C199.438 44.9583 197.917 44.4792 195.5 43.75C193.105 43 190.959 42.3542 189.063 41.8125C187.188 41.2708 185.115 40.75 182.844 40.25C180.573 39.75 178.802 39.5 177.532 39.5C176.865 39.5 176.355 39.6042 176 39.8125C174.98 40.5833 174.469 41.2917 174.469 41.9375C174.469 42.9583 175.49 43.8438 177.532 44.5938C179.573 45.3229 182.052 45.8646 184.969 46.2188C188.969 46.6562 192.198 47.5938 194.657 49.0312C197.136 50.4688 198.927 52.1458 200.032 54.0625C201.136 55.9583 201.688 57.9062 201.688 59.9062C201.688 61.3229 201.407 62.6458 200.844 63.875C198.427 69 193.792 71.5625 186.938 71.5625C185.063 71.5625 182.948 71.3542 180.594 70.9375C178.24 70.5417 175.98 70.0417 173.813 69.4375C171.667 68.8542 169.375 68.1667 166.938 67.375C164.5 66.5833 162.23 65.8438 160.125 65.1562C160.667 64.0312 161.355 62.6771 162.188 61.0938C163.021 59.4896 163.834 57.9271 164.625 56.4062C165.396 54.8854 165.782 54.0521 165.782 53.9062C166.386 54.4688 167.136 54.9271 168.032 55.2812C168.948 55.6146 170.271 56.0208 172 56.5C173.75 56.9583 175.084 57.375 176 57.75C178.021 58.5 180.115 58.875 182.282 58.875C183.615 58.875 184.886 58.7396 186.094 58.4688C187.302 58.1771 187.948 57.9375 188.032 57.75C188.032 57.2083 187.105 56.6771 185.25 56.1562C183.417 55.6146 181.365 55.1979 179.094 54.9062C176.511 54.6146 173.907 53.9896 171.282 53.0312C168.677 52.0521 166.459 50.625 164.625 48.75C162.792 46.875 161.875 44.5625 161.875 41.8125C161.875 39.7083 162.407 37.5104 163.469 35.2188C164.636 32.6562 166.386 30.8021 168.719 29.6562C171.052 28.4896 173.844 27.9062 177.094 27.9062C180.844 27.9062 184.709 28.4375 188.688 29.5C192.667 30.5625 198.084 32.2083 204.938 34.4375C204.792 34.75 204.219 36.0833 203.219 38.4375C202.219 40.7708 201.469 42.4792 200.969 43.5625C200.469 44.6458 200.167 45.1875 200.063 45.1875Z"/>
<path d="M250.863 14.2188L264.519 8.0625L264.3 29.0625L274.488 29.3125V41.3438L263.925 41.4688C263.55 44.4271 263.363 47.2083 263.363 49.8125C263.363 51.9792 263.488 53.7708 263.738 55.1875C263.946 56.3542 264.467 57.25 265.3 57.875C266.134 58.5 267.102 58.8125 268.207 58.8125C269.436 58.8125 270.509 58.4479 271.425 57.7188C272.363 56.9896 272.832 55.9896 272.832 54.7188C272.832 54.5312 272.79 54.1667 272.707 53.625L282.925 46.9688C283.363 47.7812 283.905 49.1458 284.55 51.0625C285.217 52.9792 285.55 55.0729 285.55 57.3438C285.55 60.0729 284.832 62.5417 283.394 64.75C281.957 66.9583 279.498 68.6354 276.019 69.7812C273.582 70.5729 271.28 70.9688 269.113 70.9688C265.842 70.9688 262.957 70.25 260.457 68.8125C257.977 67.375 255.915 65.6458 254.269 63.625C253.498 62.6875 252.894 61.1354 252.457 58.9688C252.04 56.8021 251.769 54.5417 251.644 52.1875C251.519 49.8333 251.457 47.4792 251.457 45.125V41.5938L242.238 41.875L239.925 27.7812L251.582 28.5625L250.863 14.2188Z"/>
<path d="M305.482 32.9062C309.211 31.6771 312.43 31.0625 315.138 31.0625C317.617 31.0625 319.773 31.5938 321.607 32.6562C322.711 33.3021 323.95 34.2812 325.325 35.5938C326.7 36.8854 327.909 38.3125 328.95 39.875C330.013 41.4375 330.721 42.9583 331.075 44.4375C332.18 48.875 332.732 52.75 332.732 56.0625C332.732 57.8125 332.617 59.6562 332.388 61.5938C332.159 63.5104 331.805 65.9792 331.325 69L318.263 69.7812C318.305 68.7396 318.325 67.2396 318.325 65.2812C318.325 57.1146 317.2 50.1667 314.95 44.4375C314.075 42.2917 313.221 41.2188 312.388 41.2188C311.305 41.2188 310.107 42.7188 308.794 45.7188C308.482 46.4479 308.221 47.2812 308.013 48.2188C307.825 49.1562 307.68 50.2083 307.575 51.375C307.492 52.5417 307.45 53.9167 307.45 55.5C307.45 58.7083 307.638 62.7812 308.013 67.7188L292.669 69.5C292.502 68.2917 292.398 66.875 292.357 65.25C292.294 63.625 292.252 61.9479 292.232 60.2188C292.19 58.4896 292.117 56.9167 292.013 55.5C291.93 54.0625 291.742 52.4375 291.45 50.625L290.607 9.875L303.419 8.3125L305.482 32.9062Z"/>
<path d="M356.975 38.4062C355.83 38.5521 354.694 38.9167 353.569 39.5C352.465 40.0833 351.517 40.7708 350.725 41.5625C349.934 42.3542 349.309 43.2292 348.85 44.1875C348.413 45.125 348.194 46.0521 348.194 46.9688C348.194 48.8646 349.09 50.4062 350.882 51.5938C352.465 52.6562 354.069 53.1875 355.694 53.1875C356.007 53.1875 356.434 53.1458 356.975 53.0625V46.4062C356.413 46.4062 355.913 46.2604 355.475 45.9688C354.85 45.4688 354.538 44.5104 354.538 43.0938C354.538 41.0521 355.35 39.4896 356.975 38.4062ZM357.225 32.9062L370.288 27.0312L370.538 44.5C370.705 45.5833 370.788 46.8125 370.788 48.1875C370.788 49.3958 370.746 50.2917 370.663 50.875L371.038 70.0312L356.975 70.7812V68.875C354.684 69.8125 352.371 70.2812 350.038 70.2812C348.246 70.2812 346.559 70.0104 344.975 69.4688C343.413 68.9271 342.059 68.1979 340.913 67.2812C339.059 65.7396 337.611 63.6667 336.569 61.0625C335.527 58.4375 335.007 55.6667 335.007 52.75C335.007 47.7292 336.455 43.6771 339.35 40.5938C341.85 37.9688 344.423 35.9792 347.069 34.625C349.736 33.2708 352.455 32.5938 355.225 32.5938C355.996 32.5938 356.58 32.6146 356.975 32.6562L357.225 32.9062Z"/>
<path d="M380.5 14.2188L394.157 8.0625L393.938 29.0625L404.125 29.3125V41.3438L393.563 41.4688C393.188 44.4271 393 47.2083 393 49.8125C393 51.9792 393.125 53.7708 393.375 55.1875C393.584 56.3542 394.105 57.25 394.938 57.875C395.771 58.5 396.74 58.8125 397.844 58.8125C399.073 58.8125 400.146 58.4479 401.063 57.7188C402 56.9896 402.469 55.9896 402.469 54.7188C402.469 54.5312 402.427 54.1667 402.344 53.625L412.563 46.9688C413 47.7812 413.542 49.1458 414.188 51.0625C414.855 52.9792 415.188 55.0729 415.188 57.3438C415.188 60.0729 414.469 62.5417 413.032 64.75C411.594 66.9583 409.136 68.6354 405.657 69.7812C403.219 70.5729 400.917 70.9688 398.75 70.9688C395.48 70.9688 392.594 70.25 390.094 68.8125C387.615 67.375 385.552 65.6458 383.907 63.625C383.136 62.6875 382.532 61.1354 382.094 58.9688C381.677 56.8021 381.407 54.5417 381.282 52.1875C381.157 49.8333 381.094 47.4792 381.094 45.125V41.5938L371.875 41.875L369.563 27.7812L381.219 28.5625L380.5 14.2188Z"/>
<path d="M456.863 19.3438C459.384 18.5104 461.748 17.7396 463.957 17.0312C466.186 16.3229 468.53 15.6562 470.988 15.0312C473.446 14.3854 475.8 13.875 478.05 13.5C479.78 13.2083 481.55 13.0625 483.363 13.0625C486.384 13.0625 488.363 13.1458 489.3 13.3125C490.717 13.5833 492.05 14.0208 493.3 14.625C494.571 15.2292 495.696 16.0417 496.675 17.0625C497.675 18.0625 498.488 19.25 499.113 20.625C499.363 21.1875 499.488 21.7812 499.488 22.4062C499.488 24.7396 498.207 27.6146 495.644 31.0312C493.102 34.4479 490.54 37.4271 487.957 39.9688C485.394 42.5104 483.477 44.3333 482.207 45.4375L487.832 65.1562L479.644 71.0625L465.3 30.0938C465.259 30.0938 465.061 30.2917 464.707 30.6875C464.352 31.0833 463.884 31.6042 463.3 32.25C462.738 32.875 462.384 33.2604 462.238 33.4062C462.175 33.4062 461.967 32.9583 461.613 32.0625C461.28 31.1667 460.821 29.9271 460.238 28.3438C459.675 26.7396 459.04 24.9688 458.332 23.0312C457.602 21.0729 457.113 19.8438 456.863 19.3438ZM477.082 28.0312L479.644 37.25C480.936 35.9375 482.54 34.1458 484.457 31.875C486.373 29.6042 487.332 27.9583 487.332 26.9375C487.332 26.5417 487.165 26.3125 486.832 26.25C485.894 26.0417 484.967 25.9375 484.05 25.9375C481.3 25.9375 478.977 26.6354 477.082 28.0312Z"/>
<path d="M529.357 35.1562C530.836 35.9479 532.034 37.0208 532.95 38.375C533.888 39.7083 534.565 41.2188 534.982 42.9062C535.419 44.5729 535.638 46.3125 535.638 48.125C535.638 49.625 535.513 51.0729 535.263 52.4688C535.034 53.8646 534.711 55.1458 534.294 56.3125C533.877 57.4792 533.388 58.4688 532.825 59.2812C531.513 61.2396 530.107 62.9271 528.607 64.3438C527.107 65.7604 525.575 66.9062 524.013 67.7812C522.45 68.6354 520.898 69.2604 519.357 69.6562C517.836 70.0729 516.325 70.2812 514.825 70.2812C513.055 70.2812 511.367 70 509.763 69.4375C508.18 68.8958 506.825 68.1771 505.7 67.2812C503.846 65.7396 502.398 63.6667 501.357 61.0625C500.315 58.4375 499.794 55.6667 499.794 52.75C499.794 47.7292 501.242 43.6771 504.138 40.5938C506.617 37.9479 509.18 35.9583 511.825 34.625C514.471 33.2708 517.18 32.5938 519.95 32.5938C521.575 32.5938 523.138 32.8021 524.638 33.2188C526.138 33.6146 527.711 34.2604 529.357 35.1562ZM527.513 40.4062C527.159 41.9896 526.388 43.3854 525.2 44.5938C524.034 45.8021 522.888 46.4062 521.763 46.4062C521.2 46.4062 520.7 46.2604 520.263 45.9688C519.638 45.4688 519.325 44.5938 519.325 43.3438C519.325 42.3854 519.638 41.4375 520.263 40.5C520.909 39.5625 521.919 38.8229 523.294 38.2812C521.919 38.2812 520.586 38.5417 519.294 39.0625C518.023 39.5833 516.93 40.2604 516.013 41.0938C515.096 41.9062 514.357 42.8333 513.794 43.875C513.252 44.8958 512.982 45.9271 512.982 46.9688C512.982 48.9062 513.877 50.4479 515.669 51.5938C517.336 52.6562 518.919 53.1875 520.419 53.1875C521.898 53.1875 523.211 52.6979 524.357 51.7188C525.502 50.7188 526.377 49.4479 526.982 47.9062C527.586 46.3438 527.888 44.8021 527.888 43.2812C527.888 42.2396 527.763 41.2812 527.513 40.4062Z"/>
<path d="M536.85 16.7812L552.725 10.125L555.038 46.2188L568.1 39.0625L581.663 41.0938L563.975 54.6562L580.632 67.2188L581.382 79.75L556.819 62.0938L557.6 77.4375L542.725 77.7188L539.913 23.4375L535.319 24.4688L536.85 16.7812Z"/>
<path d="M609.813 51.7188L617.344 60.8125C616.74 62.5625 615.302 64.1667 613.032 65.625C610.782 67.0833 608.094 68.2292 604.969 69.0625C601.865 69.9167 598.761 70.3438 595.657 70.3438C592.907 70.3438 590.448 69.9792 588.282 69.25C586.136 68.5208 584.48 67.4167 583.313 65.9375C581.292 63.3958 580.282 60.1458 580.282 56.1875C580.282 53.0625 580.844 49.9896 581.969 46.9688C583.115 43.9271 584.323 41.8021 585.594 40.5938C587.115 39.1562 588.761 37.9583 590.532 37C592.323 36.0417 594.177 35.3229 596.094 34.8438C598.011 34.3646 599.98 34.125 602 34.125C604.646 34.125 607.157 34.5521 609.532 35.4062C611.927 36.2396 614.021 37.4583 615.813 39.0625L598.657 59.5312C600.177 59.5312 601.615 59.2188 602.969 58.5938C604.344 57.9479 605.605 57.0417 606.75 55.875C607.896 54.6875 608.917 53.3021 609.813 51.7188ZM601.157 44.4375C600.136 43.9167 599.094 43.6562 598.032 43.6562C596.907 43.6562 595.813 43.8854 594.75 44.3438C593.709 44.8021 592.969 45.3438 592.532 45.9688C591.24 47.6354 590.594 49.4688 590.594 51.4688C590.594 52.1979 590.667 52.8958 590.813 53.5625C590.959 54.2292 591.209 55.1458 591.563 56.3125L601.157 44.4375ZM585.094 21.9062L601.75 12.6875L608.907 23.6875L588.688 27.5312L585.094 21.9062Z"/>
<path d="M647.682 33.1562C653.077 31.4479 657.088 30.5938 659.713 30.5938C661.796 30.5938 663.588 31.0208 665.088 31.875C666.942 32.9375 668.942 34.75 671.088 37.3125C673.234 39.875 674.567 42.25 675.088 44.4375C676.192 48.875 676.744 52.75 676.744 56.0625C676.744 57.8125 676.63 59.6562 676.4 61.5938C676.171 63.5104 675.817 65.9792 675.338 69L662.275 69.7812C662.317 68.7396 662.338 67.2396 662.338 65.2812C662.338 57.1146 661.213 50.1667 658.963 44.4375C658.546 43.4167 658.057 42.6146 657.494 42.0312C656.932 41.4479 656.432 41.1562 655.994 41.1562C655.536 41.1562 655.307 41.4792 655.307 42.125C655.307 42.5 655.348 42.8229 655.432 43.0938C655.577 43.4271 655.723 43.875 655.869 44.4375C656.994 48.9583 657.557 52.8333 657.557 56.0625C657.557 57.6458 657.452 59.3125 657.244 61.0625C657.036 62.7917 656.671 65.4375 656.15 69L643.088 69.7812C643.13 68.7396 643.15 67.2396 643.15 65.2812C643.15 57.0938 642.015 50.1458 639.744 44.4375C639.473 43.7708 639.265 43.0729 639.119 42.3438C638.973 41.5938 638.869 41.2188 638.807 41.2188C638.723 41.2188 638.484 41.7083 638.088 42.6875C637.692 43.6667 637.265 44.6771 636.807 45.7188C636.494 46.4479 636.234 47.2812 636.025 48.2188C635.838 49.1562 635.692 50.2083 635.588 51.375C635.505 52.5417 635.463 53.9167 635.463 55.5C635.463 58.7083 635.65 62.7812 636.025 67.7188L620.682 69.5C620.432 67.6667 620.202 65.8438 619.994 64.0312C619.786 62.2188 619.619 60.5417 619.494 59C619.39 57.4375 619.338 55.7604 619.338 53.9688C619.338 53.1979 619.38 52.0833 619.463 50.625L618.9 32.4062L631.182 30.8438L632.963 32.9062C636.255 31.8438 638.942 31.3125 641.025 31.3125C643.338 31.3125 645.557 31.9271 647.682 33.1562Z"/>
<path d="M708.582 35.1562C710.061 35.9479 711.259 37.0208 712.175 38.375C713.113 39.7083 713.79 41.2188 714.207 42.9062C714.644 44.5729 714.863 46.3125 714.863 48.125C714.863 49.625 714.738 51.0729 714.488 52.4688C714.259 53.8646 713.936 55.1458 713.519 56.3125C713.102 57.4792 712.613 58.4688 712.05 59.2812C710.738 61.2396 709.332 62.9271 707.832 64.3438C706.332 65.7604 704.8 66.9062 703.238 67.7812C701.675 68.6354 700.123 69.2604 698.582 69.6562C697.061 70.0729 695.55 70.2812 694.05 70.2812C692.28 70.2812 690.592 70 688.988 69.4375C687.405 68.8958 686.05 68.1771 684.925 67.2812C683.071 65.7396 681.623 63.6667 680.582 61.0625C679.54 58.4375 679.019 55.6667 679.019 52.75C679.019 47.7292 680.467 43.6771 683.363 40.5938C685.842 37.9479 688.405 35.9583 691.05 34.625C693.696 33.2708 696.405 32.5938 699.175 32.5938C700.8 32.5938 702.363 32.8021 703.863 33.2188C705.363 33.6146 706.936 34.2604 708.582 35.1562ZM706.738 40.4062C706.384 41.9896 705.613 43.3854 704.425 44.5938C703.259 45.8021 702.113 46.4062 700.988 46.4062C700.425 46.4062 699.925 46.2604 699.488 45.9688C698.863 45.4688 698.55 44.5938 698.55 43.3438C698.55 42.3854 698.863 41.4375 699.488 40.5C700.134 39.5625 701.144 38.8229 702.519 38.2812C701.144 38.2812 699.811 38.5417 698.519 39.0625C697.248 39.5833 696.155 40.2604 695.238 41.0938C694.321 41.9062 693.582 42.8333 693.019 43.875C692.477 44.8958 692.207 45.9271 692.207 46.9688C692.207 48.9062 693.102 50.4479 694.894 51.5938C696.561 52.6562 698.144 53.1875 699.644 53.1875C701.123 53.1875 702.436 52.6979 703.582 51.7188C704.727 50.7188 705.602 49.4479 706.207 47.9062C706.811 46.3438 707.113 44.8021 707.113 43.2812C707.113 42.2396 706.988 41.2812 706.738 40.4062Z"/>
<path d="M732.2 32.9062C734.513 32.1354 736.502 31.5521 738.169 31.1562C739.836 30.7396 741.429 30.5312 742.95 30.5312C744.992 30.5312 746.784 30.9792 748.325 31.875C750.179 32.9375 752.179 34.75 754.325 37.3125C756.471 39.875 757.804 42.25 758.325 44.4375C759.429 48.875 759.982 52.75 759.982 56.0625C759.982 57.8125 759.867 59.6562 759.638 61.5938C759.409 63.5104 759.054 65.9792 758.575 69L745.513 69.7812C745.554 68.7396 745.575 67.2396 745.575 65.2812C745.575 57.1146 744.45 50.1667 742.2 44.4375C741.325 42.2917 740.471 41.2188 739.638 41.2188C738.554 41.2188 737.357 42.7188 736.044 45.7188C735.732 46.4479 735.471 47.2812 735.263 48.2188C735.075 49.1562 734.929 50.2083 734.825 51.375C734.742 52.5417 734.7 53.9167 734.7 55.5C734.7 58.7083 734.888 62.7812 735.263 67.7188L719.919 69.5C719.669 67.6667 719.44 65.8438 719.232 64.0312C719.023 62.2188 718.857 60.5417 718.732 59C718.627 57.4375 718.575 55.7604 718.575 53.9688C718.575 53.1979 718.617 52.0833 718.7 50.625L718.138 32.4062L730.419 30.8438L732.2 32.9062Z"/>
<path d="M773.319 41.2812C775.319 41.2188 777.361 40.625 779.444 39.5C781.548 38.375 783.496 36.9896 785.288 35.3438C787.08 33.6771 788.527 32.0521 789.632 30.4688C790.757 28.8854 791.319 27.7083 791.319 26.9375C791.319 26.5417 791.173 26.3125 790.882 26.25C790.361 26.125 789.777 26.0625 789.132 26.0625C788.007 26.0625 786.298 26.2917 784.007 26.75C781.736 27.2083 780.35 27.4688 779.85 27.5312C778.559 27.6771 776.882 28.1979 774.819 29.0938C772.757 29.9688 770.861 30.8646 769.132 31.7812C767.423 32.6771 766.475 33.2188 766.288 33.4062C766.225 33.4062 766.017 32.9583 765.663 32.0625C765.33 31.1667 764.871 29.9271 764.288 28.3438C763.725 26.7396 763.09 24.9688 762.382 23.0312C761.652 21.0729 761.163 19.8438 760.913 19.3438C763.434 18.5104 765.798 17.7396 768.007 17.0312C770.236 16.3229 772.58 15.6562 775.038 15.0312C777.496 14.3854 779.84 13.875 782.069 13.5C784.319 13.125 786.527 12.9375 788.694 12.9375C790.382 12.9375 791.934 13.0729 793.35 13.3438C794.767 13.5938 796.1 14.0208 797.35 14.625C798.621 15.2292 799.746 16.0417 800.725 17.0625C801.725 18.0625 802.538 19.25 803.163 20.625C803.371 21.0417 803.475 21.5938 803.475 22.2812C803.475 24.8438 801.819 28.2292 798.507 32.4375C795.194 36.625 791.34 40.5312 786.944 44.1562C782.548 47.7604 779.1 49.9375 776.6 50.6875L773.319 41.2812ZM781.382 56.4688C782.84 56.4688 784.111 56.7188 785.194 57.2188C786.298 57.6979 787.184 58.2708 787.85 58.9375C788.517 59.6042 788.986 60.2292 789.257 60.8125C789.527 61.3542 789.663 61.9688 789.663 62.6562C789.663 63.6771 789.444 64.7188 789.007 65.7812C788.569 66.8229 788.038 67.7188 787.413 68.4688C786.788 69.2188 786.194 69.6562 785.632 69.7812C784.507 69.9479 783.694 70.0312 783.194 70.0312C781.152 70.0312 779.507 69.5 778.257 68.4375C777.007 67.375 776.257 65.8958 776.007 64C776.007 62.2292 776.434 60.5729 777.288 59.0312C778.163 57.4896 779.527 56.6354 781.382 56.4688Z"/>
</mask>
<path d="M51.5254 72.0625L36.1816 73.0938L32.0879 66.4375L28.4941 75.6562L18.4941 75.9062L6.74414 21.125L24.9004 22.9062L28.2441 41.5938L31.8066 34.6875L36.6816 43.4062L39.2441 14.4688L56.9004 13.1875L51.5254 72.0625Z" fill="#FFCB08"/>
<path d="M76.6441 32.9062C80.3733 31.6771 83.5921 31.0625 86.3004 31.0625C88.7796 31.0625 90.9358 31.5938 92.7691 32.6562C93.8733 33.3021 95.1129 34.2812 96.4879 35.5938C97.8629 36.8854 99.0712 38.3125 100.113 39.875C101.175 41.4375 101.884 42.9583 102.238 44.4375C103.342 48.875 103.894 52.75 103.894 56.0625C103.894 57.8125 103.78 59.6562 103.55 61.5938C103.321 63.5104 102.967 65.9792 102.488 69L89.4254 69.7812C89.4671 68.7396 89.4879 67.2396 89.4879 65.2812C89.4879 57.1146 88.3629 50.1667 86.1129 44.4375C85.2379 42.2917 84.3837 41.2188 83.5504 41.2188C82.4671 41.2188 81.2691 42.7188 79.9566 45.7188C79.6441 46.4479 79.3837 47.2812 79.1754 48.2188C78.9879 49.1562 78.8421 50.2083 78.7379 51.375C78.6546 52.5417 78.6129 53.9167 78.6129 55.5C78.6129 58.7083 78.8004 62.7812 79.1754 67.7188L63.8316 69.5C63.665 68.2917 63.5608 66.875 63.5191 65.25C63.4566 63.625 63.415 61.9479 63.3941 60.2188C63.3525 58.4896 63.2796 56.9167 63.1754 55.5C63.0921 54.0625 62.9046 52.4375 62.6129 50.625L61.7691 9.875L74.5816 8.3125L76.6441 32.9062Z" fill="#FFCB08"/>
<path d="M135.732 35.1562C137.211 35.9479 138.409 37.0208 139.325 38.375C140.263 39.7083 140.94 41.2188 141.357 42.9062C141.794 44.5729 142.013 46.3125 142.013 48.125C142.013 49.625 141.888 51.0729 141.638 52.4688C141.409 53.8646 141.086 55.1458 140.669 56.3125C140.252 57.4792 139.763 58.4688 139.2 59.2812C137.888 61.2396 136.482 62.9271 134.982 64.3438C133.482 65.7604 131.95 66.9062 130.388 67.7812C128.825 68.6354 127.273 69.2604 125.732 69.6562C124.211 70.0729 122.7 70.2812 121.2 70.2812C119.43 70.2812 117.742 70 116.138 69.4375C114.555 68.8958 113.2 68.1771 112.075 67.2812C110.221 65.7396 108.773 63.6667 107.732 61.0625C106.69 58.4375 106.169 55.6667 106.169 52.75C106.169 47.7292 107.617 43.6771 110.513 40.5938C112.992 37.9479 115.555 35.9583 118.2 34.625C120.846 33.2708 123.555 32.5938 126.325 32.5938C127.95 32.5938 129.513 32.8021 131.013 33.2188C132.513 33.6146 134.086 34.2604 135.732 35.1562ZM133.888 40.4062C133.534 41.9896 132.763 43.3854 131.575 44.5938C130.409 45.8021 129.263 46.4062 128.138 46.4062C127.575 46.4062 127.075 46.2604 126.638 45.9688C126.013 45.4688 125.7 44.5938 125.7 43.3438C125.7 42.3854 126.013 41.4375 126.638 40.5C127.284 39.5625 128.294 38.8229 129.669 38.2812C128.294 38.2812 126.961 38.5417 125.669 39.0625C124.398 39.5833 123.305 40.2604 122.388 41.0938C121.471 41.9062 120.732 42.8333 120.169 43.875C119.627 44.8958 119.357 45.9271 119.357 46.9688C119.357 48.9062 120.252 50.4479 122.044 51.5938C123.711 52.6562 125.294 53.1875 126.794 53.1875C128.273 53.1875 129.586 52.6979 130.732 51.7188C131.877 50.7188 132.752 49.4479 133.357 47.9062C133.961 46.3438 134.263 44.8021 134.263 43.2812C134.263 42.2396 134.138 41.2812 133.888 40.4062Z" fill="#FFCB08"/>
<path d="M158.132 34L151.475 33.0938L146.413 13.125L159.413 14.9688L158.132 34Z" fill="#FFCB08"/>
<path d="M200.063 45.1875C199.438 44.9583 197.917 44.4792 195.5 43.75C193.105 43 190.959 42.3542 189.063 41.8125C187.188 41.2708 185.115 40.75 182.844 40.25C180.573 39.75 178.802 39.5 177.532 39.5C176.865 39.5 176.355 39.6042 176 39.8125C174.98 40.5833 174.469 41.2917 174.469 41.9375C174.469 42.9583 175.49 43.8438 177.532 44.5938C179.573 45.3229 182.052 45.8646 184.969 46.2188C188.969 46.6562 192.198 47.5938 194.657 49.0312C197.136 50.4688 198.927 52.1458 200.032 54.0625C201.136 55.9583 201.688 57.9062 201.688 59.9062C201.688 61.3229 201.407 62.6458 200.844 63.875C198.427 69 193.792 71.5625 186.938 71.5625C185.063 71.5625 182.948 71.3542 180.594 70.9375C178.24 70.5417 175.98 70.0417 173.813 69.4375C171.667 68.8542 169.375 68.1667 166.938 67.375C164.5 66.5833 162.23 65.8438 160.125 65.1562C160.667 64.0312 161.355 62.6771 162.188 61.0938C163.021 59.4896 163.834 57.9271 164.625 56.4062C165.396 54.8854 165.782 54.0521 165.782 53.9062C166.386 54.4688 167.136 54.9271 168.032 55.2812C168.948 55.6146 170.271 56.0208 172 56.5C173.75 56.9583 175.084 57.375 176 57.75C178.021 58.5 180.115 58.875 182.282 58.875C183.615 58.875 184.886 58.7396 186.094 58.4688C187.302 58.1771 187.948 57.9375 188.032 57.75C188.032 57.2083 187.105 56.6771 185.25 56.1562C183.417 55.6146 181.365 55.1979 179.094 54.9062C176.511 54.6146 173.907 53.9896 171.282 53.0312C168.677 52.0521 166.459 50.625 164.625 48.75C162.792 46.875 161.875 44.5625 161.875 41.8125C161.875 39.7083 162.407 37.5104 163.469 35.2188C164.636 32.6562 166.386 30.8021 168.719 29.6562C171.052 28.4896 173.844 27.9062 177.094 27.9062C180.844 27.9062 184.709 28.4375 188.688 29.5C192.667 30.5625 198.084 32.2083 204.938 34.4375C204.792 34.75 204.219 36.0833 203.219 38.4375C202.219 40.7708 201.469 42.4792 200.969 43.5625C200.469 44.6458 200.167 45.1875 200.063 45.1875Z" fill="#FFCB08"/>
<path d="M250.863 14.2188L264.519 8.0625L264.3 29.0625L274.488 29.3125V41.3438L263.925 41.4688C263.55 44.4271 263.363 47.2083 263.363 49.8125C263.363 51.9792 263.488 53.7708 263.738 55.1875C263.946 56.3542 264.467 57.25 265.3 57.875C266.134 58.5 267.102 58.8125 268.207 58.8125C269.436 58.8125 270.509 58.4479 271.425 57.7188C272.363 56.9896 272.832 55.9896 272.832 54.7188C272.832 54.5312 272.79 54.1667 272.707 53.625L282.925 46.9688C283.363 47.7812 283.905 49.1458 284.55 51.0625C285.217 52.9792 285.55 55.0729 285.55 57.3438C285.55 60.0729 284.832 62.5417 283.394 64.75C281.957 66.9583 279.498 68.6354 276.019 69.7812C273.582 70.5729 271.28 70.9688 269.113 70.9688C265.842 70.9688 262.957 70.25 260.457 68.8125C257.977 67.375 255.915 65.6458 254.269 63.625C253.498 62.6875 252.894 61.1354 252.457 58.9688C252.04 56.8021 251.769 54.5417 251.644 52.1875C251.519 49.8333 251.457 47.4792 251.457 45.125V41.5938L242.238 41.875L239.925 27.7812L251.582 28.5625L250.863 14.2188Z" fill="#FFCB08"/>
<path d="M305.482 32.9062C309.211 31.6771 312.43 31.0625 315.138 31.0625C317.617 31.0625 319.773 31.5938 321.607 32.6562C322.711 33.3021 323.95 34.2812 325.325 35.5938C326.7 36.8854 327.909 38.3125 328.95 39.875C330.013 41.4375 330.721 42.9583 331.075 44.4375C332.18 48.875 332.732 52.75 332.732 56.0625C332.732 57.8125 332.617 59.6562 332.388 61.5938C332.159 63.5104 331.805 65.9792 331.325 69L318.263 69.7812C318.305 68.7396 318.325 67.2396 318.325 65.2812C318.325 57.1146 317.2 50.1667 314.95 44.4375C314.075 42.2917 313.221 41.2188 312.388 41.2188C311.305 41.2188 310.107 42.7188 308.794 45.7188C308.482 46.4479 308.221 47.2812 308.013 48.2188C307.825 49.1562 307.68 50.2083 307.575 51.375C307.492 52.5417 307.45 53.9167 307.45 55.5C307.45 58.7083 307.638 62.7812 308.013 67.7188L292.669 69.5C292.502 68.2917 292.398 66.875 292.357 65.25C292.294 63.625 292.252 61.9479 292.232 60.2188C292.19 58.4896 292.117 56.9167 292.013 55.5C291.93 54.0625 291.742 52.4375 291.45 50.625L290.607 9.875L303.419 8.3125L305.482 32.9062Z" fill="#FFCB08"/>
<path d="M356.975 38.4062C355.83 38.5521 354.694 38.9167 353.569 39.5C352.465 40.0833 351.517 40.7708 350.725 41.5625C349.934 42.3542 349.309 43.2292 348.85 44.1875C348.413 45.125 348.194 46.0521 348.194 46.9688C348.194 48.8646 349.09 50.4062 350.882 51.5938C352.465 52.6562 354.069 53.1875 355.694 53.1875C356.007 53.1875 356.434 53.1458 356.975 53.0625V46.4062C356.413 46.4062 355.913 46.2604 355.475 45.9688C354.85 45.4688 354.538 44.5104 354.538 43.0938C354.538 41.0521 355.35 39.4896 356.975 38.4062ZM357.225 32.9062L370.288 27.0312L370.538 44.5C370.705 45.5833 370.788 46.8125 370.788 48.1875C370.788 49.3958 370.746 50.2917 370.663 50.875L371.038 70.0312L356.975 70.7812V68.875C354.684 69.8125 352.371 70.2812 350.038 70.2812C348.246 70.2812 346.559 70.0104 344.975 69.4688C343.413 68.9271 342.059 68.1979 340.913 67.2812C339.059 65.7396 337.611 63.6667 336.569 61.0625C335.527 58.4375 335.007 55.6667 335.007 52.75C335.007 47.7292 336.455 43.6771 339.35 40.5938C341.85 37.9688 344.423 35.9792 347.069 34.625C349.736 33.2708 352.455 32.5938 355.225 32.5938C355.996 32.5938 356.58 32.6146 356.975 32.6562L357.225 32.9062Z" fill="#FFCB08"/>
<path d="M380.5 14.2188L394.157 8.0625L393.938 29.0625L404.125 29.3125V41.3438L393.563 41.4688C393.188 44.4271 393 47.2083 393 49.8125C393 51.9792 393.125 53.7708 393.375 55.1875C393.584 56.3542 394.105 57.25 394.938 57.875C395.771 58.5 396.74 58.8125 397.844 58.8125C399.073 58.8125 400.146 58.4479 401.063 57.7188C402 56.9896 402.469 55.9896 402.469 54.7188C402.469 54.5312 402.427 54.1667 402.344 53.625L412.563 46.9688C413 47.7812 413.542 49.1458 414.188 51.0625C414.855 52.9792 415.188 55.0729 415.188 57.3438C415.188 60.0729 414.469 62.5417 413.032 64.75C411.594 66.9583 409.136 68.6354 405.657 69.7812C403.219 70.5729 400.917 70.9688 398.75 70.9688C395.48 70.9688 392.594 70.25 390.094 68.8125C387.615 67.375 385.552 65.6458 383.907 63.625C383.136 62.6875 382.532 61.1354 382.094 58.9688C381.677 56.8021 381.407 54.5417 381.282 52.1875C381.157 49.8333 381.094 47.4792 381.094 45.125V41.5938L371.875 41.875L369.563 27.7812L381.219 28.5625L380.5 14.2188Z" fill="#FFCB08"/>
<path d="M456.863 19.3438C459.384 18.5104 461.748 17.7396 463.957 17.0312C466.186 16.3229 468.53 15.6562 470.988 15.0312C473.446 14.3854 475.8 13.875 478.05 13.5C479.78 13.2083 481.55 13.0625 483.363 13.0625C486.384 13.0625 488.363 13.1458 489.3 13.3125C490.717 13.5833 492.05 14.0208 493.3 14.625C494.571 15.2292 495.696 16.0417 496.675 17.0625C497.675 18.0625 498.488 19.25 499.113 20.625C499.363 21.1875 499.488 21.7812 499.488 22.4062C499.488 24.7396 498.207 27.6146 495.644 31.0312C493.102 34.4479 490.54 37.4271 487.957 39.9688C485.394 42.5104 483.477 44.3333 482.207 45.4375L487.832 65.1562L479.644 71.0625L465.3 30.0938C465.259 30.0938 465.061 30.2917 464.707 30.6875C464.352 31.0833 463.884 31.6042 463.3 32.25C462.738 32.875 462.384 33.2604 462.238 33.4062C462.175 33.4062 461.967 32.9583 461.613 32.0625C461.28 31.1667 460.821 29.9271 460.238 28.3438C459.675 26.7396 459.04 24.9688 458.332 23.0312C457.602 21.0729 457.113 19.8438 456.863 19.3438ZM477.082 28.0312L479.644 37.25C480.936 35.9375 482.54 34.1458 484.457 31.875C486.373 29.6042 487.332 27.9583 487.332 26.9375C487.332 26.5417 487.165 26.3125 486.832 26.25C485.894 26.0417 484.967 25.9375 484.05 25.9375C481.3 25.9375 478.977 26.6354 477.082 28.0312Z" fill="#FFCB08"/>
<path d="M529.357 35.1562C530.836 35.9479 532.034 37.0208 532.95 38.375C533.888 39.7083 534.565 41.2188 534.982 42.9062C535.419 44.5729 535.638 46.3125 535.638 48.125C535.638 49.625 535.513 51.0729 535.263 52.4688C535.034 53.8646 534.711 55.1458 534.294 56.3125C533.877 57.4792 533.388 58.4688 532.825 59.2812C531.513 61.2396 530.107 62.9271 528.607 64.3438C527.107 65.7604 525.575 66.9062 524.013 67.7812C522.45 68.6354 520.898 69.2604 519.357 69.6562C517.836 70.0729 516.325 70.2812 514.825 70.2812C513.055 70.2812 511.367 70 509.763 69.4375C508.18 68.8958 506.825 68.1771 505.7 67.2812C503.846 65.7396 502.398 63.6667 501.357 61.0625C500.315 58.4375 499.794 55.6667 499.794 52.75C499.794 47.7292 501.242 43.6771 504.138 40.5938C506.617 37.9479 509.18 35.9583 511.825 34.625C514.471 33.2708 517.18 32.5938 519.95 32.5938C521.575 32.5938 523.138 32.8021 524.638 33.2188C526.138 33.6146 527.711 34.2604 529.357 35.1562ZM527.513 40.4062C527.159 41.9896 526.388 43.3854 525.2 44.5938C524.034 45.8021 522.888 46.4062 521.763 46.4062C521.2 46.4062 520.7 46.2604 520.263 45.9688C519.638 45.4688 519.325 44.5938 519.325 43.3438C519.325 42.3854 519.638 41.4375 520.263 40.5C520.909 39.5625 521.919 38.8229 523.294 38.2812C521.919 38.2812 520.586 38.5417 519.294 39.0625C518.023 39.5833 516.93 40.2604 516.013 41.0938C515.096 41.9062 514.357 42.8333 513.794 43.875C513.252 44.8958 512.982 45.9271 512.982 46.9688C512.982 48.9062 513.877 50.4479 515.669 51.5938C517.336 52.6562 518.919 53.1875 520.419 53.1875C521.898 53.1875 523.211 52.6979 524.357 51.7188C525.502 50.7188 526.377 49.4479 526.982 47.9062C527.586 46.3438 527.888 44.8021 527.888 43.2812C527.888 42.2396 527.763 41.2812 527.513 40.4062Z" fill="#FFCB08"/>
<path d="M536.85 16.7812L552.725 10.125L555.038 46.2188L568.1 39.0625L581.663 41.0938L563.975 54.6562L580.632 67.2188L581.382 79.75L556.819 62.0938L557.6 77.4375L542.725 77.7188L539.913 23.4375L535.319 24.4688L536.85 16.7812Z" fill="#FFCB08"/>
<path d="M609.813 51.7188L617.344 60.8125C616.74 62.5625 615.302 64.1667 613.032 65.625C610.782 67.0833 608.094 68.2292 604.969 69.0625C601.865 69.9167 598.761 70.3438 595.657 70.3438C592.907 70.3438 590.448 69.9792 588.282 69.25C586.136 68.5208 584.48 67.4167 583.313 65.9375C581.292 63.3958 580.282 60.1458 580.282 56.1875C580.282 53.0625 580.844 49.9896 581.969 46.9688C583.115 43.9271 584.323 41.8021 585.594 40.5938C587.115 39.1562 588.761 37.9583 590.532 37C592.323 36.0417 594.177 35.3229 596.094 34.8438C598.011 34.3646 599.98 34.125 602 34.125C604.646 34.125 607.157 34.5521 609.532 35.4062C611.927 36.2396 614.021 37.4583 615.813 39.0625L598.657 59.5312C600.177 59.5312 601.615 59.2188 602.969 58.5938C604.344 57.9479 605.605 57.0417 606.75 55.875C607.896 54.6875 608.917 53.3021 609.813 51.7188ZM601.157 44.4375C600.136 43.9167 599.094 43.6562 598.032 43.6562C596.907 43.6562 595.813 43.8854 594.75 44.3438C593.709 44.8021 592.969 45.3438 592.532 45.9688C591.24 47.6354 590.594 49.4688 590.594 51.4688C590.594 52.1979 590.667 52.8958 590.813 53.5625C590.959 54.2292 591.209 55.1458 591.563 56.3125L601.157 44.4375ZM585.094 21.9062L601.75 12.6875L608.907 23.6875L588.688 27.5312L585.094 21.9062Z" fill="#FFCB08"/>
<path d="M647.682 33.1562C653.077 31.4479 657.088 30.5938 659.713 30.5938C661.796 30.5938 663.588 31.0208 665.088 31.875C666.942 32.9375 668.942 34.75 671.088 37.3125C673.234 39.875 674.567 42.25 675.088 44.4375C676.192 48.875 676.744 52.75 676.744 56.0625C676.744 57.8125 676.63 59.6562 676.4 61.5938C676.171 63.5104 675.817 65.9792 675.338 69L662.275 69.7812C662.317 68.7396 662.338 67.2396 662.338 65.2812C662.338 57.1146 661.213 50.1667 658.963 44.4375C658.546 43.4167 658.057 42.6146 657.494 42.0312C656.932 41.4479 656.432 41.1562 655.994 41.1562C655.536 41.1562 655.307 41.4792 655.307 42.125C655.307 42.5 655.348 42.8229 655.432 43.0938C655.577 43.4271 655.723 43.875 655.869 44.4375C656.994 48.9583 657.557 52.8333 657.557 56.0625C657.557 57.6458 657.452 59.3125 657.244 61.0625C657.036 62.7917 656.671 65.4375 656.15 69L643.088 69.7812C643.13 68.7396 643.15 67.2396 643.15 65.2812C643.15 57.0938 642.015 50.1458 639.744 44.4375C639.473 43.7708 639.265 43.0729 639.119 42.3438C638.973 41.5938 638.869 41.2188 638.807 41.2188C638.723 41.2188 638.484 41.7083 638.088 42.6875C637.692 43.6667 637.265 44.6771 636.807 45.7188C636.494 46.4479 636.234 47.2812 636.025 48.2188C635.838 49.1562 635.692 50.2083 635.588 51.375C635.505 52.5417 635.463 53.9167 635.463 55.5C635.463 58.7083 635.65 62.7812 636.025 67.7188L620.682 69.5C620.432 67.6667 620.202 65.8438 619.994 64.0312C619.786 62.2188 619.619 60.5417 619.494 59C619.39 57.4375 619.338 55.7604 619.338 53.9688C619.338 53.1979 619.38 52.0833 619.463 50.625L618.9 32.4062L631.182 30.8438L632.963 32.9062C636.255 31.8438 638.942 31.3125 641.025 31.3125C643.338 31.3125 645.557 31.9271 647.682 33.1562Z" fill="#FFCB08"/>
<path d="M708.582 35.1562C710.061 35.9479 711.259 37.0208 712.175 38.375C713.113 39.7083 713.79 41.2188 714.207 42.9062C714.644 44.5729 714.863 46.3125 714.863 48.125C714.863 49.625 714.738 51.0729 714.488 52.4688C714.259 53.8646 713.936 55.1458 713.519 56.3125C713.102 57.4792 712.613 58.4688 712.05 59.2812C710.738 61.2396 709.332 62.9271 707.832 64.3438C706.332 65.7604 704.8 66.9062 703.238 67.7812C701.675 68.6354 700.123 69.2604 698.582 69.6562C697.061 70.0729 695.55 70.2812 694.05 70.2812C692.28 70.2812 690.592 70 688.988 69.4375C687.405 68.8958 686.05 68.1771 684.925 67.2812C683.071 65.7396 681.623 63.6667 680.582 61.0625C679.54 58.4375 679.019 55.6667 679.019 52.75C679.019 47.7292 680.467 43.6771 683.363 40.5938C685.842 37.9479 688.405 35.9583 691.05 34.625C693.696 33.2708 696.405 32.5938 699.175 32.5938C700.8 32.5938 702.363 32.8021 703.863 33.2188C705.363 33.6146 706.936 34.2604 708.582 35.1562ZM706.738 40.4062C706.384 41.9896 705.613 43.3854 704.425 44.5938C703.259 45.8021 702.113 46.4062 700.988 46.4062C700.425 46.4062 699.925 46.2604 699.488 45.9688C698.863 45.4688 698.55 44.5938 698.55 43.3438C698.55 42.3854 698.863 41.4375 699.488 40.5C700.134 39.5625 701.144 38.8229 702.519 38.2812C701.144 38.2812 699.811 38.5417 698.519 39.0625C697.248 39.5833 696.155 40.2604 695.238 41.0938C694.321 41.9062 693.582 42.8333 693.019 43.875C692.477 44.8958 692.207 45.9271 692.207 46.9688C692.207 48.9062 693.102 50.4479 694.894 51.5938C696.561 52.6562 698.144 53.1875 699.644 53.1875C701.123 53.1875 702.436 52.6979 703.582 51.7188C704.727 50.7188 705.602 49.4479 706.207 47.9062C706.811 46.3438 707.113 44.8021 707.113 43.2812C707.113 42.2396 706.988 41.2812 706.738 40.4062Z" fill="#FFCB08"/>
<path d="M732.2 32.9062C734.513 32.1354 736.502 31.5521 738.169 31.1562C739.836 30.7396 741.429 30.5312 742.95 30.5312C744.992 30.5312 746.784 30.9792 748.325 31.875C750.179 32.9375 752.179 34.75 754.325 37.3125C756.471 39.875 757.804 42.25 758.325 44.4375C759.429 48.875 759.982 52.75 759.982 56.0625C759.982 57.8125 759.867 59.6562 759.638 61.5938C759.409 63.5104 759.054 65.9792 758.575 69L745.513 69.7812C745.554 68.7396 745.575 67.2396 745.575 65.2812C745.575 57.1146 744.45 50.1667 742.2 44.4375C741.325 42.2917 740.471 41.2188 739.638 41.2188C738.554 41.2188 737.357 42.7188 736.044 45.7188C735.732 46.4479 735.471 47.2812 735.263 48.2188C735.075 49.1562 734.929 50.2083 734.825 51.375C734.742 52.5417 734.7 53.9167 734.7 55.5C734.7 58.7083 734.888 62.7812 735.263 67.7188L719.919 69.5C719.669 67.6667 719.44 65.8438 719.232 64.0312C719.023 62.2188 718.857 60.5417 718.732 59C718.627 57.4375 718.575 55.7604 718.575 53.9688C718.575 53.1979 718.617 52.0833 718.7 50.625L718.138 32.4062L730.419 30.8438L732.2 32.9062Z" fill="#FFCB08"/>
<path d="M773.319 41.2812C775.319 41.2188 777.361 40.625 779.444 39.5C781.548 38.375 783.496 36.9896 785.288 35.3438C787.08 33.6771 788.527 32.0521 789.632 30.4688C790.757 28.8854 791.319 27.7083 791.319 26.9375C791.319 26.5417 791.173 26.3125 790.882 26.25C790.361 26.125 789.777 26.0625 789.132 26.0625C788.007 26.0625 786.298 26.2917 784.007 26.75C781.736 27.2083 780.35 27.4688 779.85 27.5312C778.559 27.6771 776.882 28.1979 774.819 29.0938C772.757 29.9688 770.861 30.8646 769.132 31.7812C767.423 32.6771 766.475 33.2188 766.288 33.4062C766.225 33.4062 766.017 32.9583 765.663 32.0625C765.33 31.1667 764.871 29.9271 764.288 28.3438C763.725 26.7396 763.09 24.9688 762.382 23.0312C761.652 21.0729 761.163 19.8438 760.913 19.3438C763.434 18.5104 765.798 17.7396 768.007 17.0312C770.236 16.3229 772.58 15.6562 775.038 15.0312C777.496 14.3854 779.84 13.875 782.069 13.5C784.319 13.125 786.527 12.9375 788.694 12.9375C790.382 12.9375 791.934 13.0729 793.35 13.3438C794.767 13.5938 796.1 14.0208 797.35 14.625C798.621 15.2292 799.746 16.0417 800.725 17.0625C801.725 18.0625 802.538 19.25 803.163 20.625C803.371 21.0417 803.475 21.5938 803.475 22.2812C803.475 24.8438 801.819 28.2292 798.507 32.4375C795.194 36.625 791.34 40.5312 786.944 44.1562C782.548 47.7604 779.1 49.9375 776.6 50.6875L773.319 41.2812ZM781.382 56.4688C782.84 56.4688 784.111 56.7188 785.194 57.2188C786.298 57.6979 787.184 58.2708 787.85 58.9375C788.517 59.6042 788.986 60.2292 789.257 60.8125C789.527 61.3542 789.663 61.9688 789.663 62.6562C789.663 63.6771 789.444 64.7188 789.007 65.7812C788.569 66.8229 788.038 67.7188 787.413 68.4688C786.788 69.2188 786.194 69.6562 785.632 69.7812C784.507 69.9479 783.694 70.0312 783.194 70.0312C781.152 70.0312 779.507 69.5 778.257 68.4375C777.007 67.375 776.257 65.8958 776.007 64C776.007 62.2292 776.434 60.5729 777.288 59.0312C778.163 57.4896 779.527 56.6354 781.382 56.4688Z" fill="#FFCB08"/>
<path d="M51.5254 72.0625L36.1816 73.0938L32.0879 66.4375L28.4941 75.6562L18.4941 75.9062L6.74414 21.125L24.9004 22.9062L28.2441 41.5938L31.8066 34.6875L36.6816 43.4062L39.2441 14.4688L56.9004 13.1875L51.5254 72.0625Z" stroke="#3664AE" stroke-width="10" mask="url(#path-1-outside-1_1118_3)"/>
<path d="M76.6441 32.9062C80.3733 31.6771 83.5921 31.0625 86.3004 31.0625C88.7796 31.0625 90.9358 31.5938 92.7691 32.6562C93.8733 33.3021 95.1129 34.2812 96.4879 35.5938C97.8629 36.8854 99.0712 38.3125 100.113 39.875C101.175 41.4375 101.884 42.9583 102.238 44.4375C103.342 48.875 103.894 52.75 103.894 56.0625C103.894 57.8125 103.78 59.6562 103.55 61.5938C103.321 63.5104 102.967 65.9792 102.488 69L89.4254 69.7812C89.4671 68.7396 89.4879 67.2396 89.4879 65.2812C89.4879 57.1146 88.3629 50.1667 86.1129 44.4375C85.2379 42.2917 84.3837 41.2188 83.5504 41.2188C82.4671 41.2188 81.2691 42.7188 79.9566 45.7188C79.6441 46.4479 79.3837 47.2812 79.1754 48.2188C78.9879 49.1562 78.8421 50.2083 78.7379 51.375C78.6546 52.5417 78.6129 53.9167 78.6129 55.5C78.6129 58.7083 78.8004 62.7812 79.1754 67.7188L63.8316 69.5C63.665 68.2917 63.5608 66.875 63.5191 65.25C63.4566 63.625 63.415 61.9479 63.3941 60.2188C63.3525 58.4896 63.2796 56.9167 63.1754 55.5C63.0921 54.0625 62.9046 52.4375 62.6129 50.625L61.7691 9.875L74.5816 8.3125L76.6441 32.9062Z" stroke="#3664AE" stroke-width="10" mask="url(#path-1-outside-1_1118_3)"/>
<path d="M135.732 35.1562C137.211 35.9479 138.409 37.0208 139.325 38.375C140.263 39.7083 140.94 41.2188 141.357 42.9062C141.794 44.5729 142.013 46.3125 142.013 48.125C142.013 49.625 141.888 51.0729 141.638 52.4688C141.409 53.8646 141.086 55.1458 140.669 56.3125C140.252 57.4792 139.763 58.4688 139.2 59.2812C137.888 61.2396 136.482 62.9271 134.982 64.3438C133.482 65.7604 131.95 66.9062 130.388 67.7812C128.825 68.6354 127.273 69.2604 125.732 69.6562C124.211 70.0729 122.7 70.2812 121.2 70.2812C119.43 70.2812 117.742 70 116.138 69.4375C114.555 68.8958 113.2 68.1771 112.075 67.2812C110.221 65.7396 108.773 63.6667 107.732 61.0625C106.69 58.4375 106.169 55.6667 106.169 52.75C106.169 47.7292 107.617 43.6771 110.513 40.5938C112.992 37.9479 115.555 35.9583 118.2 34.625C120.846 33.2708 123.555 32.5938 126.325 32.5938C127.95 32.5938 129.513 32.8021 131.013 33.2188C132.513 33.6146 134.086 34.2604 135.732 35.1562ZM133.888 40.4062C133.534 41.9896 132.763 43.3854 131.575 44.5938C130.409 45.8021 129.263 46.4062 128.138 46.4062C127.575 46.4062 127.075 46.2604 126.638 45.9688C126.013 45.4688 125.7 44.5938 125.7 43.3438C125.7 42.3854 126.013 41.4375 126.638 40.5C127.284 39.5625 128.294 38.8229 129.669 38.2812C128.294 38.2812 126.961 38.5417 125.669 39.0625C124.398 39.5833 123.305 40.2604 122.388 41.0938C121.471 41.9062 120.732 42.8333 120.169 43.875C119.627 44.8958 119.357 45.9271 119.357 46.9688C119.357 48.9062 120.252 50.4479 122.044 51.5938C123.711 52.6562 125.294 53.1875 126.794 53.1875C128.273 53.1875 129.586 52.6979 130.732 51.7188C131.877 50.7188 132.752 49.4479 133.357 47.9062C133.961 46.3438 134.263 44.8021 134.263 43.2812C134.263 42.2396 134.138 41.2812 133.888 40.4062Z" stroke="#3664AE" stroke-width="10" mask="url(#path-1-outside-1_1118_3)"/>
<path d="M158.132 34L151.475 33.0938L146.413 13.125L159.413 14.9688L158.132 34Z" stroke="#3664AE" stroke-width="10" mask="url(#path-1-outside-1_1118_3)"/>
<path d="M200.063 45.1875C199.438 44.9583 197.917 44.4792 195.5 43.75C193.105 43 190.959 42.3542 189.063 41.8125C187.188 41.2708 185.115 40.75 182.844 40.25C180.573 39.75 178.802 39.5 177.532 39.5C176.865 39.5 176.355 39.6042 176 39.8125C174.98 40.5833 174.469 41.2917 174.469 41.9375C174.469 42.9583 175.49 43.8438 177.532 44.5938C179.573 45.3229 182.052 45.8646 184.969 46.2188C188.969 46.6562 192.198 47.5938 194.657 49.0312C197.136 50.4688 198.927 52.1458 200.032 54.0625C201.136 55.9583 201.688 57.9062 201.688 59.9062C201.688 61.3229 201.407 62.6458 200.844 63.875C198.427 69 193.792 71.5625 186.938 71.5625C185.063 71.5625 182.948 71.3542 180.594 70.9375C178.24 70.5417 175.98 70.0417 173.813 69.4375C171.667 68.8542 169.375 68.1667 166.938 67.375C164.5 66.5833 162.23 65.8438 160.125 65.1562C160.667 64.0312 161.355 62.6771 162.188 61.0938C163.021 59.4896 163.834 57.9271 164.625 56.4062C165.396 54.8854 165.782 54.0521 165.782 53.9062C166.386 54.4688 167.136 54.9271 168.032 55.2812C168.948 55.6146 170.271 56.0208 172 56.5C173.75 56.9583 175.084 57.375 176 57.75C178.021 58.5 180.115 58.875 182.282 58.875C183.615 58.875 184.886 58.7396 186.094 58.4688C187.302 58.1771 187.948 57.9375 188.032 57.75C188.032 57.2083 187.105 56.6771 185.25 56.1562C183.417 55.6146 181.365 55.1979 179.094 54.9062C176.511 54.6146 173.907 53.9896 171.282 53.0312C168.677 52.0521 166.459 50.625 164.625 48.75C162.792 46.875 161.875 44.5625 161.875 41.8125C161.875 39.7083 162.407 37.5104 163.469 35.2188C164.636 32.6562 166.386 30.8021 168.719 29.6562C171.052 28.4896 173.844 27.9062 177.094 27.9062C180.844 27.9062 184.709 28.4375 188.688 29.5C192.667 30.5625 198.084 32.2083 204.938 34.4375C204.792 34.75 204.219 36.0833 203.219 38.4375C202.219 40.7708 201.469 42.4792 200.969 43.5625C200.469 44.6458 200.167 45.1875 200.063 45.1875Z" stroke="#3664AE" stroke-width="10" mask="url(#path-1-outside-1_1118_3)"/>
<path d="M250.863 14.2188L264.519 8.0625L264.3 29.0625L274.488 29.3125V41.3438L263.925 41.4688C263.55 44.4271 263.363 47.2083 263.363 49.8125C263.363 51.9792 263.488 53.7708 263.738 55.1875C263.946 56.3542 264.467 57.25 265.3 57.875C266.134 58.5 267.102 58.8125 268.207 58.8125C269.436 58.8125 270.509 58.4479 271.425 57.7188C272.363 56.9896 272.832 55.9896 272.832 54.7188C272.832 54.5312 272.79 54.1667 272.707 53.625L282.925 46.9688C283.363 47.7812 283.905 49.1458 284.55 51.0625C285.217 52.9792 285.55 55.0729 285.55 57.3438C285.55 60.0729 284.832 62.5417 283.394 64.75C281.957 66.9583 279.498 68.6354 276.019 69.7812C273.582 70.5729 271.28 70.9688 269.113 70.9688C265.842 70.9688 262.957 70.25 260.457 68.8125C257.977 67.375 255.915 65.6458 254.269 63.625C253.498 62.6875 252.894 61.1354 252.457 58.9688C252.04 56.8021 251.769 54.5417 251.644 52.1875C251.519 49.8333 251.457 47.4792 251.457 45.125V41.5938L242.238 41.875L239.925 27.7812L251.582 28.5625L250.863 14.2188Z" stroke="#3664AE" stroke-width="10" mask="url(#path-1-outside-1_1118_3)"/>
<path d="M305.482 32.9062C309.211 31.6771 312.43 31.0625 315.138 31.0625C317.617 31.0625 319.773 31.5938 321.607 32.6562C322.711 33.3021 323.95 34.2812 325.325 35.5938C326.7 36.8854 327.909 38.3125 328.95 39.875C330.013 41.4375 330.721 42.9583 331.075 44.4375C332.18 48.875 332.732 52.75 332.732 56.0625C332.732 57.8125 332.617 59.6562 332.388 61.5938C332.159 63.5104 331.805 65.9792 331.325 69L318.263 69.7812C318.305 68.7396 318.325 67.2396 318.325 65.2812C318.325 57.1146 317.2 50.1667 314.95 44.4375C314.075 42.2917 313.221 41.2188 312.388 41.2188C311.305 41.2188 310.107 42.7188 308.794 45.7188C308.482 46.4479 308.221 47.2812 308.013 48.2188C307.825 49.1562 307.68 50.2083 307.575 51.375C307.492 52.5417 307.45 53.9167 307.45 55.5C307.45 58.7083 307.638 62.7812 308.013 67.7188L292.669 69.5C292.502 68.2917 292.398 66.875 292.357 65.25C292.294 63.625 292.252 61.9479 292.232 60.2188C292.19 58.4896 292.117 56.9167 292.013 55.5C291.93 54.0625 291.742 52.4375 291.45 50.625L290.607 9.875L303.419 8.3125L305.482 32.9062Z" stroke="#3664AE" stroke-width="10" mask="url(#path-1-outside-1_1118_3)"/>
<path d="M356.975 38.4062C355.83 38.5521 354.694 38.9167 353.569 39.5C352.465 40.0833 351.517 40.7708 350.725 41.5625C349.934 42.3542 349.309 43.2292 348.85 44.1875C348.413 45.125 348.194 46.0521 348.194 46.9688C348.194 48.8646 349.09 50.4062 350.882 51.5938C352.465 52.6562 354.069 53.1875 355.694 53.1875C356.007 53.1875 356.434 53.1458 356.975 53.0625V46.4062C356.413 46.4062 355.913 46.2604 355.475 45.9688C354.85 45.4688 354.538 44.5104 354.538 43.0938C354.538 41.0521 355.35 39.4896 356.975 38.4062ZM357.225 32.9062L370.288 27.0312L370.538 44.5C370.705 45.5833 370.788 46.8125 370.788 48.1875C370.788 49.3958 370.746 50.2917 370.663 50.875L371.038 70.0312L356.975 70.7812V68.875C354.684 69.8125 352.371 70.2812 350.038 70.2812C348.246 70.2812 346.559 70.0104 344.975 69.4688C343.413 68.9271 342.059 68.1979 340.913 67.2812C339.059 65.7396 337.611 63.6667 336.569 61.0625C335.527 58.4375 335.007 55.6667 335.007 52.75C335.007 47.7292 336.455 43.6771 339.35 40.5938C341.85 37.9688 344.423 35.9792 347.069 34.625C349.736 33.2708 352.455 32.5938 355.225 32.5938C355.996 32.5938 356.58 32.6146 356.975 32.6562L357.225 32.9062Z" stroke="#3664AE" stroke-width="10" mask="url(#path-1-outside-1_1118_3)"/>
<path d="M380.5 14.2188L394.157 8.0625L393.938 29.0625L404.125 29.3125V41.3438L393.563 41.4688C393.188 44.4271 393 47.2083 393 49.8125C393 51.9792 393.125 53.7708 393.375 55.1875C393.584 56.3542 394.105 57.25 394.938 57.875C395.771 58.5 396.74 58.8125 397.844 58.8125C399.073 58.8125 400.146 58.4479 401.063 57.7188C402 56.9896 402.469 55.9896 402.469 54.7188C402.469 54.5312 402.427 54.1667 402.344 53.625L412.563 46.9688C413 47.7812 413.542 49.1458 414.188 51.0625C414.855 52.9792 415.188 55.0729 415.188 57.3438C415.188 60.0729 414.469 62.5417 413.032 64.75C411.594 66.9583 409.136 68.6354 405.657 69.7812C403.219 70.5729 400.917 70.9688 398.75 70.9688C395.48 70.9688 392.594 70.25 390.094 68.8125C387.615 67.375 385.552 65.6458 383.907 63.625C383.136 62.6875 382.532 61.1354 382.094 58.9688C381.677 56.8021 381.407 54.5417 381.282 52.1875C381.157 49.8333 381.094 47.4792 381.094 45.125V41.5938L371.875 41.875L369.563 27.7812L381.219 28.5625L380.5 14.2188Z" stroke="#3664AE" stroke-width="10" mask="url(#path-1-outside-1_1118_3)"/>
<path d="M456.863 19.3438C459.384 18.5104 461.748 17.7396 463.957 17.0312C466.186 16.3229 468.53 15.6562 470.988 15.0312C473.446 14.3854 475.8 13.875 478.05 13.5C479.78 13.2083 481.55 13.0625 483.363 13.0625C486.384 13.0625 488.363 13.1458 489.3 13.3125C490.717 13.5833 492.05 14.0208 493.3 14.625C494.571 15.2292 495.696 16.0417 496.675 17.0625C497.675 18.0625 498.488 19.25 499.113 20.625C499.363 21.1875 499.488 21.7812 499.488 22.4062C499.488 24.7396 498.207 27.6146 495.644 31.0312C493.102 34.4479 490.54 37.4271 487.957 39.9688C485.394 42.5104 483.477 44.3333 482.207 45.4375L487.832 65.1562L479.644 71.0625L465.3 30.0938C465.259 30.0938 465.061 30.2917 464.707 30.6875C464.352 31.0833 463.884 31.6042 463.3 32.25C462.738 32.875 462.384 33.2604 462.238 33.4062C462.175 33.4062 461.967 32.9583 461.613 32.0625C461.28 31.1667 460.821 29.9271 460.238 28.3438C459.675 26.7396 459.04 24.9688 458.332 23.0312C457.602 21.0729 457.113 19.8438 456.863 19.3438ZM477.082 28.0312L479.644 37.25C480.936 35.9375 482.54 34.1458 484.457 31.875C486.373 29.6042 487.332 27.9583 487.332 26.9375C487.332 26.5417 487.165 26.3125 486.832 26.25C485.894 26.0417 484.967 25.9375 484.05 25.9375C481.3 25.9375 478.977 26.6354 477.082 28.0312Z" stroke="#3664AE" stroke-width="10" mask="url(#path-1-outside-1_1118_3)"/>
<path d="M529.357 35.1562C530.836 35.9479 532.034 37.0208 532.95 38.375C533.888 39.7083 534.565 41.2188 534.982 42.9062C535.419 44.5729 535.638 46.3125 535.638 48.125C535.638 49.625 535.513 51.0729 535.263 52.4688C535.034 53.8646 534.711 55.1458 534.294 56.3125C533.877 57.4792 533.388 58.4688 532.825 59.2812C531.513 61.2396 530.107 62.9271 528.607 64.3438C527.107 65.7604 525.575 66.9062 524.013 67.7812C522.45 68.6354 520.898 69.2604 519.357 69.6562C517.836 70.0729 516.325 70.2812 514.825 70.2812C513.055 70.2812 511.367 70 509.763 69.4375C508.18 68.8958 506.825 68.1771 505.7 67.2812C503.846 65.7396 502.398 63.6667 501.357 61.0625C500.315 58.4375 499.794 55.6667 499.794 52.75C499.794 47.7292 501.242 43.6771 504.138 40.5938C506.617 37.9479 509.18 35.9583 511.825 34.625C514.471 33.2708 517.18 32.5938 519.95 32.5938C521.575 32.5938 523.138 32.8021 524.638 33.2188C526.138 33.6146 527.711 34.2604 529.357 35.1562ZM527.513 40.4062C527.159 41.9896 526.388 43.3854 525.2 44.5938C524.034 45.8021 522.888 46.4062 521.763 46.4062C521.2 46.4062 520.7 46.2604 520.263 45.9688C519.638 45.4688 519.325 44.5938 519.325 43.3438C519.325 42.3854 519.638 41.4375 520.263 40.5C520.909 39.5625 521.919 38.8229 523.294 38.2812C521.919 38.2812 520.586 38.5417 519.294 39.0625C518.023 39.5833 516.93 40.2604 516.013 41.0938C515.096 41.9062 514.357 42.8333 513.794 43.875C513.252 44.8958 512.982 45.9271 512.982 46.9688C512.982 48.9062 513.877 50.4479 515.669 51.5938C517.336 52.6562 518.919 53.1875 520.419 53.1875C521.898 53.1875 523.211 52.6979 524.357 51.7188C525.502 50.7188 526.377 49.4479 526.982 47.9062C527.586 46.3438 527.888 44.8021 527.888 43.2812C527.888 42.2396 527.763 41.2812 527.513 40.4062Z" stroke="#3664AE" stroke-width="10" mask="url(#path-1-outside-1_1118_3)"/>
<path d="M536.85 16.7812L552.725 10.125L555.038 46.2188L568.1 39.0625L581.663 41.0938L563.975 54.6562L580.632 67.2188L581.382 79.75L556.819 62.0938L557.6 77.4375L542.725 77.7188L539.913 23.4375L535.319 24.4688L536.85 16.7812Z" stroke="#3664AE" stroke-width="10" mask="url(#path-1-outside-1_1118_3)"/>
<path d="M609.813 51.7188L617.344 60.8125C616.74 62.5625 615.302 64.1667 613.032 65.625C610.782 67.0833 608.094 68.2292 604.969 69.0625C601.865 69.9167 598.761 70.3438 595.657 70.3438C592.907 70.3438 590.448 69.9792 588.282 69.25C586.136 68.5208 584.48 67.4167 583.313 65.9375C581.292 63.3958 580.282 60.1458 580.282 56.1875C580.282 53.0625 580.844 49.9896 581.969 46.9688C583.115 43.9271 584.323 41.8021 585.594 40.5938C587.115 39.1562 588.761 37.9583 590.532 37C592.323 36.0417 594.177 35.3229 596.094 34.8438C598.011 34.3646 599.98 34.125 602 34.125C604.646 34.125 607.157 34.5521 609.532 35.4062C611.927 36.2396 614.021 37.4583 615.813 39.0625L598.657 59.5312C600.177 59.5312 601.615 59.2188 602.969 58.5938C604.344 57.9479 605.605 57.0417 606.75 55.875C607.896 54.6875 608.917 53.3021 609.813 51.7188ZM601.157 44.4375C600.136 43.9167 599.094 43.6562 598.032 43.6562C596.907 43.6562 595.813 43.8854 594.75 44.3438C593.709 44.8021 592.969 45.3438 592.532 45.9688C591.24 47.6354 590.594 49.4688 590.594 51.4688C590.594 52.1979 590.667 52.8958 590.813 53.5625C590.959 54.2292 591.209 55.1458 591.563 56.3125L601.157 44.4375ZM585.094 21.9062L601.75 12.6875L608.907 23.6875L588.688 27.5312L585.094 21.9062Z" stroke="#3664AE" stroke-width="10" mask="url(#path-1-outside-1_1118_3)"/>
<path d="M647.682 33.1562C653.077 31.4479 657.088 30.5938 659.713 30.5938C661.796 30.5938 663.588 31.0208 665.088 31.875C666.942 32.9375 668.942 34.75 671.088 37.3125C673.234 39.875 674.567 42.25 675.088 44.4375C676.192 48.875 676.744 52.75 676.744 56.0625C676.744 57.8125 676.63 59.6562 676.4 61.5938C676.171 63.5104 675.817 65.9792 675.338 69L662.275 69.7812C662.317 68.7396 662.338 67.2396 662.338 65.2812C662.338 57.1146 661.213 50.1667 658.963 44.4375C658.546 43.4167 658.057 42.6146 657.494 42.0312C656.932 41.4479 656.432 41.1562 655.994 41.1562C655.536 41.1562 655.307 41.4792 655.307 42.125C655.307 42.5 655.348 42.8229 655.432 43.0938C655.577 43.4271 655.723 43.875 655.869 44.4375C656.994 48.9583 657.557 52.8333 657.557 56.0625C657.557 57.6458 657.452 59.3125 657.244 61.0625C657.036 62.7917 656.671 65.4375 656.15 69L643.088 69.7812C643.13 68.7396 643.15 67.2396 643.15 65.2812C643.15 57.0938 642.015 50.1458 639.744 44.4375C639.473 43.7708 639.265 43.0729 639.119 42.3438C638.973 41.5938 638.869 41.2188 638.807 41.2188C638.723 41.2188 638.484 41.7083 638.088 42.6875C637.692 43.6667 637.265 44.6771 636.807 45.7188C636.494 46.4479 636.234 47.2812 636.025 48.2188C635.838 49.1562 635.692 50.2083 635.588 51.375C635.505 52.5417 635.463 53.9167 635.463 55.5C635.463 58.7083 635.65 62.7812 636.025 67.7188L620.682 69.5C620.432 67.6667 620.202 65.8438 619.994 64.0312C619.786 62.2188 619.619 60.5417 619.494 59C619.39 57.4375 619.338 55.7604 619.338 53.9688C619.338 53.1979 619.38 52.0833 619.463 50.625L618.9 32.4062L631.182 30.8438L632.963 32.9062C636.255 31.8438 638.942 31.3125 641.025 31.3125C643.338 31.3125 645.557 31.9271 647.682 33.1562Z" stroke="#3664AE" stroke-width="10" mask="url(#path-1-outside-1_1118_3)"/>
<path d="M708.582 35.1562C710.061 35.9479 711.259 37.0208 712.175 38.375C713.113 39.7083 713.79 41.2188 714.207 42.9062C714.644 44.5729 714.863 46.3125 714.863 48.125C714.863 49.625 714.738 51.0729 714.488 52.4688C714.259 53.8646 713.936 55.1458 713.519 56.3125C713.102 57.4792 712.613 58.4688 712.05 59.2812C710.738 61.2396 709.332 62.9271 707.832 64.3438C706.332 65.7604 704.8 66.9062 703.238 67.7812C701.675 68.6354 700.123 69.2604 698.582 69.6562C697.061 70.0729 695.55 70.2812 694.05 70.2812C692.28 70.2812 690.592 70 688.988 69.4375C687.405 68.8958 686.05 68.1771 684.925 67.2812C683.071 65.7396 681.623 63.6667 680.582 61.0625C679.54 58.4375 679.019 55.6667 679.019 52.75C679.019 47.7292 680.467 43.6771 683.363 40.5938C685.842 37.9479 688.405 35.9583 691.05 34.625C693.696 33.2708 696.405 32.5938 699.175 32.5938C700.8 32.5938 702.363 32.8021 703.863 33.2188C705.363 33.6146 706.936 34.2604 708.582 35.1562ZM706.738 40.4062C706.384 41.9896 705.613 43.3854 704.425 44.5938C703.259 45.8021 702.113 46.4062 700.988 46.4062C700.425 46.4062 699.925 46.2604 699.488 45.9688C698.863 45.4688 698.55 44.5938 698.55 43.3438C698.55 42.3854 698.863 41.4375 699.488 40.5C700.134 39.5625 701.144 38.8229 702.519 38.2812C701.144 38.2812 699.811 38.5417 698.519 39.0625C697.248 39.5833 696.155 40.2604 695.238 41.0938C694.321 41.9062 693.582 42.8333 693.019 43.875C692.477 44.8958 692.207 45.9271 692.207 46.9688C692.207 48.9062 693.102 50.4479 694.894 51.5938C696.561 52.6562 698.144 53.1875 699.644 53.1875C701.123 53.1875 702.436 52.6979 703.582 51.7188C704.727 50.7188 705.602 49.4479 706.207 47.9062C706.811 46.3438 707.113 44.8021 707.113 43.2812C707.113 42.2396 706.988 41.2812 706.738 40.4062Z" stroke="#3664AE" stroke-width="10" mask="url(#path-1-outside-1_1118_3)"/>
<path d="M732.2 32.9062C734.513 32.1354 736.502 31.5521 738.169 31.1562C739.836 30.7396 741.429 30.5312 742.95 30.5312C744.992 30.5312 746.784 30.9792 748.325 31.875C750.179 32.9375 752.179 34.75 754.325 37.3125C756.471 39.875 757.804 42.25 758.325 44.4375C759.429 48.875 759.982 52.75 759.982 56.0625C759.982 57.8125 759.867 59.6562 759.638 61.5938C759.409 63.5104 759.054 65.9792 758.575 69L745.513 69.7812C745.554 68.7396 745.575 67.2396 745.575 65.2812C745.575 57.1146 744.45 50.1667 742.2 44.4375C741.325 42.2917 740.471 41.2188 739.638 41.2188C738.554 41.2188 737.357 42.7188 736.044 45.7188C735.732 46.4479 735.471 47.2812 735.263 48.2188C735.075 49.1562 734.929 50.2083 734.825 51.375C734.742 52.5417 734.7 53.9167 734.7 55.5C734.7 58.7083 734.888 62.7812 735.263 67.7188L719.919 69.5C719.669 67.6667 719.44 65.8438 719.232 64.0312C719.023 62.2188 718.857 60.5417 718.732 59C718.627 57.4375 718.575 55.7604 718.575 53.9688C718.575 53.1979 718.617 52.0833 718.7 50.625L718.138 32.4062L730.419 30.8438L732.2 32.9062Z" stroke="#3664AE" stroke-width="10" mask="url(#path-1-outside-1_1118_3)"/>
<path d="M773.319 41.2812C775.319 41.2188 777.361 40.625 779.444 39.5C781.548 38.375 783.496 36.9896 785.288 35.3438C787.08 33.6771 788.527 32.0521 789.632 30.4688C790.757 28.8854 791.319 27.7083 791.319 26.9375C791.319 26.5417 791.173 26.3125 790.882 26.25C790.361 26.125 789.777 26.0625 789.132 26.0625C788.007 26.0625 786.298 26.2917 784.007 26.75C781.736 27.2083 780.35 27.4688 779.85 27.5312C778.559 27.6771 776.882 28.1979 774.819 29.0938C772.757 29.9688 770.861 30.8646 769.132 31.7812C767.423 32.6771 766.475 33.2188 766.288 33.4062C766.225 33.4062 766.017 32.9583 765.663 32.0625C765.33 31.1667 764.871 29.9271 764.288 28.3438C763.725 26.7396 763.09 24.9688 762.382 23.0312C761.652 21.0729 761.163 19.8438 760.913 19.3438C763.434 18.5104 765.798 17.7396 768.007 17.0312C770.236 16.3229 772.58 15.6562 775.038 15.0312C777.496 14.3854 779.84 13.875 782.069 13.5C784.319 13.125 786.527 12.9375 788.694 12.9375C790.382 12.9375 791.934 13.0729 793.35 13.3438C794.767 13.5938 796.1 14.0208 797.35 14.625C798.621 15.2292 799.746 16.0417 800.725 17.0625C801.725 18.0625 802.538 19.25 803.163 20.625C803.371 21.0417 803.475 21.5938 803.475 22.2812C803.475 24.8438 801.819 28.2292 798.507 32.4375C795.194 36.625 791.34 40.5312 786.944 44.1562C782.548 47.7604 779.1 49.9375 776.6 50.6875L773.319 41.2812ZM781.382 56.4688C782.84 56.4688 784.111 56.7188 785.194 57.2188C786.298 57.6979 787.184 58.2708 787.85 58.9375C788.517 59.6042 788.986 60.2292 789.257 60.8125C789.527 61.3542 789.663 61.9688 789.663 62.6562C789.663 63.6771 789.444 64.7188 789.007 65.7812C788.569 66.8229 788.038 67.7188 787.413 68.4688C786.788 69.2188 786.194 69.6562 785.632 69.7812C784.507 69.9479 783.694 70.0312 783.194 70.0312C781.152 70.0312 779.507 69.5 778.257 68.4375C777.007 67.375 776.257 65.8958 776.007 64C776.007 62.2292 776.434 60.5729 777.288 59.0312C778.163 57.4896 779.527 56.6354 781.382 56.4688Z" stroke="#3664AE" stroke-width="10" mask="url(#path-1-outside-1_1118_3)"/>
</g>
<defs>
<filter id="filter0_d_1118_3" x="0.419922" y="0.287354" width="812.055" height="93.6597" filterUnits="userSpaceOnUse" color-interpolation-filters="sRGB">
<feFlood flood-opacity="0" result="BackgroundImageFix"/>
<feColorMatrix in="SourceAlpha" type="matrix" values="0 0 0 0 0 0 0 0 0 0 0 0 0 0 0 0 0 0 127 0" result="hardAlpha"/>
<feOffset dx="4" dy="4"/>
<feComposite in2="hardAlpha" operator="out"/>
<feColorMatrix type="matrix" values="0 0 0 0 0 0 0 0 0 0 0 0 0 0 0 0 0 0 0.3 0"/>
<feBlend mode="normal" in2="BackgroundImageFix" result="effect1_dropShadow_1118_3"/>
<feBlend mode="normal" in="SourceGraphic" in2="effect1_dropShadow_1118_3" result="shape"/>
</filter>
</defs>
</svg>
