<svg width="654" height="514" viewBox="0 0 654 514" fill="none" xmlns="http://www.w3.org/2000/svg">
<path d="M646.573 310.048C650.99 314.429 653.474 320.392 653.474 326.616C653.474 332.841 650.99 338.804 646.573 343.184C642.193 347.601 636.23 350.085 630.005 350.085C623.781 350.085 617.818 347.601 613.437 343.184L560.005 289.518L506.573 343.184C502.193 347.601 496.23 350.085 490.005 350.085C483.781 350.085 477.818 347.601 473.437 343.184C469.021 338.804 466.536 332.841 466.536 326.616C466.536 320.392 469.021 314.429 473.437 310.048L527.104 256.616L473.437 203.184C467.521 197.262 465.208 188.638 467.375 180.554C469.541 172.465 475.854 166.152 483.943 163.986C492.026 161.819 500.651 164.131 506.573 170.048L560.005 223.715L613.438 170.048C619.359 164.131 627.984 161.819 636.068 163.986C644.157 166.152 650.47 172.465 652.636 180.554C654.803 188.637 652.49 197.262 646.574 203.184L592.907 256.616L646.573 310.048ZM116.667 116.622H23.3333C17.1459 116.622 11.2083 119.08 6.83333 123.455C2.4584 127.83 0 133.767 0 139.955V373.288C0 379.476 2.4584 385.413 6.83333 389.788C11.2083 394.163 17.1459 396.622 23.3333 396.622H116.667V116.622ZM409.267 3.68957C402.631 -0.565634 394.293 -1.18017 387.1 2.0541L163.34 103.789V409.455L387.1 511.19C390.105 512.56 393.366 513.273 396.668 513.289C401.137 513.279 405.511 511.982 409.267 509.555C415.944 505.273 419.985 497.888 420.001 489.956V23.2893C419.985 15.357 415.944 7.97197 409.267 3.69063V3.68957Z" fill="#3664AE"/>
</svg>
