<svg width="654" height="514" viewBox="0 0 654 514" fill="none" xmlns="http://www.w3.org/2000/svg">
<path d="M653.333 256.622C653.464 287.304 647.464 317.7 635.683 346.028C623.902 374.356 606.579 400.05 584.735 421.591C580.36 425.935 574.448 428.372 568.281 428.372C562.12 428.372 556.203 425.935 551.833 421.591C547.49 417.216 545.047 411.305 545.047 405.138C545.047 398.976 547.49 393.059 551.833 388.69C586.745 353.695 606.349 306.283 606.349 256.856C606.349 207.424 586.745 160.018 551.833 125.023C546.87 120.825 543.875 114.752 543.583 108.258C543.286 101.768 545.714 95.445 550.276 90.8149C554.839 86.1846 561.125 83.669 567.62 83.8774C574.12 84.0805 580.235 86.9816 584.5 91.8878C606.36 113.383 623.708 139.028 635.531 167.314C647.348 195.601 653.4 225.966 653.333 256.622ZM519.173 157.69C514.981 152.721 508.903 149.731 502.413 149.434C495.919 149.143 489.596 151.565 484.965 156.132C480.34 160.695 477.825 166.981 478.028 173.476C478.231 179.976 481.137 186.091 486.038 190.356C503.71 207.883 513.648 231.736 513.648 256.622C513.648 281.507 503.71 305.362 486.038 322.887C481.695 327.262 479.257 333.173 479.257 339.34C479.257 345.502 481.695 351.418 486.038 355.788C490.387 360.101 496.252 362.528 502.372 362.554C508.611 362.528 514.575 360.007 518.94 355.554C545.158 329.303 559.882 293.721 559.882 256.622C559.882 219.523 545.158 183.939 518.94 157.69L519.173 157.69ZM116.667 116.622H23.3333C17.1459 116.622 11.2083 119.08 6.83333 123.455C2.4584 127.83 0 133.767 0 139.955V373.288C0 379.476 2.4584 385.413 6.83333 389.788C11.2083 394.163 17.1459 396.622 23.3333 396.622H116.667V116.622ZM409.267 3.68957C402.631 -0.565634 394.293 -1.18017 387.1 2.0541L163.34 103.789V409.455L387.1 511.19C390.105 512.56 393.366 513.273 396.668 513.289C401.137 513.279 405.511 511.982 409.267 509.555C415.944 505.273 419.985 497.888 420.001 489.956V23.2893C419.985 15.357 415.944 7.97197 409.267 3.69063V3.68957Z" fill="#3664AE"/>
</svg>
