<svg width="62" height="62" viewBox="0 0 62 62" fill="none" xmlns="http://www.w3.org/2000/svg"><path d="M31 1C14.4583 1 1 14.4583 1 31C1 47.5417 14.4583 61 31 61C47.5417 61 61 47.5417 61 31C61 14.4583 47.5417 1 31 1ZM31 21.8696C36.0348 21.8696 40.1304 25.9652 40.1304 31C40.1304 36.0348 36.0348 40.1304 31 40.1304C25.9652 40.1304 21.8696 36.0348 21.8696 31C21.8696 25.9652 25.9652 21.8696 31 21.8696ZM31 58.3913C16.3365 58.3913 4.36261 46.8009 3.67391 32.3043H19.3913C20.0487 38.1583 24.9713 42.7391 30.9974 42.7391C37.0235 42.7391 41.9461 38.1583 42.6035 32.3043H58.3209C57.6374 46.8009 45.6635 58.3913 31 58.3913Z" fill="#FFCB08" stroke="#FFCB08"/><path d="M31.0003 24.4783C27.4055 24.4783 24.4785 27.4052 24.4785 31C24.4785 34.5948 27.4055 37.5217 31.0003 37.5217C34.595 37.5217 37.522 34.5948 37.522 31C37.522 27.4052 34.595 24.4783 31.0003 24.4783ZM31.0003 34.9131C28.8429 34.9131 27.0872 33.1574 27.0872 31C27.0872 28.8426 28.8429 27.087 31.0003 27.087C33.1576 27.087 34.9133 28.8426 34.9133 31C34.9133 33.1574 33.1576 34.9131 31.0003 34.9131Z" fill="#FFCB08" stroke="#FFCB08"/></svg>